<svg xmlns="http://www.w3.org/2000/svg" viewBox="0 0 20.95 19.96"><defs><style>.cls-1{fill:#00c100;}.cls-2{fill:#fff;}</style></defs><g id="レイヤー_2" data-name="レイヤー 2"><g id="テキスト"><g id="FULL_COLOR_ICON" data-name="FULL COLOR ICON"><g id="TYPE_A" data-name="TYPE A"><path class="cls-1" d="M21,8.5C21,3.81,16.25,0,10.47,0S0,3.81,0,8.5c0,4.2,3.73,7.72,8.76,8.38.34.08.8.23.92.52a2.18,2.18,0,0,1,0,1s-.13.74-.15.89-.21,1,.9.57a33.77,33.77,0,0,0,8.23-6.08h0A7.58,7.58,0,0,0,21,8.5"/><path class="cls-2" d="M8.35,6.23H7.61a.21.21,0,0,0-.2.21V11a.2.2,0,0,0,.2.2h.74a.2.2,0,0,0,.2-.2V6.44a.21.21,0,0,0-.2-.21"/><path class="cls-2" d="M13.4,6.23h-.73a.21.21,0,0,0-.21.21V9.15L10.37,6.32v0H9.47a.21.21,0,0,0-.21.21V11a.2.2,0,0,0,.21.2h.73a.21.21,0,0,0,.21-.2V8.29l2.09,2.83a.12.12,0,0,0,.05.05h.85a.21.21,0,0,0,.21-.2V6.44a.22.22,0,0,0-.21-.21"/><path class="cls-2" d="M6.57,10.06h-2V6.44a.21.21,0,0,0-.21-.21H3.64a.21.21,0,0,0-.2.21V11h0a.2.2,0,0,0,.05.14h0a.22.22,0,0,0,.14.06H6.57A.21.21,0,0,0,6.78,11v-.73a.21.21,0,0,0-.21-.21"/><path class="cls-2" d="M17.46,7.38a.2.2,0,0,0,.2-.21V6.44a.21.21,0,0,0-.2-.21H14.52a.25.25,0,0,0-.14.06h0a.17.17,0,0,0-.06.14h0V11h0a.17.17,0,0,0,.06.14h0a.25.25,0,0,0,.14.06h2.94a.21.21,0,0,0,.2-.21v-.73a.2.2,0,0,0-.2-.21h-2V9.29h2a.2.2,0,0,0,.2-.2V8.35a.2.2,0,0,0-.2-.2h-2V7.38Z"/></g></g></g></g></svg>