<svg xmlns="http://www.w3.org/2000/svg" viewBox="0 0 60.42 49.11"><defs><style>.cls-1{fill:#1da1f2;}</style></defs><g id="レイヤー_2" data-name="レイヤー 2"><g id="アーカイヴ"><path class="cls-1" d="M19,49.11c22.8,0,35.27-18.89,35.27-35.28,0-.53,0-1.07,0-1.6a25.15,25.15,0,0,0,6.18-6.42,24.3,24.3,0,0,1-7.12,2A12.39,12.39,0,0,0,58.75.91a24.82,24.82,0,0,1-7.87,3A12.4,12.4,0,0,0,29.44,12.4a12,12,0,0,0,.32,2.82A35.18,35.18,0,0,1,4.21,2.27,12.41,12.41,0,0,0,8,18.82a12.26,12.26,0,0,1-5.61-1.55v.16a12.4,12.4,0,0,0,9.94,12.15A12.59,12.59,0,0,1,9.1,30a12,12,0,0,1-2.33-.23A12.41,12.41,0,0,0,18.35,38.4,24.82,24.82,0,0,1,3,43.71a26.29,26.29,0,0,1-3-.17,35.15,35.15,0,0,0,19,5.57"/></g></g></svg>