<svg xmlns="http://www.w3.org/2000/svg" viewBox="0 0 732.09 180.42"><defs><style>.cls-1{fill:#fff;}.cls-2{fill:none;stroke:#fff;stroke-miterlimit:10;stroke-width:0.75px;}</style></defs><g id="レイヤー_2" data-name="レイヤー 2"><g id="テキスト"><path class="cls-1" d="M1.49,4.46H36.15V5.92H3V30.56H34V32H3V59.66H1.49Z"/><path class="cls-1" d="M93.31,59.66H91.94c-.22-1.46-.15-9.93-.15-13.32C88.9,55,82.38,60.74,69.72,60.74c-16.43,0-25.55-13-25.55-28.26,0-16.86,10.64-29.1,26.05-29.1,12.16,0,20.34,5.7,23.38,16.09H92C89,9.61,80.72,4.84,70.08,4.84c-14.62,0-24.32,11.78-24.32,27.64,0,14.32,8.76,26.8,24,26.8,13.17,0,22-7,22-22.1V33.41H69.93V31.94H93.31Z"/><path class="cls-1" d="M157.2,31.56c0,16.32-9.84,29.18-26.27,29.18-15.42,0-26.05-12.55-26.05-28.72,0-15.48,10.78-28.64,26.34-28.64C146.13,3.38,157.2,15.77,157.2,31.56Zm-50.73.38c0,14.48,9.55,27.34,24.53,27.34,14.4,0,24.61-11.32,24.61-27.57,0-14.47-10.06-26.87-24.46-26.87C117.47,4.84,106.47,16.62,106.47,31.94Z"/><path class="cls-1" d="M222.42,8.54h-25c-.8,7.85-2,18.86-3,23.63,2.61-3.77,6.66-6.93,14.26-6.93C218.07,25.24,225,31.79,225,42c0,11.55-6.73,18.71-17.08,18.71-9.19,0-15.12-5.39-16.86-13.4h1.52c2,6.93,7,11.94,15.41,11.94,9,0,15.42-6.16,15.42-17.17,0-6.7-3.76-15.4-14.69-15.4-9,0-12.52,4.54-14.62,8.62l-1.45-.46c1.23-6.85,3.18-23.25,3.4-27.8H222.7Z"/><path class="cls-1" d="M230.19,21h7.23V8.07h1.52V21h9.63v1.46h-9.63v28c0,5.31.94,8.47,5.94,8.47a9.89,9.89,0,0,0,3.33-.54v1.39a8.3,8.3,0,0,1-3.33.61c-5.36,0-7.46-2.54-7.46-10.24V22.47h-7.23Z"/><path class="cls-1" d="M259.06.38V31.56c1.89-6.16,7.17-11.63,15.49-11.63,7.46,0,14.55,4.39,14.55,16.94V59.66h-1.52V37.18c0-8.63-3.69-15.71-13.1-15.71s-15.42,7.39-15.42,17.79v20.4h-1.52V.38Z"/><path class="cls-1" d="M334.19,37.79l-8.9,21.87H323.7l22.65-55.2h1.38l22.43,55.2H368.5l-8.9-21.87ZM359,36.33c-7.53-18.71-11.15-27.25-11.94-29.95H347c-.58,1.85-6,14.86-12.16,30Z"/><path class="cls-1" d="M380.12,33c0-7.54-.07-10.47-.07-12h1.44c.08,1.23.22,7.16.15,10.32,1.45-3.93,5.21-11.4,15.63-11.4,8.32,0,14.33,5.62,14.33,16.79V59.66h-1.52V37c0-9.31-4.63-15.55-13-15.55-10.49,0-15.41,8.93-15.41,17.48V59.66h-1.52Z"/><path class="cls-1" d="M425.13,33c0-7.54-.07-10.47-.07-12h1.45c.07,1.23.21,7.16.14,10.32,1.45-3.93,5.21-11.4,15.63-11.4,8.33,0,14.33,5.62,14.33,16.79V59.66h-1.52V37c0-9.31-4.63-15.55-13-15.55-10.5,0-15.42,8.93-15.42,17.48V59.66h-1.52Z"/><path class="cls-1" d="M470.2.38h1.52V7.77H470.2Zm0,20.63h1.52V59.66H470.2Z"/><path class="cls-1" d="M482.62,21c10.28,23,14.91,33.49,16.14,36.34h.07c1.16-2.69,6-13.24,16.36-36.34h1.66L499.41,59.66h-1.3L480.88,21Z"/><path class="cls-1" d="M524,40.26c.14,12.16,7,19,16.14,19,7.81,0,12.59-4.16,14.76-9.24h1.67c-2.32,5.93-7.75,10.7-16.43,10.7-12.88,0-17.73-10.93-17.73-20.33,0-11.93,6.87-20.48,17.73-20.48,13.6,0,17.15,11.24,17.15,18.71v1.62Zm31.77-1.46C555.48,29.33,551,21.39,540,21.39c-9.62,0-15.56,7.78-15.92,17.41Z"/><path class="cls-1" d="M568.58,34.18c0-5.93,0-10.32-.08-13.17H570c.07,1.92.22,8.39.15,11.4,1.73-5.93,7.31-12.25,15.12-12.48v1.69c-8.18.16-15.12,8.09-15.12,17.25V59.66h-1.52Z"/><path class="cls-1" d="M592.08,49.34c1.37,6.55,6.29,9.94,13.53,9.94,7.6,0,12.52-3.31,12.52-9.47,0-3.85-.79-7.86-12-9.94-12.23-2.23-13.68-5.62-13.68-10.24,0-4.15,3.18-9.7,12.59-9.7,10.28,0,13.17,6.16,13.68,10.4h-1.52c-.72-3.93-3-8.94-12.23-8.94-8.4,0-10.93,4.7-10.93,8.17,0,5.46,3,7.08,12.59,8.93,11,2.15,13.1,6,13.1,11.24,0,6.85-5.42,11-14.11,11-9.12,0-14.18-5.08-15.05-11.4Z"/><path class="cls-1" d="M659.08,51.12a69.85,69.85,0,0,0,.44,8.54h-1.45a49.09,49.09,0,0,1-.51-8.39c-2,5.93-6.73,9.47-15.77,9.47-10.21,0-13.54-6.55-13.54-11.78,0-9.55,8.47-12.24,18.75-12.24,6.51,0,8.54,0,10.56.07V32.94c0-6-2.82-11.55-12.52-11.55-9,0-12.15,4.47-13.17,10.4h-1.52c.87-6.24,4.49-11.86,14.84-11.86s13.89,5.93,13.89,12.78Zm-1.52-12.86c-2.82-.08-6.15-.08-10.63-.08-7.17,0-17.08,1.15-17.08,10.78,0,6.16,4.77,10.24,11.94,10.24,11.65,0,15.77-6.16,15.77-15.55Z"/><path class="cls-1" d="M672.6,34.18c0-5.93,0-10.32-.07-13.17H674c.08,1.92.22,8.39.15,11.4,1.74-5.93,7.31-12.25,15.13-12.48v1.69c-8.18.16-15.13,8.09-15.13,17.25V59.66H672.6Z"/><path class="cls-1" d="M697.36,21c10.71,23.71,15.49,34.26,16.57,36.65H714C715.09,55,719.87,44,729.86,21h1.66L714.37,60.66C709.23,72.44,707.06,78,699.31,78a16.23,16.23,0,0,1-4.19-.54l.29-1.7a16.28,16.28,0,0,0,4,.54c5.86,0,8.1-3.15,13.68-16.63L695.62,21Z"/><path class="cls-1" d="M5.75,71.61A58.42,58.42,0,0,0,2,90.86H.39A56.11,56.11,0,0,1,4.3,71.61Zm9.77,0a58.42,58.42,0,0,0-3.77,19.25H10.16a56.11,56.11,0,0,1,3.91-19.25Z"/><path class="cls-1" d="M54.93,119c0,3.85.07,10.32.07,11.94H53.48c-.07-1.39-.15-7.63-.07-11.09-2.39,8.16-7,12-15.2,12-6.95,0-14.4-3.39-14.4-15.94V92.24h1.51V116c0,7.7,3.55,14.24,13,14.24,10.93,0,15.13-8.62,15.13-19.63V92.24h1.52Z"/><path class="cls-1" d="M68.57,104.26c0-7.55-.07-10.48-.07-12H70c.07,1.24.21,7.17.14,10.32,1.45-3.93,5.21-11.39,15.63-11.39,8.33,0,14.33,5.62,14.33,16.78v23H98.53V108.26c0-9.32-4.63-15.55-13-15.55-10.5,0-15.42,8.93-15.42,17.47V130.9H68.57Z"/><path class="cls-1" d="M147.26,71.61v49.12c0,2.7.07,8.55.07,10.17h-1.45c-.07-2-.14-7.4-.07-10.78-1.88,5.62-5.43,11.85-16.36,11.85-10.78,0-17.87-8.31-17.87-20.17,0-13.24,9-20.63,18.6-20.63,10.2,0,14.18,6.39,15.56,10.47v-30Zm-34.09,40.11c0,10.71,6.3,18.71,16.28,18.71,9.63,0,16.36-5.62,16.36-19.63,0-13.47-7.24-18.09-15.78-18.09C119.25,92.71,113.17,102,113.17,111.72Z"/><path class="cls-1" d="M160.54,111.49c.15,12.17,7,19,16.14,19,7.82,0,12.6-4.16,14.77-9.24h1.66c-2.31,5.93-7.74,10.7-16.43,10.7C163.8,132,159,121,159,111.65c0-11.94,6.88-20.48,17.73-20.48,13.61,0,17.15,11.24,17.15,18.71v1.61ZM192.31,110c-.28-9.47-4.77-17.4-15.77-17.4-9.63,0-15.56,7.78-15.92,17.4Z"/><path class="cls-1" d="M205.12,105.41c0-5.93,0-10.32-.07-13.17h1.45c.07,1.93.21,8.4.14,11.4,1.74-5.93,7.31-12.24,15.13-12.47v1.69c-8.18.15-15.13,8.09-15.13,17.25V130.9h-1.52Z"/><path class="cls-1" d="M249.06,92.24h7.23V79.31h1.52V92.24h9.63v1.47h-9.63v28c0,5.32.94,8.47,5.94,8.47a9.69,9.69,0,0,0,3.33-.54v1.39a8.31,8.31,0,0,1-3.33.62c-5.36,0-7.46-2.54-7.46-10.24V93.71h-7.23Z"/><path class="cls-1" d="M277.93,71.61v31.18c1.89-6.16,7.17-11.62,15.49-11.62,7.46,0,14.55,4.38,14.55,16.94V130.9h-1.52V108.41c0-8.62-3.69-15.7-13.1-15.7s-15.42,7.39-15.42,17.78V130.9h-1.52V71.61Z"/><path class="cls-1" d="M321.23,111.49c.15,12.17,6.95,19,16.14,19,7.82,0,12.59-4.16,14.76-9.24h1.67c-2.32,5.93-7.74,10.7-16.43,10.7-12.88,0-17.73-10.93-17.73-20.32,0-11.94,6.87-20.48,17.73-20.48,13.61,0,17.15,11.24,17.15,18.71v1.61ZM353,110c-.29-9.47-4.77-17.4-15.77-17.4-9.63,0-15.56,7.78-15.93,17.4Z"/><path class="cls-1" d="M385.87,120.58c1.37,6.54,6.29,9.93,13.53,9.93,7.6,0,12.52-3.31,12.52-9.47,0-3.85-.8-7.85-12-9.93-12.23-2.23-13.68-5.62-13.68-10.24,0-4.16,3.18-9.7,12.59-9.7,10.28,0,13.17,6.16,13.68,10.39H411c-.72-3.93-3-8.93-12.23-8.93-8.4,0-10.93,4.7-10.93,8.16,0,5.47,3,7.08,12.59,8.93,11,2.16,13.1,6,13.1,11.24,0,6.86-5.43,11-14.11,11-9.12,0-14.19-5.08-15-11.39Z"/><path class="cls-1" d="M452.87,122.35a70.07,70.07,0,0,0,.44,8.55h-1.45a49.32,49.32,0,0,1-.51-8.4c-2,5.93-6.73,9.47-15.77,9.47-10.21,0-13.54-6.54-13.54-11.78,0-9.54,8.47-12.24,18.75-12.24,6.51,0,8.54,0,10.56.08v-3.85c0-6-2.82-11.55-12.52-11.55-9,0-12.16,4.46-13.17,10.39h-1.52c.87-6.23,4.49-11.85,14.84-11.85s13.89,5.92,13.89,12.78Zm-1.52-12.86c-2.82-.08-6.15-.08-10.64-.08-7.16,0-17.08,1.16-17.08,10.78,0,6.16,4.78,10.24,11.95,10.24,11.65,0,15.77-6.16,15.77-15.55Z"/><path class="cls-1" d="M466.39,105c0-5.86,0-10.78-.08-12.79h1.45c.15,2.24.22,7.78.15,9.47,1.73-5.15,5.71-10.54,13.46-10.54,6.87,0,10.93,3.92,12.37,9.85,1.89-5.16,6.23-9.78,13.47-9.85,6.8-.08,12.88,3.54,12.88,15.16V130.9h-1.52V106.72c0-7.16-2.54-14-11.36-14C499.32,92.71,494,99,494,108.49V130.9h-1.52V105c0-5.16-2.53-12.25-11.29-12.25s-13.31,8.17-13.31,16.79V130.9h-1.52Z"/><path class="cls-1" d="M533.41,111.49c.15,12.17,7,19,16.14,19,7.82,0,12.59-4.16,14.76-9.24H566c-2.32,5.93-7.75,10.7-16.43,10.7-12.88,0-17.73-10.93-17.73-20.32,0-11.94,6.87-20.48,17.73-20.48,13.61,0,17.15,11.24,17.15,18.71v1.61ZM565.18,110c-.29-9.47-4.77-17.4-15.78-17.4-9.62,0-15.56,7.78-15.92,17.4Z"/><path class="cls-1" d="M593.41,120.58c1.38,6.54,6.3,9.93,13.54,9.93,7.59,0,12.52-3.31,12.52-9.47,0-3.85-.8-7.85-12-9.93-12.23-2.23-13.68-5.62-13.68-10.24,0-4.16,3.19-9.7,12.6-9.7,10.27,0,13.17,6.16,13.68,10.39h-1.52c-.73-3.93-3-8.93-12.24-8.93-8.39,0-10.92,4.7-10.92,8.16,0,5.47,3,7.08,12.59,8.93,11,2.16,13.1,6,13.1,11.24,0,6.86-5.43,11-14.11,11-9.12,0-14.19-5.08-15.06-11.39Z"/><path class="cls-1" d="M633.54,113.34c3.4-2.77,19.11-15.94,25.33-21.1h2.39l-18.75,15.48,21.06,23.18h-2l-20.19-22.26-7.82,6.47V130.9H632V71.61h1.52Z"/><path class="cls-1" d="M671.8,92.24c10.71,23.72,15.49,34.27,16.57,36.65h.08c1.08-2.69,5.86-13.7,15.84-36.65H706L688.81,131.9c-5.14,11.78-7.31,17.32-15.06,17.32a16.23,16.23,0,0,1-4.19-.54l.29-1.69a16.28,16.28,0,0,0,4,.54c5.86,0,8.1-3.16,13.67-16.63L670.06,92.24Z"/><path class="cls-1" d="M715.88,90.86a58.77,58.77,0,0,0,3.76-19.25h1.59a56.16,56.16,0,0,1-3.9,19.25Zm9.77,0a58.77,58.77,0,0,0,3.76-19.25H731a56.16,56.16,0,0,1-3.9,19.25Z"/><path class="cls-2" d="M1.49,4.46H36.15V5.92H3V30.56H34V32H3V59.66H1.49Z"/><path class="cls-2" d="M93.31,59.66H91.94c-.22-1.46-.15-9.93-.15-13.32C88.9,55,82.38,60.74,69.72,60.74c-16.43,0-25.55-13-25.55-28.26,0-16.86,10.64-29.1,26.05-29.1,12.16,0,20.34,5.7,23.38,16.09H92C89,9.61,80.72,4.84,70.08,4.84c-14.62,0-24.32,11.78-24.32,27.64,0,14.32,8.76,26.8,24,26.8,13.17,0,22-7,22-22.1V33.41H69.93V31.94H93.31Z"/><path class="cls-2" d="M157.2,31.56c0,16.32-9.84,29.18-26.27,29.18-15.42,0-26.05-12.55-26.05-28.72,0-15.48,10.78-28.64,26.34-28.64C146.13,3.38,157.2,15.77,157.2,31.56Zm-50.73.38c0,14.48,9.55,27.34,24.53,27.34,14.4,0,24.61-11.32,24.61-27.57,0-14.47-10.06-26.87-24.46-26.87C117.47,4.84,106.47,16.62,106.47,31.94Z"/><path class="cls-2" d="M222.42,8.54h-25c-.8,7.85-2,18.86-3,23.63,2.61-3.77,6.66-6.93,14.26-6.93C218.07,25.24,225,31.79,225,42c0,11.55-6.73,18.71-17.08,18.71-9.19,0-15.12-5.39-16.86-13.4h1.52c2,6.93,7,11.94,15.41,11.94,9,0,15.42-6.16,15.42-17.17,0-6.7-3.76-15.4-14.69-15.4-9,0-12.52,4.54-14.62,8.62l-1.45-.46c1.23-6.85,3.18-23.25,3.4-27.8H222.7Z"/><path class="cls-2" d="M230.19,21h7.23V8.07h1.52V21h9.63v1.46h-9.63v28c0,5.31.94,8.47,5.94,8.47a9.89,9.89,0,0,0,3.33-.54v1.39a8.3,8.3,0,0,1-3.33.61c-5.36,0-7.46-2.54-7.46-10.24V22.47h-7.23Z"/><path class="cls-2" d="M259.06.38V31.56c1.89-6.16,7.17-11.63,15.49-11.63,7.46,0,14.55,4.39,14.55,16.94V59.66h-1.52V37.18c0-8.63-3.69-15.71-13.1-15.71s-15.42,7.39-15.42,17.79v20.4h-1.52V.38Z"/><path class="cls-2" d="M334.19,37.79l-8.9,21.87H323.7l22.65-55.2h1.38l22.43,55.2H368.5l-8.9-21.87ZM359,36.33c-7.53-18.71-11.15-27.25-11.94-29.95H347c-.58,1.85-6,14.86-12.16,30Z"/><path class="cls-2" d="M380.12,33c0-7.54-.07-10.47-.07-12h1.44c.08,1.23.22,7.16.15,10.32,1.45-3.93,5.21-11.4,15.63-11.4,8.32,0,14.33,5.62,14.33,16.79V59.66h-1.52V37c0-9.31-4.63-15.55-13-15.55-10.49,0-15.41,8.93-15.41,17.48V59.66h-1.52Z"/><path class="cls-2" d="M425.13,33c0-7.54-.07-10.47-.07-12h1.45c.07,1.23.21,7.16.14,10.32,1.45-3.93,5.21-11.4,15.63-11.4,8.33,0,14.33,5.62,14.33,16.79V59.66h-1.52V37c0-9.31-4.63-15.55-13-15.55-10.5,0-15.42,8.93-15.42,17.48V59.66h-1.52Z"/><path class="cls-2" d="M470.2.38h1.52V7.77H470.2Zm0,20.63h1.52V59.66H470.2Z"/><path class="cls-2" d="M482.62,21c10.28,23,14.91,33.49,16.14,36.34h.07c1.16-2.69,6-13.24,16.36-36.34h1.66L499.41,59.66h-1.3L480.88,21Z"/><path class="cls-2" d="M524,40.26c.14,12.16,7,19,16.14,19,7.81,0,12.59-4.16,14.76-9.24h1.67c-2.32,5.93-7.75,10.7-16.43,10.7-12.88,0-17.73-10.93-17.73-20.33,0-11.93,6.87-20.48,17.73-20.48,13.6,0,17.15,11.24,17.15,18.71v1.62Zm31.77-1.46C555.48,29.33,551,21.39,540,21.39c-9.62,0-15.56,7.78-15.92,17.41Z"/><path class="cls-2" d="M568.58,34.18c0-5.93,0-10.32-.08-13.17H570c.07,1.92.22,8.39.15,11.4,1.73-5.93,7.31-12.25,15.12-12.48v1.69c-8.18.16-15.12,8.09-15.12,17.25V59.66h-1.52Z"/><path class="cls-2" d="M592.08,49.34c1.37,6.55,6.29,9.94,13.53,9.94,7.6,0,12.52-3.31,12.52-9.47,0-3.85-.79-7.86-12-9.94-12.23-2.23-13.68-5.62-13.68-10.24,0-4.15,3.18-9.7,12.59-9.7,10.28,0,13.17,6.16,13.68,10.4h-1.52c-.72-3.93-3-8.94-12.23-8.94-8.4,0-10.93,4.7-10.93,8.17,0,5.46,3,7.08,12.59,8.93,11,2.15,13.1,6,13.1,11.24,0,6.85-5.42,11-14.11,11-9.12,0-14.18-5.08-15.05-11.4Z"/><path class="cls-2" d="M659.08,51.12a69.85,69.85,0,0,0,.44,8.54h-1.45a49.09,49.09,0,0,1-.51-8.39c-2,5.93-6.73,9.47-15.77,9.47-10.21,0-13.54-6.55-13.54-11.78,0-9.55,8.47-12.24,18.75-12.24,6.51,0,8.54,0,10.56.07V32.94c0-6-2.82-11.55-12.52-11.55-9,0-12.15,4.47-13.17,10.4h-1.52c.87-6.24,4.49-11.86,14.84-11.86s13.89,5.93,13.89,12.78Zm-1.52-12.86c-2.82-.08-6.15-.08-10.63-.08-7.17,0-17.08,1.15-17.08,10.78,0,6.16,4.77,10.24,11.94,10.24,11.65,0,15.77-6.16,15.77-15.55Z"/><path class="cls-2" d="M672.6,34.18c0-5.93,0-10.32-.07-13.17H674c.08,1.92.22,8.39.15,11.4,1.74-5.93,7.31-12.25,15.13-12.48v1.69c-8.18.16-15.13,8.09-15.13,17.25V59.66H672.6Z"/><path class="cls-2" d="M697.36,21c10.71,23.71,15.49,34.26,16.57,36.65H714C715.09,55,719.87,44,729.86,21h1.66L714.37,60.66C709.23,72.44,707.06,78,699.31,78a16.23,16.23,0,0,1-4.19-.54l.29-1.7a16.28,16.28,0,0,0,4,.54c5.86,0,8.1-3.15,13.68-16.63L695.62,21Z"/><path class="cls-2" d="M5.75,71.61A58.42,58.42,0,0,0,2,90.86H.39A56.11,56.11,0,0,1,4.3,71.61Zm9.77,0a58.42,58.42,0,0,0-3.77,19.25H10.16a56.11,56.11,0,0,1,3.91-19.25Z"/><path class="cls-2" d="M54.93,119c0,3.85.07,10.32.07,11.94H53.48c-.07-1.39-.15-7.63-.07-11.09-2.39,8.16-7,12-15.2,12-6.95,0-14.4-3.39-14.4-15.94V92.24h1.51V116c0,7.7,3.55,14.24,13,14.24,10.93,0,15.13-8.62,15.13-19.63V92.24h1.52Z"/><path class="cls-2" d="M68.57,104.26c0-7.55-.07-10.48-.07-12H70c.07,1.24.21,7.17.14,10.32,1.45-3.93,5.21-11.39,15.63-11.39,8.33,0,14.33,5.62,14.33,16.78v23H98.53V108.26c0-9.32-4.63-15.55-13-15.55-10.5,0-15.42,8.93-15.42,17.47V130.9H68.57Z"/><path class="cls-2" d="M147.26,71.61v49.12c0,2.7.07,8.55.07,10.17h-1.45c-.07-2-.14-7.4-.07-10.78-1.88,5.62-5.43,11.85-16.36,11.85-10.78,0-17.87-8.31-17.87-20.17,0-13.24,9-20.63,18.6-20.63,10.2,0,14.18,6.39,15.56,10.47v-30Zm-34.09,40.11c0,10.71,6.3,18.71,16.28,18.71,9.63,0,16.36-5.62,16.36-19.63,0-13.47-7.24-18.09-15.78-18.09C119.25,92.71,113.17,102,113.17,111.72Z"/><path class="cls-2" d="M160.54,111.49c.15,12.17,7,19,16.14,19,7.82,0,12.6-4.16,14.77-9.24h1.66c-2.31,5.93-7.74,10.7-16.43,10.7C163.8,132,159,121,159,111.65c0-11.94,6.88-20.48,17.73-20.48,13.61,0,17.15,11.24,17.15,18.71v1.61ZM192.31,110c-.28-9.47-4.77-17.4-15.77-17.4-9.63,0-15.56,7.78-15.92,17.4Z"/><path class="cls-2" d="M205.12,105.41c0-5.93,0-10.32-.07-13.17h1.45c.07,1.93.21,8.4.14,11.4,1.74-5.93,7.31-12.24,15.13-12.47v1.69c-8.18.15-15.13,8.09-15.13,17.25V130.9h-1.52Z"/><path class="cls-2" d="M249.06,92.24h7.23V79.31h1.52V92.24h9.63v1.47h-9.63v28c0,5.32.94,8.47,5.94,8.47a9.69,9.69,0,0,0,3.33-.54v1.39a8.31,8.31,0,0,1-3.33.62c-5.36,0-7.46-2.54-7.46-10.24V93.71h-7.23Z"/><path class="cls-2" d="M277.93,71.61v31.18c1.89-6.16,7.17-11.62,15.49-11.62,7.46,0,14.55,4.38,14.55,16.94V130.9h-1.52V108.41c0-8.62-3.69-15.7-13.1-15.7s-15.42,7.39-15.42,17.78V130.9h-1.52V71.61Z"/><path class="cls-2" d="M321.23,111.49c.15,12.17,6.95,19,16.14,19,7.82,0,12.59-4.16,14.76-9.24h1.67c-2.32,5.93-7.74,10.7-16.43,10.7-12.88,0-17.73-10.93-17.73-20.32,0-11.94,6.87-20.48,17.73-20.48,13.61,0,17.15,11.24,17.15,18.71v1.61ZM353,110c-.29-9.47-4.77-17.4-15.77-17.4-9.63,0-15.56,7.78-15.93,17.4Z"/><path class="cls-2" d="M385.87,120.58c1.37,6.54,6.29,9.93,13.53,9.93,7.6,0,12.52-3.31,12.52-9.47,0-3.85-.8-7.85-12-9.93-12.23-2.23-13.68-5.62-13.68-10.24,0-4.16,3.18-9.7,12.59-9.7,10.28,0,13.17,6.16,13.68,10.39H411c-.72-3.93-3-8.93-12.23-8.93-8.4,0-10.93,4.7-10.93,8.16,0,5.47,3,7.08,12.59,8.93,11,2.16,13.1,6,13.1,11.24,0,6.86-5.43,11-14.11,11-9.12,0-14.19-5.08-15-11.39Z"/><path class="cls-2" d="M452.87,122.35a70.07,70.07,0,0,0,.44,8.55h-1.45a49.32,49.32,0,0,1-.51-8.4c-2,5.93-6.73,9.47-15.77,9.47-10.21,0-13.54-6.54-13.54-11.78,0-9.54,8.47-12.24,18.75-12.24,6.51,0,8.54,0,10.56.08v-3.85c0-6-2.82-11.55-12.52-11.55-9,0-12.16,4.46-13.17,10.39h-1.52c.87-6.23,4.49-11.85,14.84-11.85s13.89,5.92,13.89,12.78Zm-1.52-12.86c-2.82-.08-6.15-.08-10.64-.08-7.16,0-17.08,1.16-17.08,10.78,0,6.16,4.78,10.24,11.95,10.24,11.65,0,15.77-6.16,15.77-15.55Z"/><path class="cls-2" d="M466.39,105c0-5.86,0-10.78-.08-12.79h1.45c.15,2.24.22,7.78.15,9.47,1.73-5.15,5.71-10.54,13.46-10.54,6.87,0,10.93,3.92,12.37,9.85,1.89-5.16,6.23-9.78,13.47-9.85,6.8-.08,12.88,3.54,12.88,15.16V130.9h-1.52V106.72c0-7.16-2.54-14-11.36-14C499.32,92.71,494,99,494,108.49V130.9h-1.52V105c0-5.16-2.53-12.25-11.29-12.25s-13.31,8.17-13.31,16.79V130.9h-1.52Z"/><path class="cls-2" d="M533.41,111.49c.15,12.17,7,19,16.14,19,7.82,0,12.59-4.16,14.76-9.24H566c-2.32,5.93-7.75,10.7-16.43,10.7-12.88,0-17.73-10.93-17.73-20.32,0-11.94,6.87-20.48,17.73-20.48,13.61,0,17.15,11.24,17.15,18.71v1.61ZM565.18,110c-.29-9.47-4.77-17.4-15.78-17.4-9.62,0-15.56,7.78-15.92,17.4Z"/><path class="cls-2" d="M593.41,120.58c1.38,6.54,6.3,9.93,13.54,9.93,7.59,0,12.52-3.31,12.52-9.47,0-3.85-.8-7.85-12-9.93-12.23-2.23-13.68-5.62-13.68-10.24,0-4.16,3.19-9.7,12.6-9.7,10.27,0,13.17,6.16,13.68,10.39h-1.52c-.73-3.93-3-8.93-12.24-8.93-8.39,0-10.92,4.7-10.92,8.16,0,5.47,3,7.08,12.59,8.93,11,2.16,13.1,6,13.1,11.24,0,6.86-5.43,11-14.11,11-9.12,0-14.19-5.08-15.06-11.39Z"/><path class="cls-2" d="M633.54,113.34c3.4-2.77,19.11-15.94,25.33-21.1h2.39l-18.75,15.48,21.06,23.18h-2l-20.19-22.26-7.82,6.47V130.9H632V71.61h1.52Z"/><path class="cls-2" d="M671.8,92.24c10.71,23.72,15.49,34.27,16.57,36.65h.08c1.08-2.69,5.86-13.7,15.84-36.65H706L688.81,131.9c-5.14,11.78-7.31,17.32-15.06,17.32a16.23,16.23,0,0,1-4.19-.54l.29-1.69a16.28,16.28,0,0,0,4,.54c5.86,0,8.1-3.16,13.67-16.63L670.06,92.24Z"/><path class="cls-2" d="M715.88,90.86a58.77,58.77,0,0,0,3.76-19.25h1.59a56.16,56.16,0,0,1-3.9,19.25Zm9.77,0a58.77,58.77,0,0,0,3.76-19.25H731a56.16,56.16,0,0,1-3.9,19.25Z"/><path class="cls-1" d="M6.11,165.88H.43V147.2H16V153H6.11ZM14.23,149H2.15v15H4.39V151.19h9.84Z"/><path class="cls-1" d="M39.58,159.54a9.73,9.73,0,0,1,4.74,1.91,9,9,0,0,1,3.45,7.17,9.25,9.25,0,0,1-4.57,8.13A15.92,15.92,0,0,1,37,178.87c-.3,0-.61-.39-.61-.79,0-.07,0-.07.07-.11,5-1.33,8-4.89,8-9.57a8.13,8.13,0,0,0-2.33-6A7,7,0,0,0,38.94,161c-.21,0-.28.15-.34.51a18.43,18.43,0,0,1-3.69,8.31.7.7,0,0,0-.14.44.68.68,0,0,0,.07.36c.3.79.61,1.51.74,1.76a2.81,2.81,0,0,1,.41,1.11c0,.65-.88,1.34-1.69,1.34-.64,0-.88-.36-1.42-1.91-.17-.4-.21-.47-.41-.47s-.27,0-1.22.94a6.5,6.5,0,0,1-3.75,2h-.34c-1.29-.07-2.1-1.83-2.1-4.6,0-3.82,1.83-6.7,6-9.47a.66.66,0,0,0,.27-.25,3.7,3.7,0,0,0,.1-.62c0-.32.07-.61.1-1s.14-1.26.21-1.94a.33.33,0,0,0,0-.15c0-.17,0-.17-.64-.17a7.13,7.13,0,0,1-2.2-.26,3,3,0,0,1-2-2.73.91.91,0,0,1,0-.25,1.15,1.15,0,0,1,.54-.29s0,0,.07,0,.07.08.14.18c.44.83,1.28,1.19,3,1.19,1.38,0,1.45,0,1.52-.57l0-.11,0-.33a20.35,20.35,0,0,0,.23-2.19c0-.94-.57-1.59-1.76-1.95-.1-.07-.13-.14-.13-.32a.67.67,0,0,1,.17-.54,3.55,3.55,0,0,1,1.49-.22c2,0,3.35.87,3.35,2.24a5.67,5.67,0,0,1-.51,1.83,4.14,4.14,0,0,0-.3,1.19c0,.22.1.32.27.32a8.44,8.44,0,0,0,2.67-1,2.9,2.9,0,0,1,1.32-.47,1.48,1.48,0,0,1,1.25,1.37c0,.64-.81,1.15-3,1.9a13.85,13.85,0,0,1-2.77.69.74.74,0,0,0-.51.32,17.65,17.65,0,0,0-.47,2.63c0,.21.07.29.23.29s.14,0,.55-.15a10.76,10.76,0,0,1,2.37-.54c.37,0,.47-.32.47-1.47a2,2,0,0,1,0-.51c.07-.14.27-.21.54-.21.58,0,.65.18.92,1.72,0,.33.13.44.44.47Zm-8.53,3.71a6.42,6.42,0,0,0-1.79,1.55,10.05,10.05,0,0,0-2.31,6c0,.9.31,1.37.88,1.37a4.26,4.26,0,0,0,2.44-1.26c1.08-1,1.29-1.26,1.29-1.73a3.69,3.69,0,0,0-.1-.79,26.88,26.88,0,0,1-.24-4.64C31.22,163.36,31.18,163.25,31.05,163.25Zm2.2.65c0,2,.27,3.46.61,3.46.81,0,3-4.43,3-6.05,0-.25-.07-.36-.27-.36a6.55,6.55,0,0,0-2.91.86.73.73,0,0,0-.34.54A13.49,13.49,0,0,0,33.25,163.9Z"/><path class="cls-1" d="M63.2,151.23a1.07,1.07,0,0,0,0,.25c0,1.05.88,1.8,2.47,2.09a1.27,1.27,0,0,1,1.22,1.33c0,1.26-1.82,2.59-4.4,3.24-.74.18-.81.22-.84.54a57,57,0,0,1-3.15,9.76c-1,2.12-1.59,2.84-2.34,2.84a1.75,1.75,0,0,1-1.59-1.48c0-.46.11-.64.71-1.62a29.32,29.32,0,0,0,2.48-4.71,26.28,26.28,0,0,0,1.45-4.79c0-.18-.1-.25-.34-.25-2.74-.11-3.89-1.12-3.89-3.31,0-.61.07-.72.51-.72s.3,0,.34.25c.1,1.08.81,1.51,2.67,1.51,1.25,0,1.25,0,1.42-.39a13,13,0,0,0,.44-3c0-1.51-.47-2.23-1.62-2.45-.14,0-.17,0-.24-.11a1.54,1.54,0,0,1,0-.39.35.35,0,0,1,.1-.29,5.06,5.06,0,0,1,2.06-.4c1.59,0,2.61.69,2.61,1.8Zm9.41,4.28a8.14,8.14,0,0,1,4.46,1.66,3.64,3.64,0,0,1,1.29,2.77c0,1.12-.64,1.91-1.56,1.91a2.11,2.11,0,0,1-.84-.22A5.35,5.35,0,0,0,74,161.2c-1.73,0-2.41.72-2.41,2.56a42.53,42.53,0,0,0,.61,5.94c.07.32.17.43.41.5,3.59,1.12,5.38,2.3,5.38,3.56,0,.76-.71,1.62-1.32,1.62s-.81-.18-2-1a5.9,5.9,0,0,0-2.1-1.19c-.2,0-.3.14-.34.43a4,4,0,0,1-1.52,3.06,5.4,5.4,0,0,1-3.59,1.12c-3.21,0-5.62-1.76-5.62-4.1,0-2.49,2.54-4.07,6.54-4.07h.54c.3,0,.61,0,.67,0,.24,0,.38-.1.38-.28v-.15c0-.72,0-1.33,0-1.55,0-.9,0-1.44,0-1.72,0-4,.78-5,4.3-5.69a1,1,0,0,0,.91-1.08c0-1.19-1.08-2.34-2.71-2.81-.13-.07-.13-.07-.13-.14a1.77,1.77,0,0,1,.2-.65Zm-10.19-.79a2.84,2.84,0,0,0-.1.58c0,.21.07.32.2.32a3,3,0,0,0,.71-.21c.48-.22.68-.44.68-.76s-.64-1.37-.95-1.37c-.13,0-.17.07-.3.33C62.55,154.11,62.49,154.47,62.42,154.72Zm1,18.72c0,1,1.42,1.73,3.39,1.73,1.82,0,2.8-.87,2.8-2.45,0-.32-.06-.51-.27-.61a7.74,7.74,0,0,0-2.74-.47C64.72,171.64,63.4,172.4,63.4,173.44Z"/><path class="cls-1" d="M89.78,160.48a7.19,7.19,0,0,1-1,.07c-2.57,0-4.06-1.37-4.06-3.74,0-.47.1-.58.54-.58.17,0,.2,0,.24.08.37,1.26,1.22,1.79,2.81,1.79a13.17,13.17,0,0,0,1.72-.18c.24,0,.37-.14.48-.43a22.52,22.52,0,0,0,.3-3.49c0-2.19-.61-2.91-2.57-3.09a.71.71,0,0,1-.17-.51c0-.07,0-.11,0-.14a7.27,7.27,0,0,1,2.85-.72c1.86,0,2.81.86,2.81,2.48v.36a.43.43,0,0,0,0,.18,2,2,0,0,0,.68,1.44,3.69,3.69,0,0,0,2.47,1.3,1.12,1.12,0,0,1,1,1.19c0,1.43-1.49,2.51-4.91,3.59-.34.11-.47.22-.54.54v0l0,0A89.15,89.15,0,0,1,89.51,174c-.78,2.42-1.22,3-2.27,3a1.58,1.58,0,0,1-1.66-1.55c0-.43.1-.65.58-1.62a32.78,32.78,0,0,0,2.26-5.62,44.09,44.09,0,0,0,1.63-7.34c0-.22-.1-.36-.24-.36ZM92.93,157a.23.23,0,0,0,.23.21c.54,0,1.42-.75,1.42-1.22s-.71-1.48-1-1.48c-.14,0-.21.07-.28.22s0,.25-.1.68c-.13.94-.2,1.44-.23,1.48Zm4.56,11.66a5.29,5.29,0,0,0-.37,2,2.88,2.88,0,0,0,1.59,2.85,12.23,12.23,0,0,0,5.35.93l1.46,0c1.45,0,2.13.5,2.13,1.51,0,1.29-.54,1.69-2.27,1.69-6.4,0-9.61-1.91-9.61-5.69a6.09,6.09,0,0,1,1.08-3.63h.07c.17,0,.64.29.61.36Zm4.88-6.63a1.79,1.79,0,0,1,.54-.28c.91-.29,1.86-1,1.86-1.44,0-.9-1.76-1.91-3.38-2-.48,0-.48,0-.48-.43a.8.8,0,0,1,0-.32,3.33,3.33,0,0,1,1.82-.33c3.66,0,6.4,1.73,6.4,4.11a1.25,1.25,0,0,1-.2.79.87.87,0,0,1-.85.47,3.75,3.75,0,0,1-.84-.15,6.33,6.33,0,0,0-1.6-.25,16.69,16.69,0,0,0-2.57.36,2.73,2.73,0,0,1-.37.07c-.1,0-.37-.43-.37-.61Z"/><path class="cls-1" d="M116.63,158.93a.84.84,0,0,0,0,.25c0,1.08.74,1.73,2.13,1.73a18.78,18.78,0,0,0,4-.65c.51.08,1.08-1.76,1.73-5.68a5.15,5.15,0,0,0,0-.58c0-1.37-.64-2-2.23-2.3-.44-.07-.44-.07-.44-.51a.72.72,0,0,1,.1-.46,8,8,0,0,1,2.64-.4c2.1,0,3.28.86,3.28,2.41a7.36,7.36,0,0,1-.71,2.81c-.17.43-.27.79-.71,2.16-.1.36-.24.75-.24.75l-.2.65a1,1,0,0,0-.07.29.19.19,0,0,0,.21.22,1.83,1.83,0,0,0,.47-.08,9.58,9.58,0,0,1,2.06-.21c3.19,0,4.54,1.8,4.54,6,0,4.64-2,9.54-4.54,11.23a5.73,5.73,0,0,1-3.35.93c-1.05,0-1.35-.18-1.69-1.08a5.52,5.52,0,0,0-1.22-2c-.57-.65-.78-.9-.78-1a.79.79,0,0,1,.51-.54s.07,0,.17.08c1.46,1,2.4,1.47,3.25,1.47a3,3,0,0,0,2.1-1.19,13.89,13.89,0,0,0,3-8.82c0-2.41-.71-3.45-2.37-3.45a8.42,8.42,0,0,0-3,.72c-.13.07-.2.21-.3.47a61.24,61.24,0,0,1-5.86,12.78c-.84,1.18-1.65,1.83-2.3,1.83a1.53,1.53,0,0,1-1.52-1.55,3.38,3.38,0,0,1,.85-1.54,33.12,33.12,0,0,0,3.89-5.66,22.31,22.31,0,0,0,2.16-5.14.16.16,0,0,0-.17-.18,16.22,16.22,0,0,0-2.47,1,5.62,5.62,0,0,1-2.23.68c-1.49,0-2.3-.93-2.3-2.66a5.9,5.9,0,0,1,.78-3,.72.72,0,0,1,.37-.07,1.51,1.51,0,0,1,.41,0,.22.22,0,0,1,0,.15Zm20.78,4.75a.77.77,0,0,0,.24,0c1.66,0,2.16-.36,2.16-1.58a3.51,3.51,0,0,0-1.62-3.06,5.23,5.23,0,0,0-2.27-.9c-.57-.08-.57-.08-.57-.36a1.12,1.12,0,0,1,.16-.61c.41,0,.75-.08.92-.08a8.69,8.69,0,0,1,3.38.76c2.13,1,3.29,3,3.29,5.79,0,1.84-.68,3.06-1.73,3.06a1.63,1.63,0,0,1-1.29-.68,3.91,3.91,0,0,0-2.7-1.44l-.41-.11a1.33,1.33,0,0,1-.1-.54.34.34,0,0,1,.07-.25.3.3,0,0,1,.2,0Zm.34-11.26c2.64,0,4.87,1.29,4.87,2.81a1.31,1.31,0,0,1-1.08,1.22c-.31,0-.54-.14-.92-.61a9.49,9.49,0,0,0-3.45-2.63c-.13,0-.17-.07-.17-.18s.14-.58.24-.58A3.54,3.54,0,0,1,137.75,152.42Zm2.57-3.24a6.35,6.35,0,0,1,3.45.83,2.44,2.44,0,0,1,1.25,1.8,1.26,1.26,0,0,1-1.08,1.18c-.27,0-.47-.14-.84-.54a9.46,9.46,0,0,0-3.59-2.48c-.14,0-.17-.07-.17-.14a1.29,1.29,0,0,1,.2-.62A6.87,6.87,0,0,1,140.32,149.18Z"/><path class="cls-1" d="M171.5,176.5c.68-1,.78-1.19,1-1.55.5-.79.74-1,1.11-1s1.39.76,2.57,2c.51.54.65.76.65,1.05s-.34.61-.81.61H151.5c-.71,0-1.39,0-2.34.11l-.81,0c-.54,0-.61,0-.81-.5a4.91,4.91,0,0,1-.24-.9c0-.11,0-.15.17-.15l.51,0a30.78,30.78,0,0,0,4.91.29h7.61v-9h-4.57c-.44,0-1.39,0-2.2.11-.44,0-.74,0-.91,0-.41,0-.51,0-.64-.18a3.26,3.26,0,0,1-.44-1.19c0-.14,0-.18.16-.18s.28,0,.48.07a38,38,0,0,0,4.94.29h3.18v-8.06H153c-2.23,4.35-4.16,7.09-5,7.09-.1,0-.2-.11-.23-.25a2.67,2.67,0,0,1,.4-1.26A76,76,0,0,0,152.38,150c.1-.8.24-1,.57-1a9.4,9.4,0,0,1,3.29,1c.94.43,1.28.72,1.28,1.08s-.71,1-1.89,1.33c-.71,1.77-1.49,3.6-2.14,4.93h7V151.7a20,20,0,0,0-.2-2.67,4.64,4.64,0,0,1-.1-.9c0-.43.17-.61.57-.61a17.66,17.66,0,0,1,3.86.79c.91.29,1.35.65,1.35,1.05s-.61,1-2,1.58v2.52l0,3.85h5.85c1.63-2.48,1.7-2.55,2.2-2.55s.85.32,2.17,1.65c.88.87,1,1,1,1.34s-.34.61-.78.61H163.92v8.06h4.16l.34-.5c.2-.36.44-.72.68-1.08.44-.69.78-1,1.15-1s1,.5,2.4,1.87c.64.61.78.83.78,1.15s-.34.61-.78.61h-8.73v9Z"/><path class="cls-1" d="M200.86,158.21a1.22,1.22,0,0,1,1.38,1.3,1.66,1.66,0,0,1-1.15,1.44,25.91,25.91,0,0,1-2.94,1.19c-.61.18-.64.21-.64.39a.65.65,0,0,0,.16.4c1.63,2.91,2.31,4.68,2.31,6.15a2.73,2.73,0,0,1-2.41,2.78c-.5,0-.74-.19-1.55-1a9.15,9.15,0,0,0-6.74-2.74c-3,0-4.91,1.3-4.91,3.35s1.87,3.09,5.39,3.09a30,30,0,0,0,4.63-.32,1.46,1.46,0,0,1,.34,0c.74,0,1.25.72,1.25,1.69a1,1,0,0,1-.51,1,12.18,12.18,0,0,1-4.36.54c-5.65,0-8.9-1.9-8.9-5.29,0-3.06,2.67-5.07,6.73-5.07a20.32,20.32,0,0,1,5.89,1,2.77,2.77,0,0,0,.95.18.81.81,0,0,0,.81-.86,10.55,10.55,0,0,0-1.69-4.32c0-.07-.17-.11-.27-.11s-.1,0-2.91.68a12.19,12.19,0,0,1-3.18.36,8.6,8.6,0,0,1-5-1.26,3.06,3.06,0,0,1-1.46-2.26c0-.15.41-.36.68-.33,0,0,.07.07.14.15a5.18,5.18,0,0,0,3.92,1.58,34.7,34.7,0,0,0,6.57-1.15.37.37,0,0,0,.17-.29,12.79,12.79,0,0,0-1.39-2.73c-.14-.15-.24-.22-.37-.22a.23.23,0,0,0-.14,0,15.78,15.78,0,0,1-4,.72,4.31,4.31,0,0,1-4.23-2.56.13.13,0,0,1,0-.07c0-.15.34-.4.51-.4a.67.67,0,0,1,.3.18,4,4,0,0,0,2.61.83,12.56,12.56,0,0,0,3.89-.76c.13,0,.2-.14.2-.32a3,3,0,0,0-.51-1.12c-1.25-2-2-2.66-3.24-2.66a3.45,3.45,0,0,0-.55.07.51.51,0,0,1-.2,0,.33.33,0,0,1-.17,0,1.1,1.1,0,0,1-.37-.72c.24-.47,2.13-1.11,3.32-1.11,1.62,0,2.37.61,2.87,2.34a12.13,12.13,0,0,0,1,2.34c.11.21.17.25.34.25a16.44,16.44,0,0,0,2.64-1.12,1.79,1.79,0,0,1,.88-.29,1.42,1.42,0,0,1,1.29,1.44c0,.69-.81,1.26-2.88,2-.84.29-.88.29-.88.51s0,.11.54,1.15c.95,1.62,1,1.65,1.26,1.65.47,0,1.45-.53,1.45-.82s-.24-.62-.78-1.19c-.27-.29-.37-.43-.37-.51A.78.78,0,0,1,197,157a1.29,1.29,0,0,1,.54.29,4.29,4.29,0,0,0,3,.93Z"/><path class="cls-1" d="M214.32,162.93c3.32-3.6,3.62-3.93,4.57-5l2.74-3a1.8,1.8,0,0,0,.61-1.12.54.54,0,0,0-.54-.54,7.2,7.2,0,0,0-1.73.94c-2.16,1.33-3.92,2.19-4.53,2.19-1.05,0-1.73-1.33-1.73-3.35a5.46,5.46,0,0,1,.34-2.12c.07-.07.1-.07.27-.07.48,0,.54,0,.58.47a1.69,1.69,0,0,0,1.83,1.58,15.77,15.77,0,0,0,5.48-1.76,1.66,1.66,0,0,1,.88-.26,3.73,3.73,0,0,1,2.06,1.19,2.76,2.76,0,0,1,1,1.91,1.81,1.81,0,0,1-.44,1.11,10,10,0,0,1-1.83,1.52c-2.64,2.08-5.89,5.36-5.89,5.94,0,.1.07.18.24.18a.8.8,0,0,0,.34-.08,11.5,11.5,0,0,1,3.58-.61c4.54,0,8.13,3.35,8.13,7.53,0,4.71-4,8.13-9.55,8.13-3.86,0-6.7-1.62-6.7-3.78a3.47,3.47,0,0,1,3.72-3.45,5.34,5.34,0,0,1,3.39,1.15,3.38,3.38,0,0,1,1.18,2.37c.07.36.21.51.48.51a5,5,0,0,0,3-1.66,5.62,5.62,0,0,0,1.35-3.78c0-3.17-2.3-5.36-5.68-5.36a9.26,9.26,0,0,0-5.86,2.16,14,14,0,0,0-3.25,4,1.83,1.83,0,0,1-1.42,1,.77.77,0,0,1-.51-.18,1.58,1.58,0,0,1-1-1.44,3.1,3.1,0,0,1,.75-1.76,25.8,25.8,0,0,1,2.23-2.52Zm1.46,10.26c0,.86,1.18,1.55,2.67,1.55.81,0,1.15-.26,1.15-.94a2.05,2.05,0,0,0-2.23-1.87C216.45,171.93,215.78,172.47,215.78,173.19Z"/><path class="cls-1" d="M243.73,173.12c2,1.18,3.28,3,3.28,4.53a1.92,1.92,0,0,1-1.66,2c-.64,0-1.18-.39-1.66-1.26-1.86-3.31-1.92-3.38-3.68-5.29-.51-.54-.78-.9-.78-1.08s.2-.32.44-.32A9.89,9.89,0,0,1,243.73,173.12Z"/><path class="cls-1" d="M268.87,166.17c.34,0,.92.36.88.54a0,0,0,0,1,0,0,8.6,8.6,0,0,0-.37,2.31c0,3.2,2.74,4.68,8.73,4.68a21.7,21.7,0,0,0,6.09-.72,3.72,3.72,0,0,1,1.05-.18,1.51,1.51,0,0,1,1.56,1.72,1.57,1.57,0,0,1-.65,1.26c-.84.62-3.89,1.08-7.1,1.08a20.88,20.88,0,0,1-8-1.33,5.37,5.37,0,0,1-3.31-5.22,7.39,7.39,0,0,1,1.08-4.17Zm1.83-13.5c1.32.9,3.25,1.3,6.57,1.3a36.36,36.36,0,0,0,5.65-.36,1.6,1.6,0,0,1,.44,0c1,0,1.59.79,1.59,2,0,.87-.64,1.16-3.15,1.41s-3.45.68-6.73,2.59c-.31.18-.38.22-.44.22-.28,0-.72-.36-.72-.58s.21-.32.65-.72c.88-.75,1.28-1.26,1.28-1.62s-.06-.43-1.08-.57a8.41,8.41,0,0,1-3.92-1.7,3.28,3.28,0,0,1-1-1.29c0-.29.37-.83.61-.83A1.57,1.57,0,0,1,270.7,152.67Z"/><path class="cls-1" d="M305.69,154a1.44,1.44,0,0,0,.23.75A13.93,13.93,0,0,1,307,160c0,6.05-5.17,14.33-9,14.33-1.05,0-1.6-.4-2.61-1.8a11.23,11.23,0,0,1-2.3-6.77c0-7.34,5.85-13.5,12.79-13.5s12.05,5.33,12.05,12.49c0,6.3-4.54,11.38-11.34,12.6a7.59,7.59,0,0,1-1.49.22c-.27,0-.51-.4-.54-.83,0-.07,0-.11.07-.11,6.36-1.58,10.15-6.22,10.15-12.31s-3.79-10.69-8.59-10.69C305.86,153.64,305.69,153.79,305.69,154Zm-7.11,3.27a15.48,15.48,0,0,0-3.08,9.22c0,3.06.71,4.57,2.13,4.57,1.26,0,2.71-1.26,4.17-3.56a18.92,18.92,0,0,0,3.24-10,11,11,0,0,0-.33-3.06,1,1,0,0,0-.95-.79C302.4,153.68,300.1,155.3,298.58,157.31Z"/><path class="cls-1" d="M326.66,158.39c-1.15,0-2,.07-3,.15l-.71,0c-.44,0-.57-.07-.71-.32a3.43,3.43,0,0,1-.34-1,.26.26,0,0,1,0-.15s.06,0,.13,0l.41,0a33.87,33.87,0,0,0,4.16.29v-1.91l0-2.09,0-1.69c0-.32-.07-1.11-.17-2,0-.4-.06-.83-.06-1.05,0-.43.13-.61.47-.61a5.25,5.25,0,0,1,.91.11l.38.07c2.16.47,3.14.9,3.14,1.44s-.4.76-1.45,1.3l-.07,3.09v.83a11.09,11.09,0,0,1,0,1.44v1.08h4.67l0-1.91v-.86c0-.61,0-1.19,0-1.8v-.51a30.27,30.27,0,0,0-.23-4,7.41,7.41,0,0,1-.1-1.05c0-.43.13-.57.54-.57a4.42,4.42,0,0,1,1,.14c2.51.51,3.39.87,3.39,1.41,0,.39-.41.75-1.49,1.36,0,1.7,0,2.63,0,2.7,0,.4,0,1.23,0,2.49l0,2.59h5.25v-.47a3.13,3.13,0,0,1,0-.65c0-.65,0-1.44,0-2.44v-.58a30.85,30.85,0,0,0-.24-4,6.93,6.93,0,0,1-.1-1.05c0-.36.13-.54.47-.54a16.63,16.63,0,0,1,2.88.54c1.12.33,1.59.62,1.59,1s-.41.76-1.49,1.33v1.77l0,.79c0,.14,0,.43,0,1l0,3.35h1.53l.91-1.37c.54-.86.81-1.15,1.19-1.15s.88.36,2.37,1.84c.1.1.2.21.23.21a1.26,1.26,0,0,1,.51.94c0,.36-.3.57-.81.57H346v.51c.07,1.87.07,1.87.07,3.81V165l0,2.23c0,.79,0,1.91,0,2.2a1.87,1.87,0,0,1-1.93,2.09c-.95,0-1.49-.62-1.49-1.7v-.46a4.62,4.62,0,0,0,0-.83h-5.05v.79c0,.4,0,.54,0,1.37v.39a1.94,1.94,0,0,1-2,1.91c-.91,0-1.45-.61-1.45-1.69v-.4l0-.36v-1l0-1.16,0-1.22V164.8c0-.58,0-1.15,0-1.55v-4.86h-4.67V160l0,2.52v2.55l0,3.31,0,3.24v1.19l0,2.45H346.7c1.52-2.38,1.65-2.56,2.13-2.56s1.18.61,2.6,2l.17.18a1,1,0,0,1,.44.79c0,.36-.3.61-.78.61H329.91c0,.43,0,.47,0,1v.14a1.92,1.92,0,0,1-1.93,2c-.94,0-1.49-.64-1.49-1.72,0,0,0-.08,0-.76.07-2.27.07-2.45.07-4.07v-1.19c0-.57,0-1.47,0-2.55V158.39Zm10.93,0c0,1.44,0,3,0,4.07s0,1.19,0,1.55v1.29l0,.62v1.54h5.08c0-.72,0-1.87,0-3.52v-1.73l0-1.51v-2.31Z"/><path class="cls-1" d="M373.78,161.7l.17.15.2.14a.86.86,0,0,1,.17.15l.2.18a35.09,35.09,0,0,0,8.6,5.32c2.27,1,2.27,1,2.27,1.26s0,.26-.55.69l-.2.21-.61.58c-.88.79-1.18,1-1.56,1-.2,0-.47-.15-1.21-.65a33.62,33.62,0,0,1-4.4-3.38l-.07,0-.07,0c0,.54-.07,1.55-.07,2.81,0,.93,0,3.13.14,5.76,0,1.47,0,1.47,0,1.69a1.93,1.93,0,0,1-1.93,2c-.94,0-1.35-.58-1.35-1.88v-.93l0-1.73,0-2.77v-3.17a26.76,26.76,0,0,0-.14-2.77c0-.36-.07-.76-.07-.9,0-.43.14-.61.48-.61a4.75,4.75,0,0,1,.68.07s0,0,0,0a14.27,14.27,0,0,1-2.3-3.39h-4.47a18.08,18.08,0,0,1-2.06,3.06c2,.58,2.36.79,2.36,1.23s-.44.75-1.15,1.11c-.16.07-.23.11-.27.18a19.94,19.94,0,0,0-.67,3.89c-.24,1.62-1.83,4.21-3.62,5.87a9.72,9.72,0,0,1-5.59,2.55c-.41,0-.64-.07-.64-.25s.1-.18.51-.43a13.18,13.18,0,0,0,6.8-11.74,20.2,20.2,0,0,1-5.08,3.46,9.49,9.49,0,0,1-3.38,1.11c-.41,0-.58-.1-.58-.28s.17-.33.54-.51a26.18,26.18,0,0,0,4.13-3,21.72,21.72,0,0,0,5.08-6.23h-2.67v1a1.93,1.93,0,0,1-1.9,2.13,1.2,1.2,0,0,1-1.29-1.26v-.22l0-1.91c.07-4,.1-6.83.1-8.49a28.91,28.91,0,0,0-.17-3.67c0-.4-.07-.76-.07-1s.1-.47.31-.47a13.49,13.49,0,0,1,3.72,1.3h14.86l.44-.51c.64-.82,1-1.11,1.42-1.11.71,0,3.18,2.19,3.18,2.81,0,.28-.27.57-.95.93a2,2,0,0,0-.4.22c0,2.59,0,7.74.1,10v.5a1.84,1.84,0,0,1-1.9,1.88c-.94,0-1.28-.44-1.28-1.7v-.46h-4.06Zm-12-11.66a.43.43,0,0,0-.2.33,21.05,21.05,0,0,0,0,2.41v2h6.77V150Zm-.24,6.41v4.14h6.77v-4.75h-6.77Zm9.88-6.41v4.75h6.37V150Zm6.33,10.55v-2l0-.72v-2h-6.37v4.75Z"/><path class="cls-1" d="M395.74,166.56c.3,0,.61.26.61.44a3.3,3.3,0,0,1-.1.43,26.81,26.81,0,0,0-1.09,5.54,11.44,11.44,0,0,0,.24,2.2,4.92,4.92,0,0,1,.1.75c0,.58-.74,1.15-1.45,1.15-.38,0-.61-.14-1.05-.61-1.86-2-2.64-4.1-2.64-7.41a28.92,28.92,0,0,1,.78-6.34,33.21,33.21,0,0,0,.67-6.15,8.85,8.85,0,0,0-1-4.54,2.18,2.18,0,0,1-.2-.5c0-.18.44-.54.64-.54a6,6,0,0,1,2.1,1.73,6.34,6.34,0,0,1,1.35,4.06,12.82,12.82,0,0,1-.84,4.25c-1.19,3.6-1.66,5.62-1.66,7.2s.37,2.77.91,2.77.78-.47,1.8-3c.47-1.15.64-1.48.77-1.48Zm13.74,8.28a9.76,9.76,0,0,1-1.46.08,13.65,13.65,0,0,1-5.89-1.19,4.17,4.17,0,0,1-2.23-3.53c0-1,.27-2.16.54-2.16a1.2,1.2,0,0,1,.65.22,2.27,2.27,0,0,0,0,.39c0,2.34,1.62,3.31,5.38,3.31a29,29,0,0,0,4.27-.32,10.19,10.19,0,0,1,1.15-.11c1.15,0,1.59.43,1.59,1.59,0,1-.58,1.4-2.44,1.58a8.9,8.9,0,0,1-1.42.14Zm-7.58-20.66a5.24,5.24,0,0,0,3.21.79,20.73,20.73,0,0,0,4.44-.46,6.51,6.51,0,0,1,1.52-.22c1.08,0,1.59.54,1.59,1.66s-1.29,1.58-4.84,1.58c-2.94,0-4.91-.58-6.06-1.76a3.24,3.24,0,0,1-.67-1.26c0-.11.44-.44.57-.44A.45.45,0,0,1,401.9,154.18Z"/><path class="cls-1" d="M430.36,175.49a4.63,4.63,0,1,1-4.64-4.89A4.77,4.77,0,0,1,430.36,175.49Zm-7.92,0a3.31,3.31,0,1,0,3.28-3.5A3.41,3.41,0,0,0,422.44,175.46Z"/><path class="cls-1" d="M451,160.91h5.66v18.68H441.08v-5.83H451Zm-8.15,16.85h12.08v-15h-2.2V175.6h-9.88Z"/></g></g></svg>