<svg xmlns="http://www.w3.org/2000/svg" viewBox="0 0 665.11 62.54"><defs><style>.cls-1{fill:#fff;}.cls-2{fill:none;stroke:#fff;stroke-miterlimit:10;stroke-width:1.5px;}</style></defs><g id="レイヤー_2" data-name="レイヤー 2"><g id="テキスト"><path class="cls-1" d="M1.09,2.51h15v.64H1.75V13.8H15.14v.63H1.75v12H1.09Z"/><path class="cls-1" d="M41.22,26.39h-.59c-.09-.64-.06-4.3-.06-5.76-1.26,3.73-4.07,6.22-9.55,6.22-7.1,0-11-5.62-11-12.22,0-7.29,4.6-12.58,11.27-12.58,5.26,0,8.79,2.46,10.11,7h-.69c-1.31-4.26-4.88-6.33-9.48-6.33-6.32,0-10.52,5.1-10.52,12,0,6.2,3.79,11.59,10.39,11.59,5.7,0,9.52-3,9.52-9.55V15H31.12V14.4h10.1Z"/><path class="cls-1" d="M69.29,14.23c0,7.06-4.26,12.62-11.36,12.62-6.67,0-11.27-5.42-11.27-12.42,0-6.69,4.66-12.38,11.39-12.38C64.5,2.05,69.29,7.41,69.29,14.23Zm-21.94.17c0,6.26,4.13,11.82,10.61,11.82,6.23,0,10.64-4.89,10.64-11.92C68.6,8,64.25,2.68,58,2.68,52.11,2.68,47.35,7.78,47.35,14.4Z"/><path class="cls-1" d="M97.49,4.28H86.7c-.35,3.39-.85,8.16-1.29,10.22a6.86,6.86,0,0,1,6.17-3c4,0,7,2.83,7,7.26,0,5-2.91,8.09-7.39,8.09a7,7,0,0,1-7.29-5.79h.66a6.54,6.54,0,0,0,6.66,5.16c3.89,0,6.67-2.66,6.67-7.42,0-2.9-1.63-6.66-6.35-6.66-3.88,0-5.42,2-6.32,3.73l-.63-.2c.53-3,1.38-10.06,1.47-12H97.62Z"/><path class="cls-1" d="M101.28,9.67h3.13V4.08h.66V9.67h4.16v.64h-4.16V22.42c0,2.3.4,3.67,2.56,3.67a4.15,4.15,0,0,0,1.44-.24v.6a3.55,3.55,0,0,1-1.44.27c-2.31,0-3.22-1.1-3.22-4.43v-12h-3.13Z"/><path class="cls-1" d="M114.16.75V14.23a6.85,6.85,0,0,1,6.7-5c3.22,0,6.29,1.89,6.29,7.32v9.86h-.66V16.67c0-3.73-1.59-6.8-5.66-6.8s-6.67,3.2-6.67,7.69v8.83h-.65V.75Z"/><path class="cls-1" d="M146.65,16.93l-3.85,9.46h-.68l9.79-23.88h.6l9.7,23.88h-.72l-3.85-9.46Zm10.74-.63c-3.26-8.09-4.82-11.79-5.17-12.95h0c-.25.8-2.6,6.42-5.26,13Z"/><path class="cls-1" d="M166.92,14.87c0-3.27,0-4.53,0-5.2h.63c0,.54.09,3.1.06,4.46a6.88,6.88,0,0,1,6.76-4.92c3.6,0,6.2,2.43,6.2,7.25v9.93h-.66V16.6c0-4-2-6.73-5.63-6.73-4.54,0-6.67,3.86-6.67,7.56v9h-.66Z"/><path class="cls-1" d="M186.8,14.87c0-3.27,0-4.53,0-5.2h.63c0,.54.09,3.1.06,4.46a6.87,6.87,0,0,1,6.76-4.92c3.6,0,6.19,2.43,6.19,7.25v9.93h-.65V16.6c0-4-2-6.73-5.64-6.73-4.53,0-6.66,3.86-6.66,7.56v9h-.66Z"/><path class="cls-1" d="M206.7.75h.66V4h-.66Zm0,8.92h.66V26.39h-.66Z"/><path class="cls-1" d="M212.46,9.67c4.45,10,6.45,14.49,7,15.72h0c.51-1.17,2.6-5.73,7.08-15.72h.72l-7.54,16.72h-.57L211.71,9.67Z"/><path class="cls-1" d="M230.77,18c.06,5.26,3,8.22,7,8.22a6.53,6.53,0,0,0,6.38-4h.72a7.2,7.2,0,0,1-7.1,4.63c-5.57,0-7.67-4.73-7.67-8.79,0-5.16,3-8.85,7.67-8.85,5.88,0,7.42,4.86,7.42,8.09V18Zm13.74-.64c-.13-4.09-2.07-7.52-6.82-7.52-4.17,0-6.73,3.36-6.89,7.52Z"/><path class="cls-1" d="M250.44,15.37c0-2.57,0-4.47,0-5.7H251c0,.83.09,3.63.06,4.93a7.36,7.36,0,0,1,6.54-5.39v.73c-3.53.07-6.54,3.5-6.54,7.46v9h-.65Z"/><path class="cls-1" d="M261,21.92c.59,2.83,2.72,4.3,5.85,4.3,3.29,0,5.41-1.43,5.41-4.1,0-1.66-.34-3.39-5.19-4.29-5.29-1-5.92-2.43-5.92-4.43,0-1.8,1.38-4.19,5.45-4.19,4.44,0,5.7,2.66,5.91,4.49h-.65c-.32-1.7-1.32-3.86-5.29-3.86-3.63,0-4.73,2-4.73,3.53,0,2.36,1.32,3.06,5.45,3.86,4.76.93,5.66,2.6,5.66,4.86,0,3-2.34,4.76-6.1,4.76-3.94,0-6.13-2.19-6.51-4.93Z"/><path class="cls-1" d="M290.33,22.69a31.51,31.51,0,0,0,.19,3.7h-.63a21.94,21.94,0,0,1-.22-3.63c-.87,2.56-2.91,4.09-6.82,4.09-4.41,0-5.85-2.83-5.85-5.09,0-4.13,3.66-5.3,8.1-5.3,2.82,0,3.7,0,4.57,0V14.83c0-2.59-1.22-5-5.41-5-3.88,0-5.26,1.93-5.7,4.49h-.65c.37-2.69,1.94-5.12,6.41-5.12s6,2.56,6,5.52Zm-.66-5.56c-1.22,0-2.66,0-4.6,0-3.1,0-7.38.5-7.38,4.66,0,2.66,2.06,4.43,5.16,4.43,5,0,6.82-2.67,6.82-6.73Z"/><path class="cls-1" d="M296.59,15.37c0-2.57,0-4.47,0-5.7h.62c0,.83.09,3.63.06,4.93a7.36,7.36,0,0,1,6.54-5.39v.73c-3.53.07-6.54,3.5-6.54,7.46v9h-.65Z"/><path class="cls-1" d="M307.61,9.67c4.63,10.26,6.7,14.82,7.17,15.85h0c.47-1.16,2.53-5.93,6.85-15.85h.72L315,26.82c-2.23,5.09-3.17,7.49-6.51,7.49a7.08,7.08,0,0,1-1.82-.23l.13-.73a7,7,0,0,0,1.72.23c2.53,0,3.5-1.37,5.91-7.19L306.86,9.67Z"/><path class="cls-1" d="M343.75.75a25.23,25.23,0,0,0-1.63,8.32h-.69A24.29,24.29,0,0,1,343.12.75Zm4.22,0a25.22,25.22,0,0,0-1.62,8.32h-.69A24.05,24.05,0,0,1,347.35.75Z"/><path class="cls-1" d="M365.47,21.23c0,1.66,0,4.46,0,5.16h-.65c0-.6-.07-3.3,0-4.8-1,3.53-3,5.2-6.57,5.2-3,0-6.23-1.47-6.23-6.9V9.67h.66V20c0,3.33,1.54,6.16,5.6,6.16,4.73,0,6.54-3.73,6.54-8.49v-8h.66Z"/><path class="cls-1" d="M371.78,14.87c0-3.27,0-4.53,0-5.2h.63c0,.54.09,3.1.06,4.46a6.87,6.87,0,0,1,6.76-4.92c3.6,0,6.2,2.43,6.2,7.25v9.93h-.66V16.6c0-4-2-6.73-5.64-6.73-4.53,0-6.66,3.86-6.66,7.56v9h-.66Z"/><path class="cls-1" d="M406.2.75V22c0,1.17,0,3.7,0,4.4h-.62c0-.87-.07-3.2,0-4.66-.82,2.43-2.35,5.12-7.08,5.12s-7.73-3.59-7.73-8.72c0-5.73,3.91-8.92,8.05-8.92,4.41,0,6.13,2.76,6.72,4.52V.75ZM391.46,18.1c0,4.62,2.72,8.09,7,8.09s7.08-2.43,7.08-8.49c0-5.83-3.13-7.83-6.83-7.83C394.09,9.87,391.46,13.87,391.46,18.1Z"/><path class="cls-1" d="M412.34,18c.06,5.26,3,8.22,7,8.22a6.55,6.55,0,0,0,6.39-4h.72a7.21,7.21,0,0,1-7.11,4.63c-5.57,0-7.66-4.73-7.66-8.79,0-5.16,3-8.85,7.66-8.85,5.89,0,7.42,4.86,7.42,8.09V18Zm13.73-.64c-.12-4.09-2.06-7.52-6.82-7.52-4.16,0-6.73,3.36-6.88,7.52Z"/><path class="cls-1" d="M432,15.37c0-2.57,0-4.47,0-5.7h.63c0,.83.09,3.63.06,4.93a7.36,7.36,0,0,1,6.54-5.39v.73c-3.54.07-6.54,3.5-6.54,7.46v9H432Z"/><path class="cls-1" d="M451,9.67h3.13V4.08h.66V9.67H459v.64h-4.16V22.42c0,2.3.41,3.67,2.57,3.67a4.05,4.05,0,0,0,1.43-.24v.6a3.53,3.53,0,0,1-1.43.27c-2.32,0-3.23-1.1-3.23-4.43v-12H451Z"/><path class="cls-1" d="M463.89.75V14.23a6.83,6.83,0,0,1,6.69-5c3.23,0,6.29,1.89,6.29,7.32v9.86h-.65V16.67c0-3.73-1.6-6.8-5.67-6.8s-6.66,3.2-6.66,7.69v8.83h-.66V.75Z"/><path class="cls-1" d="M483,18c.06,5.26,3,8.22,7,8.22a6.52,6.52,0,0,0,6.38-4h.72a7.19,7.19,0,0,1-7.1,4.63c-5.57,0-7.67-4.73-7.67-8.79,0-5.16,3-8.85,7.67-8.85,5.88,0,7.42,4.86,7.42,8.09V18Zm13.74-.64c-.13-4.09-2.07-7.52-6.82-7.52-4.16,0-6.73,3.36-6.89,7.52Z"/><path class="cls-1" d="M511,21.92c.6,2.83,2.73,4.3,5.86,4.3,3.28,0,5.41-1.43,5.41-4.1,0-1.66-.34-3.39-5.2-4.29-5.28-1-5.91-2.43-5.91-4.43,0-1.8,1.38-4.19,5.45-4.19,4.44,0,5.69,2.66,5.91,4.49h-.66c-.31-1.7-1.31-3.86-5.29-3.86-3.63,0-4.72,2-4.72,3.53,0,2.36,1.31,3.06,5.44,3.86,4.76.93,5.67,2.6,5.67,4.86,0,3-2.35,4.76-6.1,4.76-3.95,0-6.14-2.19-6.51-4.93Z"/><path class="cls-1" d="M540.31,22.69a32.43,32.43,0,0,0,.18,3.7h-.62a20.85,20.85,0,0,1-.22-3.63c-.88,2.56-2.91,4.09-6.82,4.09-4.42,0-5.86-2.83-5.86-5.09,0-4.13,3.67-5.3,8.11-5.3,2.82,0,3.69,0,4.57,0V14.83c0-2.59-1.22-5-5.42-5-3.88,0-5.25,1.93-5.69,4.49h-.66c.38-2.69,1.94-5.12,6.42-5.12s6,2.56,6,5.52Zm-.66-5.56c-1.22,0-2.66,0-4.6,0-3.1,0-7.39.5-7.39,4.66,0,2.66,2.07,4.43,5.17,4.43,5,0,6.82-2.67,6.82-6.73Z"/><path class="cls-1" d="M546.56,15.2c0-2.53,0-4.66,0-5.53h.63c.06,1,.09,3.37.06,4.1.75-2.23,2.47-4.56,5.82-4.56a5.14,5.14,0,0,1,5.35,4.26,6.1,6.1,0,0,1,5.82-4.26c2.94,0,5.57,1.53,5.57,6.56V26.39h-.65V15.93c0-3.09-1.1-6.06-4.92-6.06-3.41,0-5.69,2.73-5.69,6.83v9.69h-.66V15.2c0-2.23-1.1-5.29-4.88-5.29s-5.76,3.53-5.76,7.25v9.23h-.66Z"/><path class="cls-1" d="M575.94,18c.06,5.26,3,8.22,7,8.22a6.55,6.55,0,0,0,6.39-4H590a7.21,7.21,0,0,1-7.11,4.63c-5.57,0-7.66-4.73-7.66-8.79,0-5.16,3-8.85,7.66-8.85,5.89,0,7.42,4.86,7.42,8.09V18Zm13.73-.64c-.12-4.09-2.06-7.52-6.82-7.52-4.16,0-6.73,3.36-6.88,7.52Z"/><path class="cls-1" d="M605,21.92c.6,2.83,2.73,4.3,5.86,4.3s5.41-1.43,5.41-4.1c0-1.66-.34-3.39-5.19-4.29-5.29-1-5.92-2.43-5.92-4.43,0-1.8,1.38-4.19,5.45-4.19,4.44,0,5.69,2.66,5.91,4.49h-.66c-.31-1.7-1.31-3.86-5.29-3.86-3.62,0-4.72,2-4.72,3.53,0,2.36,1.31,3.06,5.45,3.86,4.75.93,5.66,2.6,5.66,4.86,0,3-2.35,4.76-6.1,4.76-4,0-6.14-2.19-6.51-4.93Z"/><path class="cls-1" d="M622.76,18.8c1.47-1.2,8.26-6.9,11-9.13h1l-8.1,6.7,9.1,10h-.87l-8.73-9.63-3.38,2.8v6.83h-.66V.75h.66Z"/><path class="cls-1" d="M639.62,9.67c4.63,10.26,6.7,14.82,7.17,15.85h0c.47-1.16,2.53-5.93,6.85-15.85h.72L647,26.82c-2.22,5.09-3.16,7.49-6.51,7.49a7,7,0,0,1-1.81-.23l.12-.73a7.15,7.15,0,0,0,1.72.23c2.54,0,3.51-1.37,5.92-7.19L638.87,9.67Z"/><path class="cls-1" d="M657.79,9.07A25.43,25.43,0,0,0,659.42.75h.68a24.34,24.34,0,0,1-1.68,8.32Zm4.22,0A24.92,24.92,0,0,0,663.64.75h.69a24.29,24.29,0,0,1-1.69,8.32Z"/><path class="cls-2" d="M1.09,2.51h15v.64H1.75V13.8H15.14v.63H1.75v12H1.09Z"/><path class="cls-2" d="M41.22,26.39h-.59c-.09-.64-.06-4.3-.06-5.76-1.26,3.73-4.07,6.22-9.55,6.22-7.1,0-11-5.62-11-12.22,0-7.29,4.6-12.58,11.27-12.58,5.26,0,8.79,2.46,10.11,7h-.69c-1.31-4.26-4.88-6.33-9.48-6.33-6.32,0-10.52,5.1-10.52,12,0,6.2,3.79,11.59,10.39,11.59,5.7,0,9.52-3,9.52-9.55V15H31.12V14.4h10.1Z"/><path class="cls-2" d="M69.29,14.23c0,7.06-4.26,12.62-11.36,12.62-6.67,0-11.27-5.42-11.27-12.42,0-6.69,4.66-12.38,11.39-12.38C64.5,2.05,69.29,7.41,69.29,14.23Zm-21.94.17c0,6.26,4.13,11.82,10.61,11.82,6.23,0,10.64-4.89,10.64-11.92C68.6,8,64.25,2.68,58,2.68,52.11,2.68,47.35,7.78,47.35,14.4Z"/><path class="cls-2" d="M97.49,4.28H86.7c-.35,3.39-.85,8.16-1.29,10.22a6.86,6.86,0,0,1,6.17-3c4,0,7,2.83,7,7.26,0,5-2.91,8.09-7.39,8.09a7,7,0,0,1-7.29-5.79h.66a6.54,6.54,0,0,0,6.66,5.16c3.89,0,6.67-2.66,6.67-7.42,0-2.9-1.63-6.66-6.35-6.66-3.88,0-5.42,2-6.32,3.73l-.63-.2c.53-3,1.38-10.06,1.47-12H97.62Z"/><path class="cls-2" d="M101.28,9.67h3.13V4.08h.66V9.67h4.16v.64h-4.16V22.42c0,2.3.4,3.67,2.56,3.67a4.15,4.15,0,0,0,1.44-.24v.6a3.55,3.55,0,0,1-1.44.27c-2.31,0-3.22-1.1-3.22-4.43v-12h-3.13Z"/><path class="cls-2" d="M114.16.75V14.23a6.85,6.85,0,0,1,6.7-5c3.22,0,6.29,1.89,6.29,7.32v9.86h-.66V16.67c0-3.73-1.59-6.8-5.66-6.8s-6.67,3.2-6.67,7.69v8.83h-.65V.75Z"/><path class="cls-2" d="M146.65,16.93l-3.85,9.46h-.68l9.79-23.88h.6l9.7,23.88h-.72l-3.85-9.46Zm10.74-.63c-3.26-8.09-4.82-11.79-5.17-12.95h0c-.25.8-2.6,6.42-5.26,13Z"/><path class="cls-2" d="M166.92,14.87c0-3.27,0-4.53,0-5.2h.63c0,.54.09,3.1.06,4.46a6.88,6.88,0,0,1,6.76-4.92c3.6,0,6.2,2.43,6.2,7.25v9.93h-.66V16.6c0-4-2-6.73-5.63-6.73-4.54,0-6.67,3.86-6.67,7.56v9h-.66Z"/><path class="cls-2" d="M186.8,14.87c0-3.27,0-4.53,0-5.2h.63c0,.54.09,3.1.06,4.46a6.87,6.87,0,0,1,6.76-4.92c3.6,0,6.19,2.43,6.19,7.25v9.93h-.65V16.6c0-4-2-6.73-5.64-6.73-4.53,0-6.66,3.86-6.66,7.56v9h-.66Z"/><path class="cls-2" d="M206.7.75h.66V4h-.66Zm0,8.92h.66V26.39h-.66Z"/><path class="cls-2" d="M212.46,9.67c4.45,10,6.45,14.49,7,15.72h0c.51-1.17,2.6-5.73,7.08-15.72h.72l-7.54,16.72h-.57L211.71,9.67Z"/><path class="cls-2" d="M230.77,18c.06,5.26,3,8.22,7,8.22a6.53,6.53,0,0,0,6.38-4h.72a7.2,7.2,0,0,1-7.1,4.63c-5.57,0-7.67-4.73-7.67-8.79,0-5.16,3-8.85,7.67-8.85,5.88,0,7.42,4.86,7.42,8.09V18Zm13.74-.64c-.13-4.09-2.07-7.52-6.82-7.52-4.17,0-6.73,3.36-6.89,7.52Z"/><path class="cls-2" d="M250.44,15.37c0-2.57,0-4.47,0-5.7H251c0,.83.09,3.63.06,4.93a7.36,7.36,0,0,1,6.54-5.39v.73c-3.53.07-6.54,3.5-6.54,7.46v9h-.65Z"/><path class="cls-2" d="M261,21.92c.59,2.83,2.72,4.3,5.85,4.3,3.29,0,5.41-1.43,5.41-4.1,0-1.66-.34-3.39-5.19-4.29-5.29-1-5.92-2.43-5.92-4.43,0-1.8,1.38-4.19,5.45-4.19,4.44,0,5.7,2.66,5.91,4.49h-.65c-.32-1.7-1.32-3.86-5.29-3.86-3.63,0-4.73,2-4.73,3.53,0,2.36,1.32,3.06,5.45,3.86,4.76.93,5.66,2.6,5.66,4.86,0,3-2.34,4.76-6.1,4.76-3.94,0-6.13-2.19-6.51-4.93Z"/><path class="cls-2" d="M290.33,22.69a31.51,31.51,0,0,0,.19,3.7h-.63a21.94,21.94,0,0,1-.22-3.63c-.87,2.56-2.91,4.09-6.82,4.09-4.41,0-5.85-2.83-5.85-5.09,0-4.13,3.66-5.3,8.1-5.3,2.82,0,3.7,0,4.57,0V14.83c0-2.59-1.22-5-5.41-5-3.88,0-5.26,1.93-5.7,4.49h-.65c.37-2.69,1.94-5.12,6.41-5.12s6,2.56,6,5.52Zm-.66-5.56c-1.22,0-2.66,0-4.6,0-3.1,0-7.38.5-7.38,4.66,0,2.66,2.06,4.43,5.16,4.43,5,0,6.82-2.67,6.82-6.73Z"/><path class="cls-2" d="M296.59,15.37c0-2.57,0-4.47,0-5.7h.62c0,.83.09,3.63.06,4.93a7.36,7.36,0,0,1,6.54-5.39v.73c-3.53.07-6.54,3.5-6.54,7.46v9h-.65Z"/><path class="cls-2" d="M307.61,9.67c4.63,10.26,6.7,14.82,7.17,15.85h0c.47-1.16,2.53-5.93,6.85-15.85h.72L315,26.82c-2.23,5.09-3.17,7.49-6.51,7.49a7.08,7.08,0,0,1-1.82-.23l.13-.73a7,7,0,0,0,1.72.23c2.53,0,3.5-1.37,5.91-7.19L306.86,9.67Z"/><path class="cls-2" d="M343.75.75a25.23,25.23,0,0,0-1.63,8.32h-.69A24.29,24.29,0,0,1,343.12.75Zm4.22,0a25.22,25.22,0,0,0-1.62,8.32h-.69A24.05,24.05,0,0,1,347.35.75Z"/><path class="cls-2" d="M365.47,21.23c0,1.66,0,4.46,0,5.16h-.65c0-.6-.07-3.3,0-4.8-1,3.53-3,5.2-6.57,5.2-3,0-6.23-1.47-6.23-6.9V9.67h.66V20c0,3.33,1.54,6.16,5.6,6.16,4.73,0,6.54-3.73,6.54-8.49v-8h.66Z"/><path class="cls-2" d="M371.78,14.87c0-3.27,0-4.53,0-5.2h.63c0,.54.09,3.1.06,4.46a6.87,6.87,0,0,1,6.76-4.92c3.6,0,6.2,2.43,6.2,7.25v9.93h-.66V16.6c0-4-2-6.73-5.64-6.73-4.53,0-6.66,3.86-6.66,7.56v9h-.66Z"/><path class="cls-2" d="M406.2.75V22c0,1.17,0,3.7,0,4.4h-.62c0-.87-.07-3.2,0-4.66-.82,2.43-2.35,5.12-7.08,5.12s-7.73-3.59-7.73-8.72c0-5.73,3.91-8.92,8.05-8.92,4.41,0,6.13,2.76,6.72,4.52V.75ZM391.46,18.1c0,4.62,2.72,8.09,7,8.09s7.08-2.43,7.08-8.49c0-5.83-3.13-7.83-6.83-7.83C394.09,9.87,391.46,13.87,391.46,18.1Z"/><path class="cls-2" d="M412.34,18c.06,5.26,3,8.22,7,8.22a6.55,6.55,0,0,0,6.39-4h.72a7.21,7.21,0,0,1-7.11,4.63c-5.57,0-7.66-4.73-7.66-8.79,0-5.16,3-8.85,7.66-8.85,5.89,0,7.42,4.86,7.42,8.09V18Zm13.73-.64c-.12-4.09-2.06-7.52-6.82-7.52-4.16,0-6.73,3.36-6.88,7.52Z"/><path class="cls-2" d="M432,15.37c0-2.57,0-4.47,0-5.7h.63c0,.83.09,3.63.06,4.93a7.36,7.36,0,0,1,6.54-5.39v.73c-3.54.07-6.54,3.5-6.54,7.46v9H432Z"/><path class="cls-2" d="M451,9.67h3.13V4.08h.66V9.67H459v.64h-4.16V22.42c0,2.3.41,3.67,2.57,3.67a4.05,4.05,0,0,0,1.43-.24v.6a3.53,3.53,0,0,1-1.43.27c-2.32,0-3.23-1.1-3.23-4.43v-12H451Z"/><path class="cls-2" d="M463.89.75V14.23a6.83,6.83,0,0,1,6.69-5c3.23,0,6.29,1.89,6.29,7.32v9.86h-.65V16.67c0-3.73-1.6-6.8-5.67-6.8s-6.66,3.2-6.66,7.69v8.83h-.66V.75Z"/><path class="cls-2" d="M483,18c.06,5.26,3,8.22,7,8.22a6.52,6.52,0,0,0,6.38-4h.72a7.19,7.19,0,0,1-7.1,4.63c-5.57,0-7.67-4.73-7.67-8.79,0-5.16,3-8.85,7.67-8.85,5.88,0,7.42,4.86,7.42,8.09V18Zm13.74-.64c-.13-4.09-2.07-7.52-6.82-7.52-4.16,0-6.73,3.36-6.89,7.52Z"/><path class="cls-2" d="M511,21.92c.6,2.83,2.73,4.3,5.86,4.3,3.28,0,5.41-1.43,5.41-4.1,0-1.66-.34-3.39-5.2-4.29-5.28-1-5.91-2.43-5.91-4.43,0-1.8,1.38-4.19,5.45-4.19,4.44,0,5.69,2.66,5.91,4.49h-.66c-.31-1.7-1.31-3.86-5.29-3.86-3.63,0-4.72,2-4.72,3.53,0,2.36,1.31,3.06,5.44,3.86,4.76.93,5.67,2.6,5.67,4.86,0,3-2.35,4.76-6.1,4.76-3.95,0-6.14-2.19-6.51-4.93Z"/><path class="cls-2" d="M540.31,22.69a32.43,32.43,0,0,0,.18,3.7h-.62a20.85,20.85,0,0,1-.22-3.63c-.88,2.56-2.91,4.09-6.82,4.09-4.42,0-5.86-2.83-5.86-5.09,0-4.13,3.67-5.3,8.11-5.3,2.82,0,3.69,0,4.57,0V14.83c0-2.59-1.22-5-5.42-5-3.88,0-5.25,1.93-5.69,4.49h-.66c.38-2.69,1.94-5.12,6.42-5.12s6,2.56,6,5.52Zm-.66-5.56c-1.22,0-2.66,0-4.6,0-3.1,0-7.39.5-7.39,4.66,0,2.66,2.07,4.43,5.17,4.43,5,0,6.82-2.67,6.82-6.73Z"/><path class="cls-2" d="M546.56,15.2c0-2.53,0-4.66,0-5.53h.63c.06,1,.09,3.37.06,4.1.75-2.23,2.47-4.56,5.82-4.56a5.14,5.14,0,0,1,5.35,4.26,6.1,6.1,0,0,1,5.82-4.26c2.94,0,5.57,1.53,5.57,6.56V26.39h-.65V15.93c0-3.09-1.1-6.06-4.92-6.06-3.41,0-5.69,2.73-5.69,6.83v9.69h-.66V15.2c0-2.23-1.1-5.29-4.88-5.29s-5.76,3.53-5.76,7.25v9.23h-.66Z"/><path class="cls-2" d="M575.94,18c.06,5.26,3,8.22,7,8.22a6.55,6.55,0,0,0,6.39-4H590a7.21,7.21,0,0,1-7.11,4.63c-5.57,0-7.66-4.73-7.66-8.79,0-5.16,3-8.85,7.66-8.85,5.89,0,7.42,4.86,7.42,8.09V18Zm13.73-.64c-.12-4.09-2.06-7.52-6.82-7.52-4.16,0-6.73,3.36-6.88,7.52Z"/><path class="cls-2" d="M605,21.92c.6,2.83,2.73,4.3,5.86,4.3s5.41-1.43,5.41-4.1c0-1.66-.34-3.39-5.19-4.29-5.29-1-5.92-2.43-5.92-4.43,0-1.8,1.38-4.19,5.45-4.19,4.44,0,5.69,2.66,5.91,4.49h-.66c-.31-1.7-1.31-3.86-5.29-3.86-3.62,0-4.72,2-4.72,3.53,0,2.36,1.31,3.06,5.45,3.86,4.75.93,5.66,2.6,5.66,4.86,0,3-2.35,4.76-6.1,4.76-4,0-6.14-2.19-6.51-4.93Z"/><path class="cls-2" d="M622.76,18.8c1.47-1.2,8.26-6.9,11-9.13h1l-8.1,6.7,9.1,10h-.87l-8.73-9.63-3.38,2.8v6.83h-.66V.75h.66Z"/><path class="cls-2" d="M639.62,9.67c4.63,10.26,6.7,14.82,7.17,15.85h0c.47-1.16,2.53-5.93,6.85-15.85h.72L647,26.82c-2.22,5.09-3.16,7.49-6.51,7.49a7,7,0,0,1-1.81-.23l.12-.73a7.15,7.15,0,0,0,1.72.23c2.54,0,3.51-1.37,5.92-7.19L638.87,9.67Z"/><path class="cls-2" d="M657.79,9.07A25.43,25.43,0,0,0,659.42.75h.68a24.34,24.34,0,0,1-1.68,8.32Zm4.22,0A24.92,24.92,0,0,0,663.64.75h.69a24.29,24.29,0,0,1-1.69,8.32Z"/><path class="cls-1" d="M3.47,53.65H0V42.23H9.49V45.8h-6Zm5-10.3H1.05v9.18H2.42V44.67h6Z"/><path class="cls-1" d="M24.55,49.78a6,6,0,0,1,2.89,1.16,5.53,5.53,0,0,1,2.11,4.38,5.66,5.66,0,0,1-2.79,5A9.81,9.81,0,0,1,23,61.59c-.18,0-.37-.24-.37-.48,0,0,0,0,0-.07,3.08-.81,4.9-3,4.9-5.85a4.94,4.94,0,0,0-1.42-3.65,4.21,4.21,0,0,0-2-.88c-.12,0-.16.09-.2.31a11.3,11.3,0,0,1-2.26,5.08.4.4,0,0,0-.08.26.41.41,0,0,0,0,.22,10.59,10.59,0,0,0,.46,1.08,1.83,1.83,0,0,1,.24.68c0,.4-.53.82-1,.82s-.54-.22-.87-1.17c-.1-.24-.12-.28-.25-.28s-.16,0-.74.57a4,4,0,0,1-2.29,1.23H17c-.79,0-1.28-1.12-1.28-2.82,0-2.33,1.11-4.09,3.66-5.78a.41.41,0,0,0,.16-.16,2.11,2.11,0,0,0,.06-.37c0-.2,0-.38.07-.6s.08-.77.12-1.18a.2.2,0,0,0,0-.09c0-.11,0-.11-.39-.11A4.44,4.44,0,0,1,18,48.19a1.85,1.85,0,0,1-1.24-1.67.5.5,0,0,1,0-.15.72.72,0,0,1,.33-.18s0,0,.05,0l.08.11c.27.51.78.73,1.84.73.85,0,.89,0,.93-.35l0-.07,0-.2a12.76,12.76,0,0,0,.15-1.34c0-.57-.36-1-1.08-1.19-.06,0-.08-.08-.08-.19a.41.41,0,0,1,.1-.33,2.18,2.18,0,0,1,.91-.14c1.24,0,2.05.53,2.05,1.37a3.34,3.34,0,0,1-.31,1.12,2.45,2.45,0,0,0-.19.73c0,.13.06.19.17.19A5.09,5.09,0,0,0,23.43,46a1.77,1.77,0,0,1,.81-.29.91.91,0,0,1,.76.84c0,.39-.5.7-1.82,1.16a8.35,8.35,0,0,1-1.69.42c-.17,0-.27.11-.31.2A9.52,9.52,0,0,0,20.89,50c0,.13,0,.17.14.17s.08,0,.33-.09a7,7,0,0,1,1.45-.33c.23,0,.29-.19.29-.9a1.11,1.11,0,0,1,0-.31.37.37,0,0,1,.33-.13c.35,0,.39.11.56,1.06,0,.2.08.26.27.28ZM19.34,52a3.8,3.8,0,0,0-1.1,1,6.13,6.13,0,0,0-1.41,3.68c0,.54.19.83.54.83a2.61,2.61,0,0,0,1.49-.77c.66-.59.79-.77.79-1.06a2,2,0,0,0-.07-.48,17.48,17.48,0,0,1-.14-2.84C19.44,52.11,19.42,52,19.34,52Zm1.34.4c0,1.21.17,2.11.37,2.11.5,0,1.82-2.7,1.82-3.69,0-.16,0-.22-.16-.22a4,4,0,0,0-1.78.52.44.44,0,0,0-.21.33A8.83,8.83,0,0,0,20.68,52.44Z"/><path class="cls-1" d="M39.73,44.7a.77.77,0,0,0,0,.15c0,.64.53,1.1,1.51,1.28a.78.78,0,0,1,.74.81c0,.77-1.12,1.58-2.69,2-.45.11-.49.13-.52.33a33.88,33.88,0,0,1-1.92,6c-.62,1.3-1,1.74-1.42,1.74a1.07,1.07,0,0,1-1-.9c0-.29.07-.4.44-1a18.77,18.77,0,0,0,1.51-2.88,16.21,16.21,0,0,0,.89-2.93c0-.11-.07-.15-.21-.15-1.68-.07-2.38-.69-2.38-2,0-.37,0-.44.31-.44s.19,0,.21.16c.06.66.49.92,1.63.92.77,0,.77,0,.87-.24A7.83,7.83,0,0,0,38,45.64c0-.92-.29-1.36-1-1.49-.09,0-.11,0-.15-.07a.9.9,0,0,1,0-.24.24.24,0,0,1,.06-.18,3.13,3.13,0,0,1,1.26-.24c1,0,1.6.42,1.6,1.1Zm5.74,2.61a5,5,0,0,1,2.73,1A2.23,2.23,0,0,1,49,50c0,.68-.39,1.17-1,1.17a1.33,1.33,0,0,1-.52-.14,3.37,3.37,0,0,0-1.18-.26c-1.05,0-1.46.44-1.46,1.56A24.51,24.51,0,0,0,45.25,56c0,.2.1.27.25.31,2.19.68,3.28,1.41,3.28,2.18,0,.46-.43,1-.8,1s-.5-.11-1.2-.64a3.56,3.56,0,0,0-1.28-.72c-.13,0-.19.08-.21.26a2.49,2.49,0,0,1-.93,1.87,3.32,3.32,0,0,1-2.19.68c-2,0-3.44-1.08-3.44-2.51s1.56-2.48,4-2.48h.34a4,4,0,0,0,.41,0c.14,0,.23-.07.23-.18v-.09c0-.44,0-.81,0-.94,0-.55,0-.88,0-1.06,0-2.42.47-3.06,2.62-3.47a.61.61,0,0,0,.56-.66,2,2,0,0,0-1.65-1.72c-.09,0-.09,0-.09-.09a1,1,0,0,1,.13-.39Zm-6.22-.48a2,2,0,0,0-.06.35c0,.13,0,.2.12.2a2,2,0,0,0,.44-.13c.29-.13.41-.27.41-.46s-.39-.84-.58-.84-.1,0-.18.2C39.33,46.46,39.29,46.68,39.25,46.83Zm.6,11.44c0,.62.87,1.06,2.07,1.06s1.71-.53,1.71-1.5c0-.2,0-.31-.16-.37a4.89,4.89,0,0,0-1.68-.29C40.66,57.17,39.85,57.63,39.85,58.27Z"/><path class="cls-1" d="M56.72,50.35a5.46,5.46,0,0,1-.58,0,2.17,2.17,0,0,1-2.48-2.28c0-.29.06-.36.33-.36.1,0,.12,0,.14,0,.23.77.75,1.1,1.72,1.1a9.61,9.61,0,0,0,1-.11c.15,0,.23-.09.29-.27a13.46,13.46,0,0,0,.19-2.13c0-1.34-.37-1.78-1.57-1.89a.4.4,0,0,1-.11-.31s0-.07,0-.09a4.38,4.38,0,0,1,1.74-.44c1.14,0,1.72.53,1.72,1.52v.22a.31.31,0,0,0,0,.11,1.23,1.23,0,0,0,.41.88,2.22,2.22,0,0,0,1.51.79.69.69,0,0,1,.58.73c0,.88-.91,1.54-3,2.2-.21.06-.29.13-.33.33v0l0,0a53.93,53.93,0,0,1-1.76,8.14c-.47,1.48-.74,1.81-1.38,1.81a1,1,0,0,1-1-1c0-.26.06-.4.35-1a19.65,19.65,0,0,0,1.39-3.43,27,27,0,0,0,1-4.49c0-.13-.06-.22-.14-.22Zm1.92-2.11a.14.14,0,0,0,.14.13c.33,0,.87-.46.87-.75s-.43-.9-.64-.9-.12,0-.16.13,0,.16-.07.42a8.69,8.69,0,0,1-.14.9Zm2.79,7.13a3.15,3.15,0,0,0-.23,1.23,1.76,1.76,0,0,0,1,1.74,7.55,7.55,0,0,0,3.27.57l.89,0c.89,0,1.3.31,1.3.92,0,.79-.33,1-1.38,1-3.91,0-5.87-1.17-5.87-3.48A3.71,3.71,0,0,1,61,55.15h0c.1,0,.39.17.37.22Zm3-4a1,1,0,0,1,.33-.18c.56-.17,1.14-.61,1.14-.88,0-.55-1.08-1.16-2.07-1.19-.29,0-.29,0-.29-.26a.62.62,0,0,1,0-.2,2.15,2.15,0,0,1,1.12-.2c2.23,0,3.9,1.06,3.9,2.51a.82.82,0,0,1-.12.49.53.53,0,0,1-.52.28,2.05,2.05,0,0,1-.51-.09,3.89,3.89,0,0,0-1-.15,10.61,10.61,0,0,0-1.57.22l-.23,0c-.06,0-.22-.26-.22-.37Z"/><path class="cls-1" d="M73.86,49.4a.5.5,0,0,0,0,.16c0,.66.45,1,1.3,1a11.63,11.63,0,0,0,2.44-.39c.31,0,.66-1.08,1-3.48a1.9,1.9,0,0,0,0-.35c0-.84-.4-1.23-1.37-1.41-.27,0-.27,0-.27-.31a.46.46,0,0,1,.06-.28,4.94,4.94,0,0,1,1.62-.24c1.28,0,2,.52,2,1.47a4.56,4.56,0,0,1-.43,1.72c-.1.26-.17.48-.44,1.32-.06.22-.14.46-.14.46l-.12.39a.41.41,0,0,0,0,.18.12.12,0,0,0,.13.13l.29,0a5.54,5.54,0,0,1,1.26-.13c1.94,0,2.77,1.1,2.77,3.69,0,2.84-1.2,5.83-2.77,6.87a3.53,3.53,0,0,1-2,.57c-.64,0-.83-.11-1-.66a3.37,3.37,0,0,0-.75-1.23c-.35-.4-.47-.55-.47-.64s.2-.33.31-.33l.1,0a3.66,3.66,0,0,0,2,.91,1.86,1.86,0,0,0,1.28-.73,8.57,8.57,0,0,0,1.84-5.39c0-1.48-.44-2.11-1.45-2.11a5.18,5.18,0,0,0-1.82.44c-.08,0-.12.13-.18.28a37.69,37.69,0,0,1-3.58,7.81c-.52.73-1,1.13-1.41,1.13a.94.94,0,0,1-.93-.95,2.06,2.06,0,0,1,.52-1A20.27,20.27,0,0,0,76,55a13.7,13.7,0,0,0,1.32-3.15.1.1,0,0,0-.1-.11,9.73,9.73,0,0,0-1.51.6,3.45,3.45,0,0,1-1.37.41c-.91,0-1.4-.57-1.4-1.62a3.64,3.64,0,0,1,.47-1.83.52.52,0,0,1,.23,0,.83.83,0,0,1,.25,0s0,0,0,.09Zm12.69,2.91a.63.63,0,0,0,.15,0c1,0,1.32-.22,1.32-1a2.16,2.16,0,0,0-1-1.87,3.31,3.31,0,0,0-1.39-.55c-.35,0-.35,0-.35-.22s.06-.35.11-.37L86,48.3a5.24,5.24,0,0,1,2.07.47,3.61,3.61,0,0,1,2,3.54c0,1.12-.42,1.87-1.06,1.87a1,1,0,0,1-.78-.42,2.42,2.42,0,0,0-1.66-.88l-.25-.07a.84.84,0,0,1-.06-.33.22.22,0,0,1,0-.15.27.27,0,0,1,.13,0Zm.21-6.89c1.61,0,3,.79,3,1.72a.8.8,0,0,1-.66.75c-.19,0-.33-.09-.56-.38a6,6,0,0,0-2.11-1.6c-.08,0-.1,0-.1-.11s.08-.36.14-.36A2,2,0,0,1,86.76,45.42Zm1.57-2a3.89,3.89,0,0,1,2.11.51,1.5,1.5,0,0,1,.77,1.1.78.78,0,0,1-.67.72c-.16,0-.29-.08-.51-.33a5.93,5.93,0,0,0-2.19-1.52c-.09,0-.11,0-.11-.08a.74.74,0,0,1,.13-.38A3.7,3.7,0,0,1,88.33,43.44Z"/><path class="cls-1" d="M108.1,60.14c.42-.61.48-.72.62-.94.31-.49.46-.62.68-.62s.85.46,1.58,1.21c.31.33.39.46.39.64s-.21.37-.5.37h-15c-.43,0-.84,0-1.42.07l-.5,0c-.33,0-.37,0-.5-.31a2.76,2.76,0,0,1-.14-.55c0-.06,0-.09.1-.09l.31,0a19.5,19.5,0,0,0,3,.17h4.65V54.62H98.59c-.27,0-.85,0-1.34.06a4.77,4.77,0,0,1-.56,0c-.25,0-.31,0-.39-.11a2,2,0,0,1-.27-.73c0-.09,0-.11.1-.11l.29,0a21.57,21.57,0,0,0,3,.18h1.94V49.05H96.77c-1.36,2.66-2.54,4.34-3.06,4.34-.06,0-.12-.07-.14-.16a1.74,1.74,0,0,1,.24-.77A46.33,46.33,0,0,0,96.42,44c.06-.49.14-.62.35-.62a5.82,5.82,0,0,1,2,.59c.58.27.78.45.78.66s-.43.6-1.15.82c-.44,1.08-.91,2.2-1.31,3h4.28V45a12.16,12.16,0,0,0-.12-1.63,3.05,3.05,0,0,1-.06-.55c0-.26.1-.37.35-.37a10.78,10.78,0,0,1,2.35.48c.56.18.83.4.83.64s-.37.6-1.24,1v1.54l0,2.35h3.58c1-1.51,1-1.56,1.34-1.56s.52.2,1.32,1c.54.53.6.6.6.82s-.2.37-.47.37h-6.37V54H106l.21-.31c.12-.22.27-.44.41-.66.27-.42.48-.61.71-.61s.62.3,1.46,1.14c.4.38.48.51.48.71s-.21.37-.48.37h-5.33v5.52Z"/><path class="cls-1" d="M126.79,49a.75.75,0,0,1,.85.8,1,1,0,0,1-.7.88,16.44,16.44,0,0,1-1.8.72c-.37.11-.39.13-.39.24a.4.4,0,0,0,.1.25,8.41,8.41,0,0,1,1.41,3.76,1.67,1.67,0,0,1-1.47,1.69c-.31,0-.46-.11-1-.61A5.59,5.59,0,0,0,119.72,55c-1.84,0-3,.8-3,2.05S117.86,59,120,59a18.6,18.6,0,0,0,2.83-.19.59.59,0,0,1,.21,0c.46,0,.77.44.77,1a.61.61,0,0,1-.31.61,7.58,7.58,0,0,1-2.67.33c-3.45,0-5.44-1.16-5.44-3.23,0-1.87,1.63-3.1,4.12-3.1a12.29,12.29,0,0,1,3.59.63,1.76,1.76,0,0,0,.58.11.49.49,0,0,0,.5-.52,6.31,6.31,0,0,0-1-2.64c0-.05-.1-.07-.16-.07s-.06,0-1.78.42a7.83,7.83,0,0,1-1.94.22,5.29,5.29,0,0,1-3.06-.77,1.87,1.87,0,0,1-.89-1.39c0-.09.25-.22.41-.2s0,0,.08.09a3.2,3.2,0,0,0,2.4,1,21.53,21.53,0,0,0,4-.7.22.22,0,0,0,.11-.18,8.19,8.19,0,0,0-.85-1.67.31.31,0,0,0-.23-.13.15.15,0,0,0-.08,0,9.79,9.79,0,0,1-2.46.44,2.64,2.64,0,0,1-2.59-1.56.1.1,0,0,1,0-.05c0-.09.21-.24.31-.24a.35.35,0,0,1,.19.11,2.44,2.44,0,0,0,1.59.51,7.57,7.57,0,0,0,2.38-.47c.08,0,.12-.08.12-.19a1.85,1.85,0,0,0-.31-.69c-.76-1.25-1.22-1.62-2-1.62a1.86,1.86,0,0,0-.33,0,.4.4,0,0,1-.13,0,.22.22,0,0,1-.1,0,.68.68,0,0,1-.23-.44,3.36,3.36,0,0,1,2-.68c1,0,1.45.37,1.76,1.43a6.69,6.69,0,0,0,.6,1.43c.06.13.1.15.2.15a10.08,10.08,0,0,0,1.62-.68,1.12,1.12,0,0,1,.53-.18.87.87,0,0,1,.79.88c0,.42-.5.77-1.76,1.21-.52.18-.54.18-.54.31s0,.07.33.71c.58,1,.6,1,.77,1s.89-.33.89-.51-.15-.37-.48-.72c-.16-.18-.22-.27-.22-.31s.2-.24.31-.24a.77.77,0,0,1,.33.17,2.57,2.57,0,0,0,1.82.57Z"/><path class="cls-1" d="M135.81,51.85c2-2.2,2.21-2.4,2.79-3.06l1.67-1.87a1.13,1.13,0,0,0,.38-.68.34.34,0,0,0-.34-.33,4.25,4.25,0,0,0-1.05.57,9.21,9.21,0,0,1-2.77,1.34c-.64,0-1.05-.81-1.05-2a3.36,3.36,0,0,1,.2-1.29s.06,0,.17,0c.29,0,.33,0,.35.29a1,1,0,0,0,1.12,1,9.63,9.63,0,0,0,3.34-1.08,1,1,0,0,1,.54-.16,2.27,2.27,0,0,1,1.26.73,1.66,1.66,0,0,1,.62,1.17,1.08,1.08,0,0,1-.27.68,6.07,6.07,0,0,1-1.11.92c-1.61,1.28-3.6,3.28-3.6,3.63,0,.07,0,.11.15.11a.54.54,0,0,0,.2,0,7,7,0,0,1,2.19-.38,4.77,4.77,0,0,1,5,4.6c0,2.89-2.46,5-5.83,5-2.36,0-4.1-1-4.1-2.31a2.12,2.12,0,0,1,2.28-2.12,3.23,3.23,0,0,1,2.06.71,2.07,2.07,0,0,1,.73,1.45c0,.22.12.31.29.31a3.08,3.08,0,0,0,1.84-1,3.49,3.49,0,0,0,.82-2.32,3.21,3.21,0,0,0-3.47-3.27,5.67,5.67,0,0,0-3.58,1.32,8.56,8.56,0,0,0-2,2.46,1.13,1.13,0,0,1-.87.6.49.49,0,0,1-.31-.12,1,1,0,0,1-.6-.88,1.91,1.91,0,0,1,.46-1.07,14.52,14.52,0,0,1,1.36-1.54Zm.89,6.27c0,.53.72.94,1.63.94.5,0,.7-.15.7-.57a1.25,1.25,0,0,0-1.36-1.14C137.11,57.35,136.7,57.68,136.7,58.12Z"/><path class="cls-1" d="M154.4,58.07a3.66,3.66,0,0,1,2,2.78,1.17,1.17,0,0,1-1,1.25c-.39,0-.72-.24-1-.77a11.53,11.53,0,0,0-2.26-3.23c-.31-.33-.47-.56-.47-.66s.12-.2.27-.2A6.08,6.08,0,0,1,154.4,58.07Z"/><path class="cls-1" d="M170.39,53.83c.2,0,.55.22.53.33a0,0,0,0,1,0,0,5.42,5.42,0,0,0-.23,1.41c0,1.95,1.68,2.86,5.34,2.86a13.23,13.23,0,0,0,3.72-.44,2.36,2.36,0,0,1,.64-.11.92.92,0,0,1,.95,1.05,1,1,0,0,1-.39.77,10.38,10.38,0,0,1-4.34.66,12.74,12.74,0,0,1-4.9-.81,3.29,3.29,0,0,1-2-3.19,4.52,4.52,0,0,1,.66-2.55Zm1.11-8.25c.81.55,2,.79,4,.79a22.67,22.67,0,0,0,3.46-.22,1.14,1.14,0,0,1,.26,0c.6,0,1,.48,1,1.23,0,.53-.4.7-1.93.86a8.66,8.66,0,0,0-4.11,1.58c-.19.11-.23.13-.27.13s-.43-.22-.43-.35.12-.2.39-.44c.54-.46.78-.77.78-1s0-.26-.66-.35a5.13,5.13,0,0,1-2.4-1,2,2,0,0,1-.64-.79c0-.17.23-.5.38-.5A.71.71,0,0,1,171.5,45.58Z"/><path class="cls-1" d="M193.66,46.41a.9.9,0,0,0,.14.46,8.48,8.48,0,0,1,.64,3.19c0,3.7-3.16,8.76-5.47,8.76-.64,0-1-.24-1.6-1.1a6.87,6.87,0,0,1-1.4-4.14,8.14,8.14,0,0,1,7.81-8.25A7.31,7.31,0,0,1,201.14,53c0,3.85-2.77,7-6.92,7.7a4.6,4.6,0,0,1-.91.13c-.17,0-.31-.24-.33-.5,0,0,0-.07,0-.07,3.89-1,6.2-3.81,6.2-7.53s-2.31-6.53-5.25-6.53C193.76,46.17,193.66,46.26,193.66,46.41Zm-4.34,2a9.46,9.46,0,0,0-1.88,5.64c0,1.87.43,2.79,1.3,2.79s1.65-.77,2.54-2.18a11.52,11.52,0,0,0,2-6.11,6.69,6.69,0,0,0-.21-1.87.58.58,0,0,0-.58-.49C191.65,46.19,190.25,47.18,189.32,48.41Z"/><path class="cls-1" d="M207.21,49.07c-.7,0-1.24,0-1.82.09l-.44,0c-.26,0-.35,0-.43-.19a2.23,2.23,0,0,1-.21-.64.18.18,0,0,1,0-.09s0,0,.09,0l.25,0a21.58,21.58,0,0,0,2.54.18V47.27l0-1.28,0-1c0-.2,0-.68-.11-1.23,0-.24,0-.51,0-.64s.08-.38.29-.38a3.53,3.53,0,0,1,.56.07l.23,0c1.32.28,1.92.55,1.92.88s-.25.46-.89.79l0,1.89v.51a6.22,6.22,0,0,1,0,.88v.66H212l0-1.17v-.53c0-.37,0-.72,0-1.1v-.31a19.29,19.29,0,0,0-.14-2.44,4.86,4.86,0,0,1-.06-.64c0-.26.08-.35.33-.35a2.65,2.65,0,0,1,.62.09c1.53.31,2.07.53,2.07.86s-.25.46-.91.83c0,1,0,1.61,0,1.65,0,.25,0,.75,0,1.52l0,1.59h3.2v-.29a1.8,1.8,0,0,1,0-.4c0-.39,0-.88,0-1.49v-.35a19.67,19.67,0,0,0-.14-2.47,4.72,4.72,0,0,1-.07-.64c0-.22.09-.33.29-.33a10.43,10.43,0,0,1,1.76.33c.68.2,1,.38,1,.62s-.24.46-.91.81v1.08l0,.49c0,.08,0,.26,0,.59l0,2h.93l.56-.84c.33-.53.5-.7.73-.7s.53.22,1.44,1.12c.07.06.13.13.15.13a.75.75,0,0,1,.31.57c0,.22-.19.35-.5.35H219v.31c.05,1.15.05,1.15.05,2.33V53.1l0,1.36c0,.49,0,1.17,0,1.35a1.14,1.14,0,0,1-1.18,1.27c-.58,0-.91-.37-.91-1v-.29a3.34,3.34,0,0,0,0-.5H214v.48c0,.24,0,.33,0,.84v.24a1.19,1.19,0,0,1-1.2,1.17c-.56,0-.89-.38-.89-1v-.24l0-.22v-.62l0-.7,0-.75V53c0-.35,0-.7,0-1v-3h-2.85v1l0,1.54v1.56l0,2,0,2v.73l0,1.49h10.26c.93-1.45,1-1.56,1.3-1.56s.72.37,1.59,1.23l.11.11a.61.61,0,0,1,.26.49c0,.22-.18.37-.47.37H209.19a5.73,5.73,0,0,1,0,.62v.08A1.17,1.17,0,0,1,208,61.92c-.58,0-.91-.39-.91-1.05,0,0,0,0,0-.46,0-1.39,0-1.5,0-2.49v-.73c0-.35,0-.9,0-1.56V49.07Zm6.68,0c0,.88,0,1.81,0,2.49s0,.73,0,.95v.79l0,.37v.95h3.1c0-.44,0-1.15,0-2.16V51.41l0-.93V49.07Z"/><path class="cls-1" d="M236.72,51.1l.11.09.12.08.1.09.13.11a21.7,21.7,0,0,0,5.25,3.26c1.38.61,1.38.61,1.38.77s0,.15-.33.42l-.12.13-.37.35c-.54.48-.73.62-1,.62s-.29-.09-.75-.4a20.66,20.66,0,0,1-2.69-2.07l0,0,0,0c0,.33,0,.94,0,1.71,0,.57,0,1.92.08,3.52,0,.91,0,.91,0,1a1.17,1.17,0,0,1-1.17,1.21c-.58,0-.83-.35-.83-1.15v-.57l0-1,0-1.7V55.67a16.58,16.58,0,0,0-.08-1.69c0-.22,0-.46,0-.55,0-.26.08-.37.29-.37l.41,0s0,0,0,0a8.69,8.69,0,0,1-1.41-2.07h-2.73a10.31,10.31,0,0,1-1.26,1.87c1.2.36,1.45.49,1.45.75s-.27.46-.7.68c-.11,0-.15.07-.17.11a13,13,0,0,0-.41,2.38,7.59,7.59,0,0,1-2.21,3.59A5.93,5.93,0,0,1,226.36,62c-.24,0-.39,0-.39-.15s.06-.11.31-.27a8,8,0,0,0,4.16-7.17,12.45,12.45,0,0,1-3.1,2.11,5.76,5.76,0,0,1-2.07.68c-.25,0-.35-.06-.35-.17s.1-.2.33-.31a16.07,16.07,0,0,0,2.52-1.85,13.21,13.21,0,0,0,3.1-3.81h-1.63v.6a1.18,1.18,0,0,1-1.16,1.3.74.74,0,0,1-.79-.77V52l0-1.16c0-2.47.06-4.18.06-5.19a16.92,16.92,0,0,0-.11-2.25c0-.24,0-.46,0-.61s.06-.29.19-.29a8.14,8.14,0,0,1,2.27.79h9.08L239,43c.39-.5.62-.68.87-.68a4,4,0,0,1,1.94,1.72c0,.17-.16.35-.58.57a2,2,0,0,0-.25.13c0,1.59,0,4.73.07,6.14v.31a1.12,1.12,0,0,1-1.16,1.14c-.58,0-.79-.26-.79-1V51h-2.48ZM229.36,44a.27.27,0,0,0-.12.2s0,.41,0,1.47v1.23h4.13V44Zm-.14,3.92v2.53h4.13V47.51h-4.13Zm6-3.92v2.9h3.89V44Zm3.87,6.45V49.18l0-.44V47.51h-3.89v2.91Z"/><path class="cls-1" d="M250.87,54.07c.18,0,.37.15.37.26a1.52,1.52,0,0,1-.06.27,16.24,16.24,0,0,0-.67,3.39,7.38,7.38,0,0,0,.15,1.34,3.33,3.33,0,0,1,.06.46c0,.35-.45.7-.89.7-.23,0-.37-.08-.64-.37a6,6,0,0,1-1.61-4.53,17.92,17.92,0,0,1,.47-3.88,20.26,20.26,0,0,0,.42-3.76,5.44,5.44,0,0,0-.6-2.77,1,1,0,0,1-.13-.31c0-.11.27-.33.4-.33a3.81,3.81,0,0,1,1.28,1.06,3.88,3.88,0,0,1,.83,2.48,7.9,7.9,0,0,1-.52,2.6,14.86,14.86,0,0,0-1,4.4c0,1,.22,1.7.55,1.7s.48-.29,1.1-1.81c.29-.7.39-.9.47-.9Zm8.39,5.06a7.25,7.25,0,0,1-.89,0,8.29,8.29,0,0,1-3.6-.72,2.55,2.55,0,0,1-1.36-2.16c0-.62.16-1.32.33-1.32a.81.81,0,0,1,.39.13,1.25,1.25,0,0,0,0,.24c0,1.44,1,2,3.29,2a18.28,18.28,0,0,0,2.61-.2,6.47,6.47,0,0,1,.7-.06c.7,0,1,.26,1,1s-.35.86-1.49,1a6.94,6.94,0,0,1-.87.09ZM254.63,46.5a3.18,3.18,0,0,0,2,.48,12.35,12.35,0,0,0,2.71-.28,3.91,3.91,0,0,1,.93-.13c.66,0,1,.33,1,1s-.78,1-2.95,1c-1.8,0-3-.36-3.7-1.08a1.92,1.92,0,0,1-.42-.77c0-.07.27-.27.35-.27A.33.33,0,0,1,254.63,46.5Z"/><path class="cls-1" d="M272.64,59.53a2.83,2.83,0,1,1-2.83-3A2.91,2.91,0,0,1,272.64,59.53Zm-4.84,0a2.09,2.09,0,0,0,2,2.18,2.07,2.07,0,0,0,2-2.15,2,2,0,1,0-4,0Z"/><path class="cls-1" d="M285.86,50.61h3.45V62h-9.49V58.47h6Zm-5,10.3h7.38V51.74h-1.34v7.85h-6Z"/></g></g></svg>