<svg xmlns="http://www.w3.org/2000/svg" viewBox="0 0 665.25 149.73"><defs><style>.cls-1{fill:#fff;}.cls-2{fill:none;stroke:#fff;stroke-miterlimit:10;stroke-width:2px;}</style></defs><g id="レイヤー_2" data-name="レイヤー 2"><g id="テキスト"><path class="cls-1" d="M18.49,4.87H51.35V6.25H19.93V29.6H49.29V31H19.93v26.2H18.49Z"/><path class="cls-1" d="M103.52,57.19h-1.3c-.21-1.39-.14-9.42-.14-12.63-2.75,8.17-8.92,13.65-20.92,13.65C65.59,58.21,57,45.88,57,31.43,57,15.45,67,3.85,81.64,3.85c11.52,0,19.27,5.4,22.15,15.25h-1.51C99.4,9.76,91.58,5.23,81.5,5.23c-13.85,0-23,11.17-23,26.2,0,13.57,8.3,25.39,22.77,25.39,12.48,0,20.85-6.64,20.85-20.94V32.3H81.36V30.92h22.16Z"/><path class="cls-1" d="M162.07,30.55c0,15.47-9.32,27.66-24.89,27.66-14.61,0-24.69-11.9-24.69-27.22,0-14.67,10.21-27.14,25-27.14C151.58,3.85,162.07,15.59,162.07,30.55ZM114,30.92c0,13.71,9.06,25.9,23.26,25.9,13.64,0,23.32-10.73,23.32-26.12C160.57,17,151,5.23,137.38,5.23,124.42,5.23,114,16.4,114,30.92Z"/><path class="cls-1" d="M219.75,8.73H196.09c-.76,7.45-1.86,17.88-2.82,22.41,2.47-3.58,6.31-6.57,13.52-6.57,8.84,0,15.43,6.2,15.43,15.91,0,10.94-6.38,17.73-16.19,17.73-8.71,0-14.33-5.11-16-12.7h1.44c1.85,6.57,6.59,11.31,14.61,11.31,8.5,0,14.61-5.84,14.61-16.27,0-6.35-3.57-14.59-13.92-14.59-8.51,0-11.87,4.3-13.86,8.17l-1.37-.44c1.16-6.49,3-22,3.22-26.34H220Z"/><path class="cls-1" d="M225.12,20.56H232V8.3h1.45V20.56h9.12v1.38h-9.12V48.5c0,5,.89,8,5.62,8a9.29,9.29,0,0,0,3.15-.51v1.31a7.76,7.76,0,0,1-3.15.58c-5.08,0-7.07-2.4-7.07-9.7V21.94h-6.85Z"/><path class="cls-1" d="M250.48,1V30.55c1.79-5.84,6.79-11,14.68-11,7.07,0,13.79,4.16,13.79,16.06v21.6h-1.44V35.88c0-8.17-3.5-14.89-12.42-14.89s-14.61,7-14.61,16.86V57.19H249V1Z"/><path class="cls-1" d="M306.29,36.46l-8.44,20.73h-1.51L317.81,4.87h1.31l21.26,52.32H338.8l-8.44-20.73Zm23.53-1.38C322.68,17.34,319.25,9.25,318.5,6.69h-.07c-.55,1.75-5.69,14.08-11.52,28.39Z"/><path class="cls-1" d="M347.82,31.94c0-7.15-.07-9.93-.07-11.38h1.37c.07,1.16.21,6.78.14,9.77,1.37-3.72,4.93-10.8,14.81-10.8,7.89,0,13.58,5.33,13.58,15.91V57.19h-1.44V35.73c0-8.83-4.39-14.74-12.34-14.74-9.95,0-14.61,8.47-14.61,16.57V57.19h-1.44Z"/><path class="cls-1" d="M382.93,31.94c0-7.15-.07-9.93-.07-11.38h1.37c.07,1.16.21,6.78.14,9.77,1.37-3.72,4.94-10.8,14.81-10.8,7.89,0,13.59,5.33,13.59,15.91V57.19h-1.44V35.73C411.33,26.9,406.94,21,399,21c-10,0-14.61,8.47-14.61,16.57V57.19h-1.44Z"/><path class="cls-1" d="M423.64,1h1.44V8h-1.44Zm0,19.56h1.44V57.19h-1.44Z"/><path class="cls-1" d="M433.41,20.56c9.74,21.81,14.13,31.74,15.3,34.44h.06c1.1-2.56,5.7-12.55,15.51-34.44h1.57L449.32,57.19h-1.23L431.76,20.56Z"/><path class="cls-1" d="M470.62,38.8c.14,11.53,6.59,18,15.3,18,7.41,0,11.93-3.94,14-8.76h1.58c-2.2,5.62-7.34,10.15-15.57,10.15-12.21,0-16.81-10.36-16.81-19.27,0-11.31,6.52-19.41,16.81-19.41,12.89,0,16.25,10.66,16.25,17.74V38.8Zm30.11-1.39c-.27-9-4.52-16.49-15-16.49-9.12,0-14.75,7.37-15.09,16.49Z"/><path class="cls-1" d="M510.86,33c0-5.62,0-9.77-.07-12.47h1.37c.07,1.82.21,8,.14,10.79,1.65-5.61,6.93-11.6,14.33-11.82v1.61c-7.75.15-14.33,7.66-14.33,16.34V57.19h-1.44Z"/><path class="cls-1" d="M531.12,47.41c1.31,6.2,6,9.41,12.83,9.41,7.2,0,11.87-3.14,11.87-9,0-3.65-.76-7.45-11.39-9.42-11.59-2.11-13-5.32-13-9.7,0-3.94,3-9.2,11.93-9.2,9.74,0,12.48,5.84,13,9.85h-1.45c-.68-3.72-2.88-8.46-11.59-8.46-8,0-10.35,4.45-10.35,7.73,0,5.19,2.88,6.72,11.93,8.47,10.43,2,12.42,5.69,12.42,10.65,0,6.5-5.15,10.44-13.38,10.44-8.64,0-13.44-4.82-14.27-10.8Z"/><path class="cls-1" d="M592.62,49.09a67.51,67.51,0,0,0,.41,8.1h-1.37a46.28,46.28,0,0,1-.48-8c-1.92,5.62-6.38,9-15,9C566.55,58.21,563.4,52,563.4,47c0-9,8-11.6,17.76-11.6,6.18,0,8.1,0,10,.07V31.87c0-5.7-2.68-10.95-11.87-10.95-8.5,0-11.52,4.23-12.48,9.85h-1.44c.82-5.91,4.25-11.24,14.06-11.24s13.17,5.62,13.17,12.12ZM591.18,36.9c-2.68-.07-5.83-.07-10.09-.07-6.79,0-16.18,1.09-16.18,10.21,0,5.84,4.52,9.71,11.31,9.71,11,0,15-5.84,15-14.74Z"/><path class="cls-1" d="M603.42,33c0-5.62,0-9.77-.07-12.47h1.38c.07,1.82.2,8,.13,10.79,1.65-5.61,6.93-11.6,14.34-11.82v1.61c-7.75.15-14.34,7.66-14.34,16.34V57.19h-1.44Z"/><path class="cls-1" d="M624.87,20.56C635,43,639.55,53,640.58,55.29h.06c1-2.56,5.56-13,15-34.73h1.58L641,58.13c-4.87,11.17-6.93,16.42-14.27,16.42a15.37,15.37,0,0,1-4-.51l.28-1.6a15.84,15.84,0,0,0,3.77.51c5.55,0,7.68-3,13-15.76L623.22,20.56Z"/><path class="cls-1" d="M6.12,75.18A55.39,55.39,0,0,0,2.55,93.42H1a53.26,53.26,0,0,1,3.7-18.24Zm9.26,0a55.39,55.39,0,0,0-3.57,18.24H10.3A53.26,53.26,0,0,1,14,75.18Z"/><path class="cls-1" d="M52,120.05c0,3.65.07,9.78.07,11.31H50.63c-.07-1.31-.14-7.22-.07-10.51-2.26,7.74-6.65,11.39-14.4,11.39-6.59,0-13.65-3.21-13.65-15.11V94.73H24v22.55c0,7.29,3.36,13.5,12.28,13.5,10.35,0,14.33-8.18,14.33-18.61V94.73H52Z"/><path class="cls-1" d="M62.94,106.11c0-7.15-.07-9.92-.07-11.38h1.37c.07,1.17.21,6.79.14,9.78,1.37-3.72,4.94-10.8,14.81-10.8,7.89,0,13.58,5.33,13.58,15.91v21.74H91.33V109.91c0-8.83-4.39-14.74-12.34-14.74-9.95,0-14.61,8.46-14.61,16.56v19.63H62.94Z"/><path class="cls-1" d="M135.5,75.18v46.55c0,2.55.07,8.1.07,9.63H134.2c-.07-1.9-.14-7-.07-10.21-1.79,5.32-5.15,11.23-15.5,11.23s-16.95-7.88-16.95-19.11c0-12.56,8.58-19.56,17.63-19.56,9.67,0,13.45,6.06,14.75,9.92V75.18Zm-32.31,38c0,10.14,6,17.73,15.44,17.73,9.12,0,15.5-5.32,15.5-18.6,0-12.77-6.86-17.15-15-17.15C109,95.17,103.19,103.93,103.19,113.19Z"/><path class="cls-1" d="M146.08,113c.13,11.53,6.58,18,15.29,18,7.41,0,11.94-3.94,14-8.76h1.57c-2.19,5.62-7.34,10.14-15.57,10.14-12.21,0-16.8-10.36-16.8-19.26,0-11.31,6.51-19.41,16.8-19.41,12.9,0,16.26,10.65,16.26,17.73V113Zm30.11-1.38c-.28-9-4.53-16.49-14.95-16.49-9.13,0-14.75,7.37-15.09,16.49Z"/><path class="cls-1" d="M186.31,107.21c0-5.62,0-9.78-.06-12.48h1.37c.07,1.83.2,8,.13,10.8,1.65-5.62,6.93-11.6,14.34-11.82v1.6c-7.75.15-14.34,7.67-14.34,16.35v19.7h-1.44Z"/><path class="cls-1" d="M221.49,94.73h6.86V82.47h1.44V94.73h9.13v1.39h-9.13v26.56c0,5,.89,8,5.63,8a9.09,9.09,0,0,0,3.15-.51v1.32a7.93,7.93,0,0,1-3.15.58c-5.08,0-7.07-2.41-7.07-9.7V96.12h-6.86Z"/><path class="cls-1" d="M246.86,75.18v29.55c1.79-5.84,6.79-11,14.68-11,7.07,0,13.79,4.16,13.79,16.05v21.6h-1.44V110.05c0-8.17-3.5-14.88-12.42-14.88s-14.61,7-14.61,16.85v19.34h-1.44V75.18Z"/><path class="cls-1" d="M285.89,113c.13,11.53,6.58,18,15.29,18,7.41,0,11.94-3.94,14-8.76h1.58c-2.19,5.62-7.34,10.14-15.57,10.14-12.21,0-16.8-10.36-16.8-19.26,0-11.31,6.51-19.41,16.8-19.41,12.9,0,16.26,10.65,16.26,17.73V113ZM316,111.59c-.28-9-4.53-16.49-15-16.49-9.12,0-14.74,7.37-15.09,16.49Z"/><path class="cls-1" d="M345.07,121.58c1.3,6.21,6,9.42,12.83,9.42,7.2,0,11.86-3.14,11.86-9,0-3.65-.75-7.44-11.38-9.41-11.59-2.12-13-5.33-13-9.71,0-3.94,3-9.19,11.94-9.19,9.74,0,12.48,5.84,13,9.85h-1.44c-.68-3.72-2.88-8.46-11.59-8.46-8,0-10.36,4.45-10.36,7.73,0,5.18,2.88,6.71,11.94,8.46,10.42,2,12.41,5.7,12.41,10.66,0,6.49-5.14,10.43-13.37,10.43-8.64,0-13.45-4.81-14.27-10.8Z"/><path class="cls-1" d="M406.56,123.26a66.51,66.51,0,0,0,.42,8.1H405.6a48.26,48.26,0,0,1-.48-8c-1.92,5.62-6.37,9-14.95,9-9.67,0-12.82-6.2-12.82-11.16,0-9,8-11.6,17.76-11.6,6.17,0,8.09,0,10,.07V106c0-5.69-2.67-10.94-11.86-10.94-8.51,0-11.52,4.23-12.48,9.85h-1.45c.83-5.91,4.26-11.24,14.07-11.24s13.16,5.62,13.16,12.11Zm-1.44-12.18c-2.67-.08-5.83-.08-10.08-.08-6.79,0-16.19,1.1-16.19,10.22,0,5.84,4.53,9.7,11.32,9.7,11,0,14.95-5.83,14.95-14.74Z"/><path class="cls-1" d="M417.37,106.84c0-5.54,0-10.21-.07-12.11h1.37c.14,2.12.21,7.37.14,9,1.65-4.89,5.42-10,12.76-10,6.51,0,10.35,3.72,11.73,9.34,1.78-4.89,5.9-9.27,12.75-9.34,6.45-.07,12.21,3.36,12.21,14.37v23.28h-1.44V108.45c0-6.79-2.4-13.28-10.77-13.28-7.47,0-12.48,6-12.48,15v21.23h-1.44V106.84c0-4.89-2.4-11.6-10.7-11.6s-12.62,7.74-12.62,15.91v20.21h-1.44Z"/><path class="cls-1" d="M478.87,113c.14,11.53,6.59,18,15.3,18,7.41,0,11.93-3.94,14-8.76h1.58c-2.2,5.62-7.34,10.14-15.57,10.14-12.21,0-16.8-10.36-16.8-19.26,0-11.31,6.51-19.41,16.8-19.41,12.89,0,16.26,10.65,16.26,17.73V113ZM509,111.59c-.27-9-4.52-16.49-15-16.49-9.12,0-14.74,7.37-15.09,16.49Z"/><path class="cls-1" d="M538.47,121.58c1.3,6.21,6,9.42,12.83,9.42,7.2,0,11.86-3.14,11.86-9,0-3.65-.75-7.44-11.38-9.41-11.59-2.12-13-5.33-13-9.71,0-3.94,3-9.19,11.94-9.19,9.74,0,12.48,5.84,13,9.85h-1.44c-.68-3.72-2.88-8.46-11.59-8.46-8,0-10.36,4.45-10.36,7.73,0,5.18,2.88,6.71,11.94,8.46,10.42,2,12.41,5.7,12.41,10.66,0,6.49-5.14,10.43-13.37,10.43-8.64,0-13.45-4.81-14.27-10.8Z"/><path class="cls-1" d="M574.49,114.72c3.22-2.62,18.11-15.1,24-20h2.26L583,109.4l20,22H601L581.9,110.27l-7.41,6.13v15h-1.44V75.18h1.44Z"/><path class="cls-1" d="M608.73,94.73c10.15,22.48,14.67,32.47,15.7,34.73h.07c1-2.55,5.56-13,15-34.73h1.58l-16.25,37.58c-4.88,11.16-6.93,16.42-14.27,16.42a15.37,15.37,0,0,1-4-.51l.27-1.61a15.5,15.5,0,0,0,3.78.51c5.55,0,7.68-3,13-15.76L607.08,94.73Z"/><path class="cls-1" d="M649.88,93.42a55.44,55.44,0,0,0,3.56-18.24H655a53.14,53.14,0,0,1-3.7,18.24Zm9.25,0a55.19,55.19,0,0,0,3.57-18.24h1.51a53.14,53.14,0,0,1-3.7,18.24Z"/><path class="cls-2" d="M18.49,4.87H51.35V6.25H19.93V29.6H49.29V31H19.93v26.2H18.49Z"/><path class="cls-2" d="M103.52,57.19h-1.3c-.21-1.39-.14-9.42-.14-12.63-2.75,8.17-8.92,13.65-20.92,13.65C65.59,58.21,57,45.88,57,31.43,57,15.45,67,3.85,81.64,3.85c11.52,0,19.27,5.4,22.15,15.25h-1.51C99.4,9.76,91.58,5.23,81.5,5.23c-13.85,0-23,11.17-23,26.2,0,13.57,8.3,25.39,22.77,25.39,12.48,0,20.85-6.64,20.85-20.94V32.3H81.36V30.92h22.16Z"/><path class="cls-2" d="M162.07,30.55c0,15.47-9.32,27.66-24.89,27.66-14.61,0-24.69-11.9-24.69-27.22,0-14.67,10.21-27.14,25-27.14C151.58,3.85,162.07,15.59,162.07,30.55ZM114,30.92c0,13.71,9.06,25.9,23.26,25.9,13.64,0,23.32-10.73,23.32-26.12C160.57,17,151,5.23,137.38,5.23,124.42,5.23,114,16.4,114,30.92Z"/><path class="cls-2" d="M219.75,8.73H196.09c-.76,7.45-1.86,17.88-2.82,22.41,2.47-3.58,6.31-6.57,13.52-6.57,8.84,0,15.43,6.2,15.43,15.91,0,10.94-6.38,17.73-16.19,17.73-8.71,0-14.33-5.11-16-12.7h1.44c1.85,6.57,6.59,11.31,14.61,11.31,8.5,0,14.61-5.84,14.61-16.27,0-6.35-3.57-14.59-13.92-14.59-8.51,0-11.87,4.3-13.86,8.17l-1.37-.44c1.16-6.49,3-22,3.22-26.34H220Z"/><path class="cls-2" d="M225.12,20.56H232V8.3h1.45V20.56h9.12v1.38h-9.12V48.5c0,5,.89,8,5.62,8a9.29,9.29,0,0,0,3.15-.51v1.31a7.76,7.76,0,0,1-3.15.58c-5.08,0-7.07-2.4-7.07-9.7V21.94h-6.85Z"/><path class="cls-2" d="M250.48,1V30.55c1.79-5.84,6.79-11,14.68-11,7.07,0,13.79,4.16,13.79,16.06v21.6h-1.44V35.88c0-8.17-3.5-14.89-12.42-14.89s-14.61,7-14.61,16.86V57.19H249V1Z"/><path class="cls-2" d="M306.29,36.46l-8.44,20.73h-1.51L317.81,4.87h1.31l21.26,52.32H338.8l-8.44-20.73Zm23.53-1.38C322.68,17.34,319.25,9.25,318.5,6.69h-.07c-.55,1.75-5.69,14.08-11.52,28.39Z"/><path class="cls-2" d="M347.82,31.94c0-7.15-.07-9.93-.07-11.38h1.37c.07,1.16.21,6.78.14,9.77,1.37-3.72,4.93-10.8,14.81-10.8,7.89,0,13.58,5.33,13.58,15.91V57.19h-1.44V35.73c0-8.83-4.39-14.74-12.34-14.74-9.95,0-14.61,8.47-14.61,16.57V57.19h-1.44Z"/><path class="cls-2" d="M382.93,31.94c0-7.15-.07-9.93-.07-11.38h1.37c.07,1.16.21,6.78.14,9.77,1.37-3.72,4.94-10.8,14.81-10.8,7.89,0,13.59,5.33,13.59,15.91V57.19h-1.44V35.73C411.33,26.9,406.94,21,399,21c-10,0-14.61,8.47-14.61,16.57V57.19h-1.44Z"/><path class="cls-2" d="M423.64,1h1.44V8h-1.44Zm0,19.56h1.44V57.19h-1.44Z"/><path class="cls-2" d="M433.41,20.56c9.74,21.81,14.13,31.74,15.3,34.44h.06c1.1-2.56,5.7-12.55,15.51-34.44h1.57L449.32,57.19h-1.23L431.76,20.56Z"/><path class="cls-2" d="M470.62,38.8c.14,11.53,6.59,18,15.3,18,7.41,0,11.93-3.94,14-8.76h1.58c-2.2,5.62-7.34,10.15-15.57,10.15-12.21,0-16.81-10.36-16.81-19.27,0-11.31,6.52-19.41,16.81-19.41,12.89,0,16.25,10.66,16.25,17.74V38.8Zm30.11-1.39c-.27-9-4.52-16.49-15-16.49-9.12,0-14.75,7.37-15.09,16.49Z"/><path class="cls-2" d="M510.86,33c0-5.62,0-9.77-.07-12.47h1.37c.07,1.82.21,8,.14,10.79,1.65-5.61,6.93-11.6,14.33-11.82v1.61c-7.75.15-14.33,7.66-14.33,16.34V57.19h-1.44Z"/><path class="cls-2" d="M531.12,47.41c1.31,6.2,6,9.41,12.83,9.41,7.2,0,11.87-3.14,11.87-9,0-3.65-.76-7.45-11.39-9.42-11.59-2.11-13-5.32-13-9.7,0-3.94,3-9.2,11.93-9.2,9.74,0,12.48,5.84,13,9.85h-1.45c-.68-3.72-2.88-8.46-11.59-8.46-8,0-10.35,4.45-10.35,7.73,0,5.19,2.88,6.72,11.93,8.47,10.43,2,12.42,5.69,12.42,10.65,0,6.5-5.15,10.44-13.38,10.44-8.64,0-13.44-4.82-14.27-10.8Z"/><path class="cls-2" d="M592.62,49.09a67.51,67.51,0,0,0,.41,8.1h-1.37a46.28,46.28,0,0,1-.48-8c-1.92,5.62-6.38,9-15,9C566.55,58.21,563.4,52,563.4,47c0-9,8-11.6,17.76-11.6,6.18,0,8.1,0,10,.07V31.87c0-5.7-2.68-10.95-11.87-10.95-8.5,0-11.52,4.23-12.48,9.85h-1.44c.82-5.91,4.25-11.24,14.06-11.24s13.17,5.62,13.17,12.12ZM591.18,36.9c-2.68-.07-5.83-.07-10.09-.07-6.79,0-16.18,1.09-16.18,10.21,0,5.84,4.52,9.71,11.31,9.71,11,0,15-5.84,15-14.74Z"/><path class="cls-2" d="M603.42,33c0-5.62,0-9.77-.07-12.47h1.38c.07,1.82.2,8,.13,10.79,1.65-5.61,6.93-11.6,14.34-11.82v1.61c-7.75.15-14.34,7.66-14.34,16.34V57.19h-1.44Z"/><path class="cls-2" d="M624.87,20.56C635,43,639.55,53,640.58,55.29h.06c1-2.56,5.56-13,15-34.73h1.58L641,58.13c-4.87,11.17-6.93,16.42-14.27,16.42a15.37,15.37,0,0,1-4-.51l.28-1.6a15.84,15.84,0,0,0,3.77.51c5.55,0,7.68-3,13-15.76L623.22,20.56Z"/><path class="cls-2" d="M6.12,75.18A55.39,55.39,0,0,0,2.55,93.42H1a53.26,53.26,0,0,1,3.7-18.24Zm9.26,0a55.39,55.39,0,0,0-3.57,18.24H10.3A53.26,53.26,0,0,1,14,75.18Z"/><path class="cls-2" d="M52,120.05c0,3.65.07,9.78.07,11.31H50.63c-.07-1.31-.14-7.22-.07-10.51-2.26,7.74-6.65,11.39-14.4,11.39-6.59,0-13.65-3.21-13.65-15.11V94.73H24v22.55c0,7.29,3.36,13.5,12.28,13.5,10.35,0,14.33-8.18,14.33-18.61V94.73H52Z"/><path class="cls-2" d="M62.94,106.11c0-7.15-.07-9.92-.07-11.38h1.37c.07,1.17.21,6.79.14,9.78,1.37-3.72,4.94-10.8,14.81-10.8,7.89,0,13.58,5.33,13.58,15.91v21.74H91.33V109.91c0-8.83-4.39-14.74-12.34-14.74-9.95,0-14.61,8.46-14.61,16.56v19.63H62.94Z"/><path class="cls-2" d="M135.5,75.18v46.55c0,2.55.07,8.1.07,9.63H134.2c-.07-1.9-.14-7-.07-10.21-1.79,5.32-5.15,11.23-15.5,11.23s-16.95-7.88-16.95-19.11c0-12.56,8.58-19.56,17.63-19.56,9.67,0,13.45,6.06,14.75,9.92V75.18Zm-32.31,38c0,10.14,6,17.73,15.44,17.73,9.12,0,15.5-5.32,15.5-18.6,0-12.77-6.86-17.15-15-17.15C109,95.17,103.19,103.93,103.19,113.19Z"/><path class="cls-2" d="M146.08,113c.13,11.53,6.58,18,15.29,18,7.41,0,11.94-3.94,14-8.76h1.57c-2.19,5.62-7.34,10.14-15.57,10.14-12.21,0-16.8-10.36-16.8-19.26,0-11.31,6.51-19.41,16.8-19.41,12.9,0,16.26,10.65,16.26,17.73V113Zm30.11-1.38c-.28-9-4.53-16.49-14.95-16.49-9.13,0-14.75,7.37-15.09,16.49Z"/><path class="cls-2" d="M186.31,107.21c0-5.62,0-9.78-.06-12.48h1.37c.07,1.83.2,8,.13,10.8,1.65-5.62,6.93-11.6,14.34-11.82v1.6c-7.75.15-14.34,7.67-14.34,16.35v19.7h-1.44Z"/><path class="cls-2" d="M221.49,94.73h6.86V82.47h1.44V94.73h9.13v1.39h-9.13v26.56c0,5,.89,8,5.63,8a9.09,9.09,0,0,0,3.15-.51v1.32a7.93,7.93,0,0,1-3.15.58c-5.08,0-7.07-2.41-7.07-9.7V96.12h-6.86Z"/><path class="cls-2" d="M246.86,75.18v29.55c1.79-5.84,6.79-11,14.68-11,7.07,0,13.79,4.16,13.79,16.05v21.6h-1.44V110.05c0-8.17-3.5-14.88-12.42-14.88s-14.61,7-14.61,16.85v19.34h-1.44V75.18Z"/><path class="cls-2" d="M285.89,113c.13,11.53,6.58,18,15.29,18,7.41,0,11.94-3.94,14-8.76h1.58c-2.19,5.62-7.34,10.14-15.57,10.14-12.21,0-16.8-10.36-16.8-19.26,0-11.31,6.51-19.41,16.8-19.41,12.9,0,16.26,10.65,16.26,17.73V113ZM316,111.59c-.28-9-4.53-16.49-15-16.49-9.12,0-14.74,7.37-15.09,16.49Z"/><path class="cls-2" d="M345.07,121.58c1.3,6.21,6,9.42,12.83,9.42,7.2,0,11.86-3.14,11.86-9,0-3.65-.75-7.44-11.38-9.41-11.59-2.12-13-5.33-13-9.71,0-3.94,3-9.19,11.94-9.19,9.74,0,12.48,5.84,13,9.85h-1.44c-.68-3.72-2.88-8.46-11.59-8.46-8,0-10.36,4.45-10.36,7.73,0,5.18,2.88,6.71,11.94,8.46,10.42,2,12.41,5.7,12.41,10.66,0,6.49-5.14,10.43-13.37,10.43-8.64,0-13.45-4.81-14.27-10.8Z"/><path class="cls-2" d="M406.56,123.26a66.51,66.51,0,0,0,.42,8.1H405.6a48.26,48.26,0,0,1-.48-8c-1.92,5.62-6.37,9-14.95,9-9.67,0-12.82-6.2-12.82-11.16,0-9,8-11.6,17.76-11.6,6.17,0,8.09,0,10,.07V106c0-5.69-2.67-10.94-11.86-10.94-8.51,0-11.52,4.23-12.48,9.85h-1.45c.83-5.91,4.26-11.24,14.07-11.24s13.16,5.62,13.16,12.11Zm-1.44-12.18c-2.67-.08-5.83-.08-10.08-.08-6.79,0-16.19,1.1-16.19,10.22,0,5.84,4.53,9.7,11.32,9.7,11,0,14.95-5.83,14.95-14.74Z"/><path class="cls-2" d="M417.37,106.84c0-5.54,0-10.21-.07-12.11h1.37c.14,2.12.21,7.37.14,9,1.65-4.89,5.42-10,12.76-10,6.51,0,10.35,3.72,11.73,9.34,1.78-4.89,5.9-9.27,12.75-9.34,6.45-.07,12.21,3.36,12.21,14.37v23.28h-1.44V108.45c0-6.79-2.4-13.28-10.77-13.28-7.47,0-12.48,6-12.48,15v21.23h-1.44V106.84c0-4.89-2.4-11.6-10.7-11.6s-12.62,7.74-12.62,15.91v20.21h-1.44Z"/><path class="cls-2" d="M478.87,113c.14,11.53,6.59,18,15.3,18,7.41,0,11.93-3.94,14-8.76h1.58c-2.2,5.62-7.34,10.14-15.57,10.14-12.21,0-16.8-10.36-16.8-19.26,0-11.31,6.51-19.41,16.8-19.41,12.89,0,16.26,10.65,16.26,17.73V113ZM509,111.59c-.27-9-4.52-16.49-15-16.49-9.12,0-14.74,7.37-15.09,16.49Z"/><path class="cls-2" d="M538.47,121.58c1.3,6.21,6,9.42,12.83,9.42,7.2,0,11.86-3.14,11.86-9,0-3.65-.75-7.44-11.38-9.41-11.59-2.12-13-5.33-13-9.71,0-3.94,3-9.19,11.94-9.19,9.74,0,12.48,5.84,13,9.85h-1.44c-.68-3.72-2.88-8.46-11.59-8.46-8,0-10.36,4.45-10.36,7.73,0,5.18,2.88,6.71,11.94,8.46,10.42,2,12.41,5.7,12.41,10.66,0,6.49-5.14,10.43-13.37,10.43-8.64,0-13.45-4.81-14.27-10.8Z"/><path class="cls-2" d="M574.49,114.72c3.22-2.62,18.11-15.1,24-20h2.26L583,109.4l20,22H601L581.9,110.27l-7.41,6.13v15h-1.44V75.18h1.44Z"/><path class="cls-2" d="M608.73,94.73c10.15,22.48,14.67,32.47,15.7,34.73h.07c1-2.55,5.56-13,15-34.73h1.58l-16.25,37.58c-4.88,11.16-6.93,16.42-14.27,16.42a15.37,15.37,0,0,1-4-.51l.27-1.61a15.5,15.5,0,0,0,3.78.51c5.55,0,7.68-3,13-15.76L607.08,94.73Z"/><path class="cls-2" d="M649.88,93.42a55.44,55.44,0,0,0,3.56-18.24H655a53.14,53.14,0,0,1-3.7,18.24Zm9.25,0a55.19,55.19,0,0,0,3.57-18.24h1.51a53.14,53.14,0,0,1-3.7,18.24Z"/></g></g></svg>