<svg xmlns="http://www.w3.org/2000/svg" viewBox="0 0 728.74 597.99"><defs><style>.cls-1{fill:#fff;}.cls-2{fill:none;stroke:#fff;stroke-miterlimit:10;stroke-width:0.75px;}</style></defs><g id="レイヤー_2" data-name="レイヤー 2"><g id="テキスト"><path class="cls-1" d="M5.69,8.54H75v2.92H8.73V60.75h62v2.92h-62V119h-3Z"/><path class="cls-1" d="M180.66,119h-2.75c-.43-2.93-.29-19.87-.29-26.64-5.79,17.25-18.82,28.8-44.15,28.8-32.86,0-51.1-26-51.1-56.52,0-33.73,21.28-58.22,52.11-58.22,24.32,0,40.68,11.4,46.76,32.19h-3.18C172,18.86,155.47,9.31,134.19,9.31,105,9.31,85.55,32.87,85.55,64.6c0,28.64,17.52,53.59,48.06,53.59,26.35,0,44-14,44-44.2V66.44H133.9V63.52h46.76Z"/><path class="cls-1" d="M299.76,62.75c0,32.65-19.69,58.37-52.55,58.37-30.84,0-52.12-25.11-52.12-57.45,0-30.95,21.57-57.29,52.7-57.29C277.61,6.38,299.76,31.18,299.76,62.75Zm-101.48.77c0,28.95,19.11,54.67,49.07,54.67,28.81,0,49.22-22.64,49.22-55.13,0-29-20.12-53.75-48.93-53.75C220.28,9.31,198.28,32.87,198.28,63.52Z"/><path class="cls-1" d="M412.81,16.7H362.87C361.27,32.41,359,54.43,356.93,64c5.21-7.55,13.32-13.86,28.52-13.86,18.67,0,32.57,13.09,32.57,33.57,0,23.1-13.46,37.43-34.16,37.43-18.39,0-30.26-10.78-33.73-26.8h3c3.91,13.86,13.89,23.87,30.83,23.87,17.95,0,30.84-12.32,30.84-34.34,0-13.4-7.53-30.8-29.39-30.8-17.95,0-25,9.08-29.24,17.24l-2.9-.92c2.46-13.71,6.37-46.51,6.81-55.6h53.27Z"/><path class="cls-1" d="M419.66,41.65h14.47V15.78h3V41.65h19.25v2.93H437.17v56.05c0,10.63,1.88,16.94,11.87,16.94a19.49,19.49,0,0,0,6.66-1.07v2.77A16.58,16.58,0,0,1,449,120.5c-10.71,0-14.91-5.08-14.91-20.48V44.58H419.66Z"/><path class="cls-1" d="M468.73.38V62.75c3.76-12.32,14.33-23.26,31-23.26,14.91,0,29.09,8.78,29.09,33.88V119h-3V74c0-17.25-7.38-31.42-26.2-31.42-18.53,0-30.83,14.79-30.83,35.58V119h-3V.38Z"/><path class="cls-1" d="M21.55,183.46,3.74,227.19H.56L45.87,116.77h2.75L93.5,227.19H90.17L72.36,183.46Zm49.65-2.93C56.15,143.11,48.91,126,47.32,120.62h-.15c-1.16,3.7-12,29.72-24.32,59.91Z"/><path class="cls-1" d="M104.71,173.91c0-15.09-.14-20.95-.14-24h2.89c.15,2.47.44,14.33.29,20.64,2.9-7.85,10.43-22.79,31.27-22.79,16.65,0,28.66,11.24,28.66,33.57v45.89h-3V181.92c0-18.64-9.26-31.11-26-31.11-21,0-30.84,17.86-30.84,35v41.42h-3Z"/><path class="cls-1" d="M180.28,173.91c0-15.09-.15-20.95-.15-24H183c.14,2.47.43,14.33.29,20.64,2.89-7.85,10.42-22.79,31.26-22.79,16.65,0,28.67,11.24,28.67,33.57v45.89h-3V181.92c0-18.64-9.27-31.11-26.06-31.11-21,0-30.83,17.86-30.83,35v41.42h-3Z"/><path class="cls-1" d="M282.47,149.88c20.56,46.05,29.82,67,32.28,72.69h.15c2.32-5.39,12-26.49,32.71-72.69h3.33l-34.88,77.31h-2.61L279,149.88Z"/><path class="cls-1" d="M356.55,188.38c.28,24.34,13.89,38,32.28,38,15.63,0,25.18-8.31,29.53-18.48h3.33c-4.64,11.86-15.49,21.41-32.86,21.41-25.77,0-35.47-21.87-35.47-40.66,0-23.87,13.75-41,35.47-41,27.21,0,34.3,22.48,34.3,37.42v3.23Zm63.54-2.92c-.57-18.94-9.55-34.81-31.55-34.81-19.26,0-31.13,15.56-31.85,34.81Z"/><path class="cls-1" d="M437,176.22c0-11.86,0-20.64-.15-26.34h2.9c.14,3.85.43,16.79.29,22.8,3.47-11.86,14.62-24.49,30.25-25v3.38c-16.36.31-30.25,16.18-30.25,34.5v41.58h-3Z"/><path class="cls-1" d="M475.33,206.56c2.75,13.09,12.6,19.86,27.07,19.86,15.2,0,25.05-6.62,25.05-18.94,0-7.7-1.6-15.71-24-19.87-24.47-4.46-27.36-11.24-27.36-20.48,0-8.31,6.37-19.4,25.18-19.4,20.56,0,26.35,12.32,27.36,20.79h-3c-1.44-7.86-6.08-17.87-24.46-17.87-16.79,0-21.86,9.4-21.86,16.33,0,10.93,6.08,14.17,25.19,17.86,22,4.31,26.2,12,26.2,22.49,0,13.7-10.86,22-28.23,22-18.24,0-28.37-10.16-30.11-22.79Z"/><path class="cls-1" d="M600.66,210.1a143,143,0,0,0,.87,17.09h-2.89c-.44-1.23-1.16-10.16-1-16.78-4,11.86-13.46,18.94-31.55,18.94-20.41,0-27.07-13.09-27.07-23.56,0-19.1,16.93-24.49,37.49-24.49,13,0,17.08,0,21.13.15v-7.7c0-12-5.64-23.1-25-23.1-18,0-24.32,8.94-26.35,20.79h-3c1.74-12.47,9-23.71,29.68-23.71s27.79,11.86,27.79,25.56Zm-3-25.72c-5.64-.15-12.3-.15-21.27-.15-14.34,0-34.17,2.31-34.17,21.56,0,12.32,9.56,20.48,23.89,20.48,23.3,0,31.55-12.32,31.55-31.11Z"/><path class="cls-1" d="M619,176.22c0-11.86,0-20.64-.15-26.34h2.9c.14,3.85.43,16.79.29,22.8,3.47-11.86,14.62-24.49,30.25-25v3.38c-16.36.31-30.25,16.18-30.25,34.5v41.58h-3Z"/><path class="cls-1" d="M659.84,149.88c21.42,47.44,31,68.54,33.15,73.31h.14c2.18-5.39,11.73-27.41,31.71-73.31h3.33L693.86,229.2c-10.28,23.56-14.62,34.65-30.11,34.65a32.57,32.57,0,0,1-8.4-1.08l.58-3.39a32.71,32.71,0,0,0,8,1.08c11.73,0,16.22-6.31,27.36-33.27l-34.88-77.31Z"/><path class="cls-1" d="M14.21,237.38c-4.64,11.55-7.1,25.41-7.53,38.5H3.49c.73-17.87,4.64-31,7.82-38.5Zm19.54,0c-4.63,11.55-7.09,25.41-7.53,38.5H23c.72-17.87,4.63-31,7.81-38.5Z"/><path class="cls-1" d="M103.81,323.09c0,7.7.15,20.64.15,23.87h-3c-.15-2.77-.29-15.25-.15-22.18-4.77,16.33-14,24-30.4,24-13.89,0-28.8-6.78-28.8-31.88V269.65h3v47.59c0,15.4,7.09,28.49,25.91,28.49,21.86,0,30.25-17.25,30.25-39.27V269.65h3Z"/><path class="cls-1" d="M122.41,293.67c0-15.09-.14-20.94-.14-24h2.89c.15,2.46.44,14.32.29,20.64,2.9-7.86,10.43-22.8,31.27-22.8,16.65,0,28.66,11.25,28.66,33.58V347h-3V301.68c0-18.63-9.26-31.11-26.05-31.11-21,0-30.84,17.87-30.84,35V347h-3Z"/><path class="cls-1" d="M271.11,228.38v98.25c0,5.39.14,17.1.14,20.33h-2.89c-.15-4-.29-14.78-.15-21.56-3.76,11.24-10.85,23.72-32.71,23.72-21.57,0-35.76-16.64-35.76-40.35,0-26.49,18.1-41.28,37.21-41.28,20.41,0,28.37,12.79,31.12,20.95V228.38Zm-68.18,80.23C202.93,330,215.52,346,235.5,346c19.25,0,32.71-11.25,32.71-39.28,0-26.95-14.47-36.19-31.55-36.19C215.09,270.57,202.93,289.05,202.93,308.61Z"/><path class="cls-1" d="M289,308.15c.29,24.33,13.89,38,32.28,38,15.63,0,25.19-8.32,29.53-18.48h3.33c-4.63,11.86-15.49,21.41-32.86,21.41-25.77,0-35.47-21.87-35.47-40.66,0-23.87,13.75-41,35.47-41,27.21,0,34.31,22.49,34.31,37.43v3.23Zm63.55-2.93c-.58-18.94-9.56-34.8-31.56-34.8-19.25,0-31.13,15.55-31.85,34.8Z"/><path class="cls-1" d="M369.46,296c0-11.85,0-20.63-.15-26.33h2.9c.14,3.85.43,16.79.29,22.79,3.47-11.86,14.62-24.48,30.25-24.95v3.39c-16.36.31-30.25,16.17-30.25,34.5V347h-3Z"/><path class="cls-1" d="M5.4,379.65H19.88V353.78h3v25.87H42.17v2.93H22.92v56.05c0,10.63,1.88,16.94,11.87,16.94a19.47,19.47,0,0,0,6.65-1.07v2.77a16.56,16.56,0,0,1-6.65,1.23c-10.72,0-14.91-5.08-14.91-20.48V382.58H5.4Z"/><path class="cls-1" d="M54.47,338.38v62.37c3.77-12.32,14.33-23.26,31-23.26,14.91,0,29.1,8.78,29.1,33.88V457h-3V412c0-17.25-7.38-31.42-26.2-31.42-18.53,0-30.84,14.79-30.84,35.58V457h-3V338.38Z"/><path class="cls-1" d="M132.38,418.15c.29,24.33,13.9,38,32.28,38,15.64,0,25.19-8.32,29.53-18.48h3.33c-4.63,11.86-15.49,21.41-32.86,21.41-25.77,0-35.46-21.87-35.46-40.66,0-23.87,13.75-41,35.46-41,27.22,0,34.31,22.49,34.31,37.43v3.23Zm63.55-2.93c-.58-18.94-9.55-34.8-31.56-34.8-19.25,0-31.12,15.55-31.84,34.8Z"/><path class="cls-1" d="M244.28,436.32c2.75,13.09,12.59,19.87,27.07,19.87,15.2,0,25-6.62,25-18.94,0-7.7-1.59-15.71-24-19.87C247.9,412.91,245,406.14,245,396.9c0-8.32,6.37-19.41,25.19-19.41,20.56,0,26.35,12.32,27.36,20.79h-3c-1.45-7.85-6.08-17.86-24.46-17.86-16.8,0-21.86,9.39-21.86,16.32,0,10.94,6.08,14.17,25.18,17.87,22,4.31,26.21,12,26.21,22.48,0,13.71-10.86,22-28.23,22-18.24,0-28.37-10.17-30.11-22.8Z"/><path class="cls-1" d="M369.61,439.87a143,143,0,0,0,.87,17.09h-2.9c-.43-1.23-1.15-10.16-1-16.79C362.52,452,353.11,459.12,335,459.12c-20.41,0-27.07-13.09-27.07-23.57,0-19.09,16.94-24.48,37.5-24.48,13,0,17.08,0,21.13.15v-7.7c0-12-5.65-23.1-25-23.1-17.95,0-24.32,8.93-26.35,20.79h-3c1.74-12.47,9-23.72,29.68-23.72s27.79,11.86,27.79,25.57Zm-3-25.72c-5.65-.16-12.3-.16-21.28-.16-14.33,0-34.16,2.31-34.16,21.56,0,12.32,9.55,20.49,23.88,20.49,23.31,0,31.56-12.32,31.56-31.11Z"/><path class="cls-1" d="M388,405.21c0-11.7,0-21.56-.14-25.56h2.89c.29,4.47.44,15.55.29,18.94,3.48-10.32,11.44-21.1,26.93-21.1,13.75,0,21.86,7.86,24.75,19.72,3.76-10.32,12.45-19.56,26.93-19.72,13.6-.15,25.76,7.09,25.76,30.34V457h-3V408.6c0-14.32-5.06-28-22.72-28-15.78,0-26.35,12.63-26.35,31.57V457h-3V405.21c0-10.31-5.07-24.48-22.58-24.48S391,397.05,391,414.3V457h-3Z"/><path class="cls-1" d="M513.31,418.15c.29,24.33,13.9,38,32.28,38,15.64,0,25.19-8.32,29.53-18.48h3.33c-4.63,11.86-15.48,21.41-32.86,21.41-25.76,0-35.46-21.87-35.46-40.66,0-23.87,13.75-41,35.46-41,27.22,0,34.31,22.49,34.31,37.43v3.23Zm63.55-2.93c-.58-18.94-9.55-34.8-31.56-34.8-19.25,0-31.12,15.55-31.84,34.8Z"/><path class="cls-1" d="M8.71,540.32c2.75,13.09,12.59,19.87,27.07,19.87,15.2,0,25-6.62,25-18.94,0-7.7-1.59-15.71-24-19.87C12.32,516.91,9.43,510.14,9.43,500.9c0-8.32,6.37-19.41,25.19-19.41,20.55,0,26.34,12.32,27.36,20.79h-3c-1.45-7.85-6.08-17.86-24.47-17.86-16.79,0-21.86,9.39-21.86,16.32,0,10.94,6.08,14.17,25.19,17.87,22,4.31,26.2,12,26.2,22.48,0,13.71-10.85,22-28.22,22-18.24,0-28.38-10.17-30.11-22.8Z"/><path class="cls-1" d="M80.27,525.85c6.81-5.55,38.22-31.88,50.67-42.2h4.78l-37.49,31L140.35,561h-4L95.91,516.45,80.27,529.39V561h-3V442.38h3Z"/><path class="cls-1" d="M148.11,483.65c21.42,47.43,31,68.53,33.15,73.31h.14c2.17-5.39,11.73-27.42,31.71-73.31h3.33L182.13,563c-10.28,23.57-14.62,34.65-30.11,34.65a32.67,32.67,0,0,1-8.4-1.07l.58-3.39a32.71,32.71,0,0,0,8,1.08c11.73,0,16.22-6.32,27.36-33.27l-34.89-77.31Z"/><path class="cls-1" d="M221.85,517.88c4.63-11.55,7.09-25.41,7.53-38.5h3.18c-.72,17.86-4.63,30.95-7.82,38.5Zm19.54,0c4.63-11.55,7.09-25.41,7.53-38.5h3.18c-.72,17.86-4.63,30.95-7.81,38.5Z"/><path class="cls-2" d="M5.69,8.54H75v2.92H8.73V60.75h62v2.92h-62V119h-3Z"/><path class="cls-2" d="M180.66,119h-2.75c-.43-2.93-.29-19.87-.29-26.64-5.79,17.25-18.82,28.8-44.15,28.8-32.86,0-51.1-26-51.1-56.52,0-33.73,21.28-58.22,52.11-58.22,24.32,0,40.68,11.4,46.76,32.19h-3.18C172,18.86,155.47,9.31,134.19,9.31,105,9.31,85.55,32.87,85.55,64.6c0,28.64,17.52,53.59,48.06,53.59,26.35,0,44-14,44-44.2V66.44H133.9V63.52h46.76Z"/><path class="cls-2" d="M299.76,62.75c0,32.65-19.69,58.37-52.55,58.37-30.84,0-52.12-25.11-52.12-57.45,0-30.95,21.57-57.29,52.7-57.29C277.61,6.38,299.76,31.18,299.76,62.75Zm-101.48.77c0,28.95,19.11,54.67,49.07,54.67,28.81,0,49.22-22.64,49.22-55.13,0-29-20.12-53.75-48.93-53.75C220.28,9.31,198.28,32.87,198.28,63.52Z"/><path class="cls-2" d="M412.81,16.7H362.87C361.27,32.41,359,54.43,356.93,64c5.21-7.55,13.32-13.86,28.52-13.86,18.67,0,32.57,13.09,32.57,33.57,0,23.1-13.46,37.43-34.16,37.43-18.39,0-30.26-10.78-33.73-26.8h3c3.91,13.86,13.89,23.87,30.83,23.87,17.95,0,30.84-12.32,30.84-34.34,0-13.4-7.53-30.8-29.39-30.8-17.95,0-25,9.08-29.24,17.24l-2.9-.92c2.46-13.71,6.37-46.51,6.81-55.6h53.27Z"/><path class="cls-2" d="M419.66,41.65h14.47V15.78h3V41.65h19.25v2.93H437.17v56.05c0,10.63,1.88,16.94,11.87,16.94a19.49,19.49,0,0,0,6.66-1.07v2.77A16.58,16.58,0,0,1,449,120.5c-10.71,0-14.91-5.08-14.91-20.48V44.58H419.66Z"/><path class="cls-2" d="M468.73.38V62.75c3.76-12.32,14.33-23.26,31-23.26,14.91,0,29.09,8.78,29.09,33.88V119h-3V74c0-17.25-7.38-31.42-26.2-31.42-18.53,0-30.83,14.79-30.83,35.58V119h-3V.38Z"/><path class="cls-2" d="M21.55,183.46,3.74,227.19H.56L45.87,116.77h2.75L93.5,227.19H90.17L72.36,183.46Zm49.65-2.93C56.15,143.11,48.91,126,47.32,120.62h-.15c-1.16,3.7-12,29.72-24.32,59.91Z"/><path class="cls-2" d="M104.71,173.91c0-15.09-.14-20.95-.14-24h2.89c.15,2.47.44,14.33.29,20.64,2.9-7.85,10.43-22.79,31.27-22.79,16.65,0,28.66,11.24,28.66,33.57v45.89h-3V181.92c0-18.64-9.26-31.11-26-31.11-21,0-30.84,17.86-30.84,35v41.42h-3Z"/><path class="cls-2" d="M180.28,173.91c0-15.09-.15-20.95-.15-24H183c.14,2.47.43,14.33.29,20.64,2.89-7.85,10.42-22.79,31.26-22.79,16.65,0,28.67,11.24,28.67,33.57v45.89h-3V181.92c0-18.64-9.27-31.11-26.06-31.11-21,0-30.83,17.86-30.83,35v41.42h-3Z"/><path class="cls-2" d="M282.47,149.88c20.56,46.05,29.82,67,32.28,72.69h.15c2.32-5.39,12-26.49,32.71-72.69h3.33l-34.88,77.31h-2.61L279,149.88Z"/><path class="cls-2" d="M356.55,188.38c.28,24.34,13.89,38,32.28,38,15.63,0,25.18-8.31,29.53-18.48h3.33c-4.64,11.86-15.49,21.41-32.86,21.41-25.77,0-35.47-21.87-35.47-40.66,0-23.87,13.75-41,35.47-41,27.21,0,34.3,22.48,34.3,37.42v3.23Zm63.54-2.92c-.57-18.94-9.55-34.81-31.55-34.81-19.26,0-31.13,15.56-31.85,34.81Z"/><path class="cls-2" d="M437,176.22c0-11.86,0-20.64-.15-26.34h2.9c.14,3.85.43,16.79.29,22.8,3.47-11.86,14.62-24.49,30.25-25v3.38c-16.36.31-30.25,16.18-30.25,34.5v41.58h-3Z"/><path class="cls-2" d="M475.33,206.56c2.75,13.09,12.6,19.86,27.07,19.86,15.2,0,25.05-6.62,25.05-18.94,0-7.7-1.6-15.71-24-19.87-24.47-4.46-27.36-11.24-27.36-20.48,0-8.31,6.37-19.4,25.18-19.4,20.56,0,26.35,12.32,27.36,20.79h-3c-1.44-7.86-6.08-17.87-24.46-17.87-16.79,0-21.86,9.4-21.86,16.33,0,10.93,6.08,14.17,25.19,17.86,22,4.31,26.2,12,26.2,22.49,0,13.7-10.86,22-28.23,22-18.24,0-28.37-10.16-30.11-22.79Z"/><path class="cls-2" d="M600.66,210.1a143,143,0,0,0,.87,17.09h-2.89c-.44-1.23-1.16-10.16-1-16.78-4,11.86-13.46,18.94-31.55,18.94-20.41,0-27.07-13.09-27.07-23.56,0-19.1,16.93-24.49,37.49-24.49,13,0,17.08,0,21.13.15v-7.7c0-12-5.64-23.1-25-23.1-18,0-24.32,8.94-26.35,20.79h-3c1.74-12.47,9-23.71,29.68-23.71s27.79,11.86,27.79,25.56Zm-3-25.72c-5.64-.15-12.3-.15-21.27-.15-14.34,0-34.17,2.31-34.17,21.56,0,12.32,9.56,20.48,23.89,20.48,23.3,0,31.55-12.32,31.55-31.11Z"/><path class="cls-2" d="M619,176.22c0-11.86,0-20.64-.15-26.34h2.9c.14,3.85.43,16.79.29,22.8,3.47-11.86,14.62-24.49,30.25-25v3.38c-16.36.31-30.25,16.18-30.25,34.5v41.58h-3Z"/><path class="cls-2" d="M659.84,149.88c21.42,47.44,31,68.54,33.15,73.31h.14c2.18-5.39,11.73-27.41,31.71-73.31h3.33L693.86,229.2c-10.28,23.56-14.62,34.65-30.11,34.65a32.57,32.57,0,0,1-8.4-1.08l.58-3.39a32.71,32.71,0,0,0,8,1.08c11.73,0,16.22-6.31,27.36-33.27l-34.88-77.31Z"/><path class="cls-2" d="M14.21,237.38c-4.64,11.55-7.1,25.41-7.53,38.5H3.49c.73-17.87,4.64-31,7.82-38.5Zm19.54,0c-4.63,11.55-7.09,25.41-7.53,38.5H23c.72-17.87,4.63-31,7.81-38.5Z"/><path class="cls-2" d="M103.81,323.09c0,7.7.15,20.64.15,23.87h-3c-.15-2.77-.29-15.25-.15-22.18-4.77,16.33-14,24-30.4,24-13.89,0-28.8-6.78-28.8-31.88V269.65h3v47.59c0,15.4,7.09,28.49,25.91,28.49,21.86,0,30.25-17.25,30.25-39.27V269.65h3Z"/><path class="cls-2" d="M122.41,293.67c0-15.09-.14-20.94-.14-24h2.89c.15,2.46.44,14.32.29,20.64,2.9-7.86,10.43-22.8,31.27-22.8,16.65,0,28.66,11.25,28.66,33.58V347h-3V301.68c0-18.63-9.26-31.11-26.05-31.11-21,0-30.84,17.87-30.84,35V347h-3Z"/><path class="cls-2" d="M271.11,228.38v98.25c0,5.39.14,17.1.14,20.33h-2.89c-.15-4-.29-14.78-.15-21.56-3.76,11.24-10.85,23.72-32.71,23.72-21.57,0-35.76-16.64-35.76-40.35,0-26.49,18.1-41.28,37.21-41.28,20.41,0,28.37,12.79,31.12,20.95V228.38Zm-68.18,80.23C202.93,330,215.52,346,235.5,346c19.25,0,32.71-11.25,32.71-39.28,0-26.95-14.47-36.19-31.55-36.19C215.09,270.57,202.93,289.05,202.93,308.61Z"/><path class="cls-2" d="M289,308.15c.29,24.33,13.89,38,32.28,38,15.63,0,25.19-8.32,29.53-18.48h3.33c-4.63,11.86-15.49,21.41-32.86,21.41-25.77,0-35.47-21.87-35.47-40.66,0-23.87,13.75-41,35.47-41,27.21,0,34.31,22.49,34.31,37.43v3.23Zm63.55-2.93c-.58-18.94-9.56-34.8-31.56-34.8-19.25,0-31.13,15.55-31.85,34.8Z"/><path class="cls-2" d="M369.46,296c0-11.85,0-20.63-.15-26.33h2.9c.14,3.85.43,16.79.29,22.79,3.47-11.86,14.62-24.48,30.25-24.95v3.39c-16.36.31-30.25,16.17-30.25,34.5V347h-3Z"/><path class="cls-2" d="M5.4,379.65H19.88V353.78h3v25.87H42.17v2.93H22.92v56.05c0,10.63,1.88,16.94,11.87,16.94a19.47,19.47,0,0,0,6.65-1.07v2.77a16.56,16.56,0,0,1-6.65,1.23c-10.72,0-14.91-5.08-14.91-20.48V382.58H5.4Z"/><path class="cls-2" d="M54.47,338.38v62.37c3.77-12.32,14.33-23.26,31-23.26,14.91,0,29.1,8.78,29.1,33.88V457h-3V412c0-17.25-7.38-31.42-26.2-31.42-18.53,0-30.84,14.79-30.84,35.58V457h-3V338.38Z"/><path class="cls-2" d="M132.38,418.15c.29,24.33,13.9,38,32.28,38,15.64,0,25.19-8.32,29.53-18.48h3.33c-4.63,11.86-15.49,21.41-32.86,21.41-25.77,0-35.46-21.87-35.46-40.66,0-23.87,13.75-41,35.46-41,27.22,0,34.31,22.49,34.31,37.43v3.23Zm63.55-2.93c-.58-18.94-9.55-34.8-31.56-34.8-19.25,0-31.12,15.55-31.84,34.8Z"/><path class="cls-2" d="M244.28,436.32c2.75,13.09,12.59,19.87,27.07,19.87,15.2,0,25-6.62,25-18.94,0-7.7-1.59-15.71-24-19.87C247.9,412.91,245,406.14,245,396.9c0-8.32,6.37-19.41,25.19-19.41,20.56,0,26.35,12.32,27.36,20.79h-3c-1.45-7.85-6.08-17.86-24.46-17.86-16.8,0-21.86,9.39-21.86,16.32,0,10.94,6.08,14.17,25.18,17.87,22,4.31,26.21,12,26.21,22.48,0,13.71-10.86,22-28.23,22-18.24,0-28.37-10.17-30.11-22.8Z"/><path class="cls-2" d="M369.61,439.87a143,143,0,0,0,.87,17.09h-2.9c-.43-1.23-1.15-10.16-1-16.79C362.52,452,353.11,459.12,335,459.12c-20.41,0-27.07-13.09-27.07-23.57,0-19.09,16.94-24.48,37.5-24.48,13,0,17.08,0,21.13.15v-7.7c0-12-5.65-23.1-25-23.1-17.95,0-24.32,8.93-26.35,20.79h-3c1.74-12.47,9-23.72,29.68-23.72s27.79,11.86,27.79,25.57Zm-3-25.72c-5.65-.16-12.3-.16-21.28-.16-14.33,0-34.16,2.31-34.16,21.56,0,12.32,9.55,20.49,23.88,20.49,23.31,0,31.56-12.32,31.56-31.11Z"/><path class="cls-2" d="M388,405.21c0-11.7,0-21.56-.14-25.56h2.89c.29,4.47.44,15.55.29,18.94,3.48-10.32,11.44-21.1,26.93-21.1,13.75,0,21.86,7.86,24.75,19.72,3.76-10.32,12.45-19.56,26.93-19.72,13.6-.15,25.76,7.09,25.76,30.34V457h-3V408.6c0-14.32-5.06-28-22.72-28-15.78,0-26.35,12.63-26.35,31.57V457h-3V405.21c0-10.31-5.07-24.48-22.58-24.48S391,397.05,391,414.3V457h-3Z"/><path class="cls-2" d="M513.31,418.15c.29,24.33,13.9,38,32.28,38,15.64,0,25.19-8.32,29.53-18.48h3.33c-4.63,11.86-15.48,21.41-32.86,21.41-25.76,0-35.46-21.87-35.46-40.66,0-23.87,13.75-41,35.46-41,27.22,0,34.31,22.49,34.31,37.43v3.23Zm63.55-2.93c-.58-18.94-9.55-34.8-31.56-34.8-19.25,0-31.12,15.55-31.84,34.8Z"/><path class="cls-2" d="M8.71,540.32c2.75,13.09,12.59,19.87,27.07,19.87,15.2,0,25-6.62,25-18.94,0-7.7-1.59-15.71-24-19.87C12.32,516.91,9.43,510.14,9.43,500.9c0-8.32,6.37-19.41,25.19-19.41,20.55,0,26.34,12.32,27.36,20.79h-3c-1.45-7.85-6.08-17.86-24.47-17.86-16.79,0-21.86,9.39-21.86,16.32,0,10.94,6.08,14.17,25.19,17.87,22,4.31,26.2,12,26.2,22.48,0,13.71-10.85,22-28.22,22-18.24,0-28.38-10.17-30.11-22.8Z"/><path class="cls-2" d="M80.27,525.85c6.81-5.55,38.22-31.88,50.67-42.2h4.78l-37.49,31L140.35,561h-4L95.91,516.45,80.27,529.39V561h-3V442.38h3Z"/><path class="cls-2" d="M148.11,483.65c21.42,47.43,31,68.53,33.15,73.31h.14c2.17-5.39,11.73-27.42,31.71-73.31h3.33L182.13,563c-10.28,23.57-14.62,34.65-30.11,34.65a32.67,32.67,0,0,1-8.4-1.07l.58-3.39a32.71,32.71,0,0,0,8,1.08c11.73,0,16.22-6.32,27.36-33.27l-34.89-77.31Z"/><path class="cls-2" d="M221.85,517.88c4.63-11.55,7.09-25.41,7.53-38.5h3.18c-.72,17.86-4.63,30.95-7.82,38.5Zm19.54,0c4.63-11.55,7.09-25.41,7.53-38.5h3.18c-.72,17.86-4.63,30.95-7.81,38.5Z"/><rect class="cls-1" x="262.3" y="157.84" width="4" height="70"/><rect class="cls-1" x="262.3" y="129.84" width="4" height="16"/></g></g></svg>