<svg xmlns="http://www.w3.org/2000/svg" viewBox="0 0 66.29 26.67"><defs><style>.cls-1{fill:#ff005f;}.cls-2{isolation:isolate;}.cls-3{fill:#fff;}</style></defs><title>ico_voice_open</title><g id="レイヤー_2" data-name="レイヤー 2"><g id="レイヤー_1-2" data-name="レイヤー 1"><rect class="cls-1" width="66.29" height="19.66" rx="2.61"/><g id="Label" class="cls-2"><g class="cls-2"><path class="cls-3" d="M8.63,9.86a18,18,0,0,1-2.12,3.06l-1.18-.81A11.74,11.74,0,0,0,7.39,9.28ZM11.11,8.3v5.1c0,.64-.36,1-1.14,1a14.87,14.87,0,0,1-1.79-.1L8.05,13a7.44,7.44,0,0,0,1.22.14c.28,0,.39-.11.4-.4s0-3.88,0-4.4H6.89c-.32,0-.75,0-1.06,0V6.88A7.58,7.58,0,0,0,6.89,7H9.68V6.09a5.13,5.13,0,0,0-.1-1h1.63a7.12,7.12,0,0,0-.1,1V7h2.55a9.48,9.48,0,0,0,1.08-.07V8.33c-.34,0-.77,0-1.06,0Zm2.24.94a26.42,26.42,0,0,1,1.87,2.89l-1.29.7a20.59,20.59,0,0,0-1.78-2.94Zm-.11-2.51a11.74,11.74,0,0,0-.83-1.45l.87-.36a13.29,13.29,0,0,1,.83,1.44Zm1.46-.32A10.64,10.64,0,0,0,13.84,5l.87-.35A14.77,14.77,0,0,1,15.56,6Z"/><path class="cls-3" d="M22.1,12.84a7.36,7.36,0,0,0,.1,1.44H20.47a13.52,13.52,0,0,0,.07-1.44V9.24a22.27,22.27,0,0,1-3.77,1.5L16,9.4a16.86,16.86,0,0,0,5-2,11.7,11.7,0,0,0,2.87-2.48L25,6A18.25,18.25,0,0,1,22.1,8.36Z"/><path class="cls-3" d="M33.8,6.36a5,5,0,0,0-.39.68,15.94,15.94,0,0,1-1.72,3,29.33,29.33,0,0,1,3.06,3.13L33.5,14.28a24.77,24.77,0,0,0-2.76-3.11,14.6,14.6,0,0,1-4.13,3.09l-1.13-1.19A12.31,12.31,0,0,0,30,9.92a8.81,8.81,0,0,0,1.64-2.68H27.9c-.46,0-1.07.06-1.3.07V5.75a10.93,10.93,0,0,0,1.3.08h3.86a3.88,3.88,0,0,0,1.14-.14Z"/><path class="cls-3" d="M38.5,12.21a2.69,2.69,0,0,0,2.41,1.07c1.28.06,3.75,0,5.21-.09a6.76,6.76,0,0,0-.4,1.32c-1.32.07-3.53.09-4.83,0a3.61,3.61,0,0,1-3-1.22c-.49.43-1,.86-1.56,1.32l-.64-1.36a15.09,15.09,0,0,0,1.49-1V10H36V8.76H38.5Zm-.76-4.93A8.11,8.11,0,0,0,36,5.55l1-.79a8.77,8.77,0,0,1,1.83,1.65Zm1.86-1.7h1.76a11.09,11.09,0,0,0,.25-1.09l1.56.18c-.13.32-.27.64-.41.91h2.12V8.66h-4v.73h4.44v3.27H39.6Zm1.28,1.06v1h2.74v-1Zm0,3.83v1.11H44V10.47Z"/><path class="cls-3" d="M51.94,6.47s0,.43,0,.59c-.1,4.67-.18,6.35-.52,6.86a1.18,1.18,0,0,1-.84.56,6.83,6.83,0,0,1-1.33,0,3.09,3.09,0,0,0-.37-1.3c.44,0,.83,0,1,0a.39.39,0,0,0,.37-.2c.21-.29.3-1.66.36-5.32h-1.1c-.11,2.93-.5,5.39-1.91,7a3.34,3.34,0,0,0-1-.95c1.23-1.4,1.53-3.49,1.6-6.06H47V6.47h1.28c0-.58,0-1.19,0-1.81h1.28c0,.61,0,1.22,0,1.81Zm4.58-.72v8.69h-1.3v-.68H53.8v.76H52.54V5.75Zm-1.3,6.75V7H53.8V12.5Z"/><path class="cls-3" d="M59,12.82a1.15,1.15,0,0,1,2.29,0,1.15,1.15,0,0,1-2.29,0Zm.19-5.59,0-1.64h2l0,1.64L60.7,11H59.57Z"/></g></g><polygon class="cls-1" points="33.83 26.67 39.9 16.15 27.76 16.15 33.83 26.67"/></g></g></svg>