<svg xmlns="http://www.w3.org/2000/svg" viewBox="0 0 23 23"><defs><style>.cls-1{fill:#fff6a6;}</style></defs><title>ico_sound</title><g id="レイヤー_2" data-name="レイヤー 2"><g id="レイヤー_1-2" data-name="レイヤー 1"><path class="cls-1" d="M10.94,0h1.12a.34.34,0,0,0,.14,0,10.46,10.46,0,0,1,1.67.22,11.38,11.38,0,0,1,7,4.54,11.26,11.26,0,0,1,2.1,5.47c0,.23.05.46.07.69v1.12a.68.68,0,0,0,0,.14,10.1,10.1,0,0,1-.22,1.64,11.4,11.4,0,0,1-5.16,7.41,11.21,11.21,0,0,1-4.85,1.68l-.69.07H10.94a.27.27,0,0,0-.13,0,11.19,11.19,0,0,1-2.5-.43A11.37,11.37,0,0,1,2,17.94,11,11,0,0,1,.07,12.75c0-.23,0-.46-.07-.69V10.94a.68.68,0,0,0,0-.14A11.21,11.21,0,0,1,.53,8,11.39,11.39,0,0,1,5.77,1.53,11.16,11.16,0,0,1,10.25.07Zm.56,1.18A10.32,10.32,0,1,0,21.82,11.5,10.31,10.31,0,0,0,11.5,1.18Z"/><path class="cls-1" d="M4.64,14.08V9s.09,0,.14,0c.68,0,1.35,0,2,0A.43.43,0,0,0,7,8.88l4.29-3.21a1.45,1.45,0,0,1,.38-.22c.25-.1.36,0,.36.24,0,.53,0,1,0,1.58q0,4.94,0,9.87v.22a.22.22,0,0,1-.32.21,1.25,1.25,0,0,1-.41-.22l-1.32-1L7,14.15a.36.36,0,0,0-.22-.07H4.64Z"/><path class="cls-1" d="M18.37,11.73a7.47,7.47,0,0,1-2.2,5.15.6.6,0,0,1-.86.05.59.59,0,0,1,0-.86,6.28,6.28,0,0,0,1.83-3.94,6.3,6.3,0,0,0-1.7-5L15.32,7a.58.58,0,0,1,0-.85.57.57,0,0,1,.85,0,7.36,7.36,0,0,1,1.65,2.5A8.1,8.1,0,0,1,18.37,11.73Z"/><path class="cls-1" d="M16,11.53A5,5,0,0,1,14.61,15a.59.59,0,1,1-.85-.81,3.78,3.78,0,0,0,1-3.55,3.65,3.65,0,0,0-1-1.79.64.64,0,0,1-.23-.53.56.56,0,0,1,.38-.49.58.58,0,0,1,.62.14A4.93,4.93,0,0,1,16,10.86C16,11.08,16,11.29,16,11.53Z"/></g></g></svg>