<?xml version="1.0" encoding="utf-8"?>
<!-- Generator: Adobe Illustrator 24.1.0, SVG Export Plug-In . SVG Version: 6.00 Build 0)  -->
<svg version="1.1" id="レイヤー_1" xmlns="http://www.w3.org/2000/svg" xmlns:xlink="http://www.w3.org/1999/xlink" x="0px"
	 y="0px" viewBox="0 0 540.5 645.8" style="enable-background:new 0 0 540.5 645.8;" xml:space="preserve">
<style type="text/css">
	.st0{fill-rule:evenodd;clip-rule:evenodd;fill:#FFFFFF;}
</style>
<path class="st0" d="M171.3,529.8c-0.5,0-0.9-2.6-1.1-3.4c-0.2-1.2-0.5-2.3-1.1-3.4c-0.6-0.9-1.2-1-2.1-2.2
	c-0.9-1.3,1.7-3.2,2.1-4.5c0.4-1.3,0-1.1,0-1.1l-4.3-2.3l-1.1,1.1l0,0c-1-0.4-2.1-0.8-3.2-1.1c-1.2-0.5-2.3-1.3-3.2-2.2
	c-0.4-0.5-4.3-3.4-4.3-3.4c-0.8,0.1-1.6,0.5-2.1,1.1c-0.9,1.1-2.3,0-4.3,0s-2.1-1.8-3.2,0s-3.8,2.7-4.3,3.4
	c-0.5,0.7-4.3,1.1-4.3,1.1s1.7,2.3,2.1,2.3s-0.8,2.2-2.1,3.4s0,3.4,0,3.4l1.3,0.7l0,0l-1.3-0.7c0,0-3.4,3.1-4.3,3.4
	c-0.9,0.2-4.8-0.9-5.3-1.1s-2.3,2.2-4.3,2.2c-1.5,0.1-2.8-0.9-3.2-2.2c-0.1-0.6-3.4-4.7-4.3-5.6s-1.1-1.1-1.1-1.1l-2.1,4.5
	c0,0-2.2,0.8-2.1,1.1s-1.2,2-1.1,3.4s-1.4,1-2.1,1.1s-0.1,6.5,0,7.9c0.1,1.4-2.1,1.4-3.2,2.2c-0.9,0.7-2.1,1.1-3.2,1.1
	c-0.9,0.1-2.4,2.7-2.1,2.2s-2.1,2.2-2.1,2.2l-4.3,1.1l-5.3,4.5l1.1,1.2c0,0,2.7-1.5,3.2-1.1s2.4-2.3,3.2-3.4c0.8-1.1,2.1,0,2.1,0
	h1.1l-1.1,2.2v2.2c0.4,1.1,0.8,2.2,1.1,3.4c0.4,1.6,2.1-1.1,2.1-1.1l1.1,2.2l-2.1,2.2l-1.1,2.2c0,0,1.4,2.8,1.1,3.4
	c-0.2,0.3-0.2,0.8,0,1.1c0,0,1.6,2.8,3.2,3.4c1.4,0.3,2.8,0.3,4.2,0v3.3l-2.1,3.4h3.2l1.1,2.3c0,0,2.7,0.9,3.2,0
	c0.5-0.9,2.1-1.1,2.1-1.1c-0.4,0.1,4.3,1.4,5.4,1.1c1-0.2-2.5-2.8-3.2-3.4c-0.7-0.6,0-2.2,0-2.2c0.4-0.3,0.8-0.7,1.1-1.1
	c0.3-0.6,0.3-1.1,0-2.2s0.5-2.1,2.2-2.2c1.6-0.2,1-1.8,1.1-3.4c0.1-1.6,0.5-0.1,1.1-1.1c0.5-1,2.1-1.8,3.2-3.4s1.5-2.5,1.1-4.5
	c-0.1-0.4-0.2-0.7-0.3-1.1c0,0.1,0.1,0.2,0.3,0c0.3-0.6,1.1-2.2,1.1-2.2s3.9-0.6,4.3-1.1c0.4-0.6,1.2-0.5,1.1-1.1
	c-0.1-0.6,0.8-1.3,2.1-2.2s3.1-1.4,3.2-1.1s3.2-1.1,3.2-1.1c1.3,0.7,2.8,1.1,4.3,1.1c2.1-0.2,2.8,1.7,3.2,2.2s1.6,0.5,3.2,2.2
	s0.6,1.8,2.1,4.5c1.5,2.7,2.1,2.2,2.1,2.2s1.2-0.4,1.1-1.1c0.1-1.2,0.4-2.4,1.1-3.4c0.5-0.9,1.5-3.4,2.1-4.5s2.3-3.4,2.3-3.4
	c-0.2,0-0.4,0-0.6,0l0,0c0.2,0,0.3,0,0.5,0c0.5,0.2,1.5-3,2.1-3.4s2-2,3.2-2.2s1.2-1.9,2.1-3.4c0.9-1.5,5.3-2.2,5.3-2.2
	S171.8,529.8,171.3,529.8z"/>
<g>
	<path class="st0" d="M539.5,104.6h-5.3l-6.4,5.6l-2.1-1.1l-2.1-3.4l-1.1-3.4l-1.1-4.5l4.3-1.1l-3.2-2.2l-2.1-2.2l-3.2-4.5l-1-3.4
		l4.3-6.8l2.1-6.8l4.3-9c0.6-1.2-1.1-2.2-1.1-2.2s-6.6,5.9-6.4,6.8s-5.4,3.4-5.4,3.4l-7.5,7.9c-2.2,0.3-4.3,0.6-6.4,1.1
		c-1.3,0.5-7.1-2.6-7.5-3.4c-0.3-0.8-3.2-5.6-3.2-5.6s-1.8,4.3-2.1,5.6s-3.2-2.2-3.2-2.2l1.1-3.4l-3.2-2.2c-1.2,0.6-2.3,1.3-3.2,2.2
		c-0.8,1-2.1,0-2.1,0l-5.4-1.1c-0.6-1.1-0.9-2.2-1.1-3.4c0.1-1-3.8-1.8-4.3-3.4s-8.6-4.5-8.6-4.5s-6.8-7-8.6-7.9
		c-1.8-0.8-10.7-11.9-11.8-13.5s-3.3-5.8-5.4-9c-2.1-3.2-8-14.1-9.6-15.8s-5.4-4.4-6.4-5.6c-1.2-1.8-2.3-3.7-3.2-5.6L410,4.5h-4.3
		l-2.1-1.1L402.5,9c0,0-3.4,4.9-3.2,6.8s0.5,3.1,2.1,6.8c1.6,3.7,5.4,13.5,5.4,13.5v10.1c0,0-0.6,8.1-1.1,9
		c-0.5,0.9-2.2,3.7-3.2,4.5c-1,0.8,0.7,12.7,1.1,13.5c0.4,0.8-2.2,6.8-2.2,6.8c-2.2,1-4.3,2.1-6.4,3.4c-1.2,1.4-2.2,2.9-3.2,4.5
		c0,0,2.3,5.4,2.1,6.8s2.1,5.6,2.1,5.6s-0.3,6.1-1.1,6.8s-5,6.5-5.3,7.9c-0.4,1.4-4.3,1.4-5.4,0c-1-1.4-4.3-1.1-4.3-1.1
		s-5.5,2.2-7.5,1.1c-1.4-0.8-2.5-2-3.2-3.4l-4.3-4.5c0,0-3.6,0.5-4.3,0c-0.7-0.5-2.1,2.2-2.1,2.2s2.1,5.2,2.1,6.8s3.2,4.5,3.2,4.5
		c0.1,1.1,0.1,2.2,0,3.4c-0.2,0.9-3.2,2.2-3.2,2.2l-3.2,6.8c-0.8,0-1.6-0.4-2.1-1.1c-1-1.2-3.2,2.2-3.2,2.2l-2.1,3.4
		c-1.4-0.1-2.9-0.1-4.3,0c-1.1,0.2-2.2,0.6-3.2,1.1c0,0,0.4,11.4,0,13.5c-0.3,1.3-1,2.5-2.1,3.4c0,0-0.2,4.5,1.1,4.5
		c1.4,0,2.7,0.9,3.2,2.2c0.8,1.6,0.9,0.9,3.2,3.4c2.3,2.5,2.8,2.1,4.3,3.4c1.5,1.3,0.5,3.7,0,5.6s-3.2,6.8-3.2,6.8s-1.4,4.1-2.1,4.5
		c-0.8,0.4,0.1,4.5,0,5.6s2.1,4.5,2.1,4.5l4.2,2.3l2.1-2.2c0,0,7.1-3.5,7.5-4.5c0.4-1-1.8-5.7-1.1-5.6c0.7,0.1,5.4-4.5,5.4-4.5
		l3.2-3.4l2.1,2.2c0,0,5.1,3.4,6.4,4.5c1.4,1.1,4.4-1.8,6.4-2.2c2.1-0.5,0-5.6,0-5.6l-4.3-2.2c-1.3-0.9-2.3-2.1-3.2-3.4
		c-1-1.6-2.1-3.1-3.2-4.5c0,0-4.5-2.5-5.3-2.2s-3.5-0.7-4.3-1.1c-0.8-0.5-3.3-1.7-4.3-3.4c-1-1.7-2.4-2.5-3.2-4.5
		c-0.8-2,1.1-6.8,1.1-6.8l5.4-6.8c0,0,2.5,2,3.2,1.1c0.7-0.9,5.4,0,5.4,0s1.4,2.3,2.1,3.4c0.9,1.6,2,3.1,3.2,4.5
		c1.3,1.3,2.4,2.9,3.2,4.5l1.1-2.2c0,0,3.5-2.9,4.3-4.5c0.8-1.6,5.6-3.7,7.5-4.5c1.9-0.8,6.5-3.4,7.5-3.4c0.9,0,8.6,2.2,8.6,2.2
		l4.3,4.5c0,0,5.7,2.1,7.5,3.4s5.8,3.3,9.4,6.5c3.6,3.2,14.2,5.3,14.2,6c0,0.7,9.7,10,9.7,10v-3.4l3.2-2.2v-7.9c0,0,0.6-7.8,1.1-9
		s13-16.5,15-18c2-1.5,8.5-7,9.6-7.9s7.5-2.2,7.5-2.2c0.8,1.4,1.9,2.5,3.2,3.4c2.5,1.7,9.3,0.4,10.7,0s1,0.4,0-2.2s2.1-2.2,2.1-2.2
		s2.2,2.8,3.2,2.2c1-0.6,6.4-3.4,6.4-3.4l2.2-3.4c1.7-0.5,3.5-0.9,5.3-1.1c2.8-0.3,7.5-1.1,7.5-1.1l2.1-5.6l6.4-2.2L539.5,104.6z"/>
	<path class="st0" d="M415.2,283.3c0,0,0,0.1,0.1,0.1C415.2,283.3,415.2,283.3,415.2,283.3z"/>
	<path class="st0" d="M413.1,275.6c0-2.1,0-9-1.1-11.2c-1.1-2.2-3.2-5.6-3.2-5.6s0.5-1.7,0-1.1c-0.5,0.6-0.5-3.9,0-4.5
		c0.5-0.6-0.5-3.6,0-4.5c0.3-0.6-1.6-2.8-3.3-4.6l0,0l0,0c-0.5-0.5-0.9-0.9-1.2-1.3l-0.7-0.7l0,0l-2.1-2.2c0,0-4-4.5-4.3-5.6
		c-0.3-1.1-1.4-2.1-2.1-3.4c-0.8-1.3-1.9-6.9-2.1-9c-0.2-2.1,1.1-13.5,1.1-13.5l1.1-11.2l-5.3,3.4h-2.1l-3.2-5.6l-3.2-1.1h-3.2
		l-3.2,6.8l-1.1,4.5c0,0,1.6,4.1,2.1,3.4c0.5-0.8,5.6-0.6,6.4-1.1s6.4-2.3,6.4-2.3l2.1,3.4l-2.1,5.6c-0.7,1.8-1.1,3.7-1.1,5.6
		c0.2,2.7-2.1,2.2-2.1,2.2l-4.3-3.4l-4.3-1.1l-2.1,6.8h-5.3c0,0,0.2-6.5,0-7.9s-1.1-5.6-1.1-5.6l-1.1-4.5l-4.3,2.2
		c0,0-2.8-3.1-3.2-2.2c-0.7,1.2-1.4,2.3-2.2,3.4l2.2,4.5c0,0-0.9,3.6-1.1,4.5s-2.1,3.4-2.1,3.4l-1.1,4.5c0,0-5.8,2.2-6.4,1.1
		c-0.7-1.1-4.3,5.6-4.3,5.6l-2.2,2.3l2.1,1.1l1.1,4.5l2.2,3.7l0-0.1l1,3.1v2.2c-0.3,1.5-0.6,3-1.1,4.5c-0.5,1.5-1.2,2.6-1.1,4.5
		s-2.9,3.8-4.3,4.5c-1,0.4-2.2,0.4-3.2,0l-2.1,2.2v2.2l1.1,1.1h3.2c0.1-0.7,0.1-1.5,0-2.2c-0.2-0.4,3.2,0,3.2,0l2.1,1.1l2.1,3.4
		c0.5,1.1,0.9,2.2,1.1,3.4c-0.2,1.2-0.6,2.3-1.1,3.4v6.7c0,0-1.5,5.3-1.1,5.7s-1.6,2.4-2.1,2.2s-2.1,3.8-2.1,4.5v3.4
		c0,0-0.1,0.4-0.2,1.1l0,0v0c-0.3,1.6-0.8,4.3-0.9,4.6c-0.5,1.5-0.8,3-1.1,4.5c0,0.8-1.4,3.4-1.1,4.5s-2,3.2-2.1,4.5
		s-2.1,0.9-4.3,2.2c-2.1,1.3-1.3,5-1.1,5.6l-2.7,4c0,0,0.1,2.4-0.5,2.8c-0.5,0.4-0.9,6-1.1,5.6s-0.4,3,0,4.5
		c0.1,0.4-1.5,2.3-2.1,3.4c-0.9,1.5-3.7,2.6-5.4,4.5c-1.6,1.9-4.3,1.3-6.4,2.2c-2.1,0.9-6.4,4.5-6.4,4.5s-1.4,6.4-1.1,6.8
		s-0.2,2.8-1.1,3.4c-0.9,0.6-1.4,2.6-3.2,4.5c-1.2,1.2-2,2.8-2.1,4.5c-0.2,1.1-3.2,1.3-5.4,3.4c-1.6,1.7-3,3.6-4.3,5.6
		c-0.7,0.9-4.8-0.2-5.4,0l-3.2,1.1c0,0-3,2.6-3.2,3.4c-0.2,0.8-5.5,1.9-6.4,2.2c-0.6,0.2-2.1,1-3.1,1.6c-0.5,0.1-1,0.3-1.5,0.6h-2.9
		c-1,0.9-2.1,1.6-3.2,2.2c-1.3,0.6-1,1.7-1.1,3.4c-0.1,1.7-1.3,2-2.1,3.4c-0.7,1.2-1.8,2-3.2,2.2c-1.5,0.2-3.1-0.2-4.3-1.1
		c-0.9-0.9-3-2.2-3.2-3.4c-0.1-0.7-0.1-1.5,0-2.2l1.1-4.5l1.1-1.1l-1.1-2.2v-2.2l-2.1-1.1c0,0-0.5,1.6,0,2.2c0.5,0.6-3.2,0-3.2,0
		l-1.1-1.1l1-2.2l1.1-1.1h3.2c0.4-1,1.2-1.8,2.1-2.2c0.8-0.4,1.3-1.3,1.1-2.2c0.7,0.2,1.4,0.2,2.1,0c0.9-0.5,1.7-1.3,2.1-2.2
		c0.1-0.7,0.1-1.5,0-2.2c0,0,2.1-1.6,3.2-2.3c0.7-0.5,1.1-1.4,1.1-2.2c0,0-1.6-1.8-2.1-2.3s-1.9,0.7-3.2,1.1
		c-1.3,0.5-4.1,2.8-5.3,3.4c-1.4,0.8-2.8,1.6-4.3,2.3c-2,0.7-1.9,0.3-4.3,1.1c-1.9,0.7-2.2,1.2-2.2,1.2c0,0,0.1,0,0.1-0.1
		c0.2-0.3-1,2.6-1.1,3.4c-0.2,1.5-0.6,3-1.1,4.5c-0.4,0.5,1.9,3.4,2.1,4.5c0.1,0.7,0.1,1.5,0,2.2c0,0,0.8,4.9,1.1,5.6
		s-1.1,1.1-2.1,3.4s-1.7,4.5-2.1,4.5s-2.9,6-3.2,6.8c-0.3,0.7-2.8,3.8-3.2,4.5s-6.4,5.6-6.4,5.6s-3.3,2.4-4.3,3.4
		c-0.6,0.6-1,1.4-1.1,2.2c-0.2,1.5-0.5,3-1,4.5c-0.7,1.6-1.7,1.6-3.2,2.2c-1.5,0.6-0.7,1.3,0,2.3c0.7,0.9,0.9,1.2,1.1,3.4
		c0.1,2.1,1.9,0.6,2.1,1.1s2.2,2.5,2.1,3.4s-0.6,2.1-1.1,4.5c-0.1,0.4-0.2,0.7-0.2,0.8c0,0,0,0.1-0.1,0.1c-0.4,0.4-0.7-1.4-0.8-2
		c-0.1-0.9-2.5-0.8-3.2-1.1c-0.7-0.3,0.3,3.5,0,4.5s-1.1,0.1-3.2,0s-0.2,1.8-1.1,2.2c-0.9,0.5-1.3-0.5-3.2,1.1
		c-0.8,0.7-1.1,1-1.2,1.1c0.1,0,0.1,0,0.1,0s-0.3,0.2-0.1,0c-0.6-0.1-2.9-0.6-3.1-1.1c-0.3-0.5-1.6,2-2.1,2.2
		c-0.6,0.2-2.3-3-3.2-2.2c-0.2,0.1-0.3,0.3-0.3,0.4c0-0.5,0.1-1,0.3-1.5c0,0-1.7-0.5-2.1,0c-0.4,0.5-1.6,1.6-2.1,2.2
		c-0.5,0.6-1.3-0.4-2.1-1.1s0-2.5,0-4.5c0-2,2.1-0.3,3.2-1.1c1.1-0.8-1-1.3-2.1-2.2c-0.7-0.5-1.1-1.4-1.1-2.2c0,0-2.2,1.7-3.2,2.2
		c-1,0.6-1.6,0.1-3.2,1.1c-1.4,0.8-2.9,1.4-4.5,1.7c-0.6,0.2-0.9,0.5-0.9,0.8c0-0.1,0-0.1,0-0.2c-0.2-0.5-2.2-0.3-2.1,0
		c0.1,0.3-9.7-0.8-9.6,0c0,0.8-1.7-0.3-2.1,0c-0.3,0.4-0.6,0.8-0.8,1.2c0-0.1,0.1-0.2,0.1-0.3c-1.1,0.6-2.3,1-3.6,1.3
		c-0.7,0-3,2.6-4.3,3.4c-1.3,0.6-2.8,1-4.3,1.1c-1.3,0.2-2.5-1.3-4.3-1.1c-1.7,0.2-0.5,1.5-1.1,2.2c-0.6,0.7-3.5,0.1-5.3,0
		c-1.9-0.1-2.1-1.1-2.1-1.1h-6.4c0,0-0.4,0-1.1,1.1c-0.7,1.1-6.3,0-6.4,0l1.1-3.4c0,0-8-1.4-8.6,0c-0.6,1.4-2.9,0.1-4.3,0
		c-1.4-0.1-3.2,2.2-3.2,2.2s-4.3,1.9-4.3,2.2c0.1,0.3-1.5,1.8-2.1,2.2c-0.7,0.5,0.4,4.3,0,4.5c-0.7,0.3-1.4,0.7-2.1,1.1
		c-1.1,0.7-2.2,1.4-3.2,2.2c-0.5,0.6-4.3,4.5-4.3,4.5l-2.1,1.1c-1.2,0.6-2.2,1.4-3.2,2.2c-1.2,1.2-3.3,3.7-4.3,4.5
		c-2.3,2.5-4.5,5.1-6.4,7.9c-1.1,1.6-4.3,2.9-4.3,2.9c0,0,0,0,0,0c-0.3-0.7-1.2-1.1-1-0.7c0.2,0.4-2.9-0.5-4.3,1.1
		c-0.9,0.9-1.3,2.1-1.1,3.4c0,0.9-2.1,1.1-2.1,1.1c-0.6,0.8-1.4,1.6-2.1,2.2c-0.8,0.6-2,2.6-3.2,3.4c-1.2,0.6-2.2,1.4-3.2,2.2
		c-1.8,1.5-2.1-1.1-2.1-1.1c-1.5-0.7-2.9-1.4-4.3-2.2c-0.7-0.5-1,1.6-2.1,3.4c-0.6,1.1-2,1.6-3.2,1.1c-0.7-0.1,2.1,4.5,2.1,4.5
		c-0.2-0.1-1.2,2.9-2.1,3.4s-0.9,0.8,0,2.2c0.6,1,0.9,2.2,1.1,3.4c0.1,0.6,1.5,2.6,2.1,2.2c0.6-0.4,0.2-1.3,0-2.2
		c-0.2-0.9,1.4-0.8,2.1-1.1s0.5-1.1,1.1-1.1s0.8,1.5,2.1,2.2s0.9,0.9,2.1,2.2c1.3,1.3,3.4,0.4,4.3,0c0.5-0.2,0.9-0.6,1.1-1.1V522
		c0,0,2.5,2.5,3.2,2.2c0.6-0.2,0-2.2,0-2.2s4.5,0.8,5.4,0c0.9-0.8,1.7-0.3,2.1-1.1c0.4-0.8,1.2-0.7,2.1,0c0.9,0.7,3.2,1,5.4,3.4
		c2.1,2.3,2.1,2.2,2.1,2.2l3.2,1.1c1.4,0.9,2.8,1.6,4.3,2.2c0.6,0-1.4-1.5-2.1-2.2s0.7-1.6,1.1-2.2c0.4-0.6,1-0.7,2.1-1.1
		c1.1-0.5-0.3-2.1,0-3.4c0.3-1.3-1.7-1.5-1.1-3.4c0.6-1.9,0.4-1.8,0.1-3.1l0-0.8c1.1-0.9,2.1-1.9,3.1-2.9c0.4-0.6,3.2-3.4,3.2-3.4
		h2.1l2.1,2.2c0,0-0.7,4.4,0,4.5c0.7,0.1,2.3,1.3,3.2,1.1c0.9-0.2,4.6-2.2,4.3-2.2h-0.1c0,0,0.5-0.1,1.2-1.1
		c0.7-1.1,2.8-2.4,3.2-2.4c0.2-0.1,0.5-0.1,1.1,0.1c1.4,0.4,2.9,0.4,4.3,0c0.6-0.3,1.6-1.8,2.1-2.2c0.4-0.3,0.7-0.7,1.1-1.1
		c0,0,2.7-1,3.2-1.1c0.9,0,1.7,0.4,2.1,1.1c0.8,0.9,1.2,1.5,2.1,1.1c0.9-0.4,2.5-1.9,3.2-2.2s2.1-2.7,2.1-2.7l0-0.1l2,1l2.4,0.5
		l1-2.3l1.1,2.3c0,0,2.8,0,5.3,0s3.5-1.7,3.2-2.2s1.7-2.3,3.2-3.4c1.1-0.7,2.2-1.4,3.2-2.2c1-1,2.2-2.2,3.2-3.4c1-1.2,3.2,0,3.2,0
		s-0.3-0.7-0.8-1.5l0,0c0.3,0.5,0.5,1,0.8,1.5c0.9,1.4,1.9-0.6,3.2-1.1c1.3-0.6,7.5-1.1,7.5-1.1h4.3c1.2,1,2.3,2.1,3.2,3.4
		c1,1.7,2.6,1.7,3.2,2.2s2.5,0.8,3.2,1.1c0.7,0.4,2.9-1,3.2-2.2c0.3-1.3,2.6-0.7,4.3-1.1c1.7-0.5,1.5-1.2,2.1-2.2
		c0.3-0.7,0.5-1.5,0.7-2.3l0,0c-0.1,1.1,0,2.3,0.3,3.4c0,0,0,2.2,0,3.4c0,1.2,0,2.7,0,4.5c0,1.8-1,0.8-2.1,3.4
		c-1.1,2.6-1.8,2.1-3.2,3.4c-0.9,0.8-2,1.2-3.2,1.1l-2.1,1.1c0,0,1.1,1.1,1.6,1.1l-1.6,1.1c0,0,0.6,2.4,1.1,2.2s0.3,0.4,1.1,1.1
		c0.8,0.7,2.7,2.3,2.1,2.2c-0.5-0.1-2.1,1.1-2.1,1.1s-0.8,1.6,0,2.2c0.6,0.6,0.9,1.4,1.1,2.2c-0.7,0.4-1.4,0.8-2.1,1.1
		c-0.8,0.2-1.2-0.3-1.1,1.1c0.1,1.5,2.2,2.9,2.1,3.4c0,0.4,2.3,1.5,2.1,2.2s2.1,1.1,2.1,1.1c1.2,0.6,2.2,1.4,3.2,2.2
		c0.6,0.8-0.4,3.9,0,4.5s3,1.6,3.2,2.2s1.6,2.5,2.1,2.2c0.6-0.3,0.5,1,2.1,1.1c1.5,0.2,2.9,0.6,4.3,1.1c0.5,0,0.8,0.1,2.1-1.1
		c1.4-1.2,2.2-1,3.2-2.2s1.7-0.8,2.1-2.2c0.4-1.5,0.7-2.9,0.9-4.4c0,0,0,0,0,0l-0.2-0.3l0.1-0.1c0,0.1,0,0.3,0,0.4l0,0c0,0,0,0,0,0
		c0,0.5,0,0.8,0.2,0.8c0.7-0.3,1.4-0.5,2.1-0.9c0,0-0.3-1.9,0-2.2c0.3-0.4,0.4-1.9,1.1-3.4c0.6-1.5,2.1-2.5,2.1-3.4s2-1.2,3.2-1.1
		s1.1-2.9,1.1-3.4c0.1-1.1,0.1-2.2,0-3.4c-0.1-0.2,1-1.3,1.1-2.2c0.1-0.9,1.5-1.2,3.2-2.2c1.7-1,2.7-0.2,4.3-1.1s4.1-2.6,4.3-3.4
		c0.2-0.8,2.4,0.6,3.2,1.1c0.8,0.5,2,1,2.1,1.1c0.3-0.7,0.3-1.5,0-2.2c-0.5-0.6,1.6-2.2,2.1-3.4c0.6-1.2-0.3-1.4,0-2.2
		c0.3-0.8-2.4-1.1-3.2-1.1s-1.5-0.8-3.2-2.2c-1.7-1.5-1.9-0.6-3.2-2.2c-1.3-1.7-1.6-2-2.1-2.2c-0.5-0.2-0.4-1.7,0-2.2
		c0.4-0.6,0.1-2.7,0-3.4c-0.1-0.7,2.1-3.4,2.1-3.4c0.3-1.5,0.6-3,1.1-4.5c0.3-0.6,0.6-1.3,1.1-1.1c0.4,0.2,2.1-1.1,2.1-1.1
		c0.1-0.7,0.1-1.5,0-2.2v0l0,0c0.6,1.3,1.1,1.1,1.1,1.1l3.2,0c-0.5,0.7-0.8,1.4-1.1,2.2c-0.2,1-0.7,0.8-1.1,1.1
		c-0.3,0.3,1.7,2.8,2.1,3.4c0.4,0.5-0.9,1.5-1.1,2.2c-0.1,0.7,0.9,2.5,1.1,3.4c0.1,0.8,1.9,2,2.1,2.2c0.9,0.3,1.8-0.2,2.2-1.1
		c0.5-1.2-1.6-1.1-2.2-2.2c-0.3-0.7-0.3-1.5,0-2.2c0.4-0.3,0.8-0.7,1.1-1.1c0.2-0.4,1.1,2.2,1.1,3.4c0,1.2,2.4,0.5,4.3,1.1
		c1.9,0.7,2.3-1.7,2.1-2.2c-0.2-0.5,2.1-1.1,2.1-1.1c0.6,0.9,1.3,1.6,2.1,2.2c1.3,0.9,0,0.9,0,2.2c0,1.3-1.8,0.7-2.1,1.1
		c-0.4,0.4-4.7,1.7-5.4,2.2c-0.5,0.6-0.9,1.4-1.1,2.2c1.8-0.3,3.6-0.7,5.4-1.1c1.3-0.5,4.2-1.7,5.3-2.2c1.1-0.5,4.3,0.2,4.5,0.2
		c0.7,0.6,1.6-3.7,0.9-4.7c-0.7-1.1,2.1-1.1,2.1-1.1c0.1,0.7,0.1,1.5,0,2.2c-0.1,1.1,1.1,2.2,1.1,2.2c0.7,0.4,1.4,0.8,2.1,1.1
		c0.9,0.3,2.8,0.7,4.3,1.1c1.5,0.4,3-1.7,4.3-1.1c1.2,0.5,5.8,0.9,6.4,1.1c0.6,0.2,2.3,1.8,3.2,1.1c0.9-0.7-1-2.2-1.1-4.5
		c0-2.3,1.8-2.8,3.2-4.5c1.4-1.7,1.1-2.2,1.1-2.2l1.1-2.2l4.3-1.1c0,0,1.8-1.6,1.1-3.4c-0.7-1.8,1.1-1.5,1.1-2.2
		c0-0.8,2.1-1.1,2.1-1.1c2.1-0.1,4.3-0.1,6.4,0c3.1,0.2,1.1,1.1,1.1,1.1v3.3l-2.1,1.1c0,0-1,2.8-1.1,3.4c-0.1,0.5-0.5,5.1-1.1,5.6
		c-0.6,0.6,1.3,4.1,1.1,4.5c-0.3,0.4,2.6,2.7,3.2,3.4c0.6,0.6,2.2-2,3.2-3.4c1-1.3,1.1-1.6,2.1-2.2s1.5-3,2.1-3.4
		c0.6-0.3,1.5-1.9,2.1-2.2c0.6-0.3,1.1-3.4,1.1-3.4c-0.8-1.1-1.5-2.2-2.1-3.4c-0.8-3.3-1.6-4.4-2-4.8c0.5,0.3,1,0.4,1,0.4l2.1-1.1
		c0.2-1.2,0.6-2.3,1.1-3.4c0.5-0.8,3.3-1.2,4.3-2.2c1.3-0.8,2.8-1.2,4.3-1.1c0.7,0.1,1.4,0.1,2.1,0c0,0,2,1.2,2.1,2.2
		c0.3,1.1,0.7,2.3,1.1,3.4c0,0,1.3,2.5,2.1,2.2c0.8-0.2,0.9-2.3,1.1-3.4c0-0.6,0.5-1.1,1.1-1.1c-0.8-0.6-1.5-1.4-2.1-2.2
		c-0.4-0.8-0.2-3.8-1.1-4.5c-0.8-0.7,0.6-2.8,1.1-3.4c0.4-0.6,3.2-1.1,3.2-1.1l-0.2-0.2l0.2,0c0.9,0.4,0.7-4,1.1-4.3
		c0.4-0.3,0.8-0.7,1.1-1.1c0,0,2.6-1,2.6-2.1l0.6,3.2l1.1-2.2h2.1c0,0,2.8,1.9,3.2,3.4c0.4,1.5-2,2.2-3.2,3.4
		c-1,0.8-2.1,1.6-3.2,2.2c-0.5,0.4-1.2,2.6-2.1,3.4s-1.8,2.1-2.1,2.2s2.1,1.1,2.1,1.1c0.4,0.7,0.4,1.6,0,2.2c-0.7,1.3-0.5,0.8,0,3.4
		s-0.4,5.1-1.1,5.6c-0.7,0.6-1.7,0.7-2.1,1.1c-0.2,0.2,1.1,2.2,1.1,2.2l3.2,2.2l2.1-2.2c0,0,0.9-1.5,2.1-3.4
		c0.8-1.3,1.9-2.5,3.2-3.4c0.2,0,5.5-1.2,7.5-2.3s1.8-2.4,2.1-2.2s0.5-6.9,0-7.9c-0.4-1.1-0.4-2.3,0-3.4c0.4-1.3,1.2-2.4,2.1-3.4
		c1.9-1.8,3.7-3.7,5.4-5.6c0,0,1.9-0.5,2.1,0s3.2-1.1,4.3-1.1h1.1V450c0,0-1-0.8-2-1.7l2.7,2.1c-0.9-1-1.9-1.9-2.9-2.7
		c-0.6-0.4-1.6-2.7-2.4-4.2c-0.9-3.3-3-10.6-5.2-17.9c0-2.4,0.1-4.9,0.1-4.9s1.6-3.6,2.1-3.4c0.5,0.2,0.9-3.8,1.1-4.5
		c0.8-2,1.9-3.9,3.2-5.6c0.9-1.1,1-4,1.1-5.2l1.2-1.2c0.7-0.7,1.6-1.5,2.1-1.4c0.9,0.2,3.8-5.1,4.3-5.6c0.5-0.6-0.5-5.1,0-5.6
		c0.5-0.6,0.5-5.4,1.1-7.9c0.5-2.4-1.1-10.9-1.1-11.2s0.2-6,0-6.7c-1-1.9-2-3.8-3.2-5.6l-0.6,0.2c0,0,0-0.1,0-0.1l0.5-0.2V351
		c0-0.6,1.4-7.5,1.1-7.9c-0.3-0.4,1.6-5.2,2.1-5.6l3.2-2.2l3.2-2.2h3.2c0,0,0.4-1.9,2.1,0s5.3,6.8,5.3,6.8s1.6-0.9,1.1-2.2
		s-3.2-5.1-3.2-5.6s0.9-0.8,1.1-2.2c0.1-1.5,0.1-3,0-4.5l-1-1.1c0,0,1.6-2.1,1.1-2.2s1.3-0.6,1.1-1.1s-1.1-2.2-1.1-2.2
		c0.8-1.1,1.5-2.2,2.1-3.4c-0.2,0,2.1-2.1,2.1-2.2c-0.1-0.7-0.1-1.5,0-2.2c0,0,0,0,0,0c0.2-0.1,1.9-1,2.1-2.2c0.2-1.3,2-1.5,3.2-1.1
		s0.7-1.9,1.1-2.2c0.5-0.7,1.3-1.1,2.1-1.1c1.2,0-0.2-1.5,0-2.2s-0.3-2.3,1.1-3.4c1.4-1.1,1.2-1.9,1.1-2.2c-0.4-0.7-0.8-1.5-1.1-2.2
		c-0.2-1.2,0.2-2.5,1-3.4c0.9-0.9,1.4-1.7,1.1-2.2s0.4-2.3,1.1-3.4c0.5-0.8,0.9-1.2,1-1.3c-0.6-1-0.9-2.1-1-3.2
		C414.3,279.1,413.1,277.6,413.1,275.6z M124.3,465.4C124.3,465.4,124.3,465.4,124.3,465.4c0.1-1.4,0.1-2.8-0.1-4.2l0,0
		C124.2,461.5,124.5,464.2,124.3,465.4z M195.8,459.7C195.8,459.7,195.8,459.8,195.8,459.7c-0.1-0.2-0.1-0.5-0.1-0.9
		C195.8,459.1,195.9,459.4,195.8,459.7z"/>
	<path class="st0" d="M287.9,352.1c0.5,1.1,1.1,0,1.1,0s1.9-1.6,2.1-2.1c0-0.1,0-0.2,0-0.1c0,0,0,0.1,0,0.1c0.1,0.5,0.4,2.2,0,3.3
		c-0.5,1.3-0.9,1.1-1.1,2.2s-2.1,3.4-2.1,3.4c1.1,0.3,2.2,0.7,3.2,1.1c0.7,0.4,2.8-2.1,4.3-3.4s1.8-3.6,2.2-4.5
		c0.3-0.9,2.1-1.1,2.1-1.1c0.1-1.1,0.1-2.3,0-3.4c-0.2-0.6-3.2,1.5-3.2,1.1s-0.9-1.1-1.1-1.1c-0.2,0,0.2-2.4,1.1-4.5s0-6.8,0-6.8
		s-2,2.5-2.1,3.4s-2.1,2.2-2.1,3.4s-3.2,3.4-3.2,3.4s-0.3,2.2,0,2.2C289.4,348.7,287.4,351,287.9,352.1z"/>
	<path class="st0" d="M175.5,502.8c-1.2,1-2.3,2.1-3.2,3.4c-0.8,1.1-1.5,2.2-2.1,3.4v2.3h1.1c0,0,1.5,2.6,2.1,3.4s2.5-0.6,2.1-1.1
		s1.1-0.3,2.1-1.1c0.6-0.5,1.4-0.9,2.1-1.1c0,0-0.1-1.7-1.1-2.2c-0.8-0.5-1.2-1.4-1.1-2.2v-2.2c0.8-1.1,1.5-2.2,2.1-3.4
		c0.6-1.2,1.3-2.3,2.1-3.4l-2.1,1.1L175.5,502.8z"/>
	<path class="st0" d="M110.3,509.6c0-0.1,0-0.1,0-0.1C109.9,509.7,110.1,510,110.3,509.6z"/>
	<path class="st0" d="M81.4,568.1c-0.7-0.4-1.3-1.9-2.1-3.4s0.4-1.3,0-3.4c-0.4-2-0.8-0.5-2.1-1.1S76,559.4,76,558s2.2-2.9,2.1-3.4
		c0-0.4-1.2-1.5-2.1-2.2c-1-0.8-0.7,1.6-1.1,2.2s-1.6,0.4-2.1,0c-0.4-0.4-0.7-0.7-1.1-1.1l-3.2,1.1c-1.1-0.3-2.2-0.7-3.2-1.1
		c-0.9-0.5,1.3-3.3,2.1-3.4s1.1-1.1,1.1-1.1c1.1-0.3,2.2-0.7,3.2-1.2c1.7-0.8,0.4-2.7,0-3.4s0.2-2.5,0-3.4c-0.3-1.1-0.6-2.3-1.1-3.4
		c-0.2-0.6-2.4-1.9-3.2-2.2c-0.8-0.3-2.1,2.5-2.1,3.4s-4.3,2.2-4.3,2.2l-2.1-1.1h-4.3c-0.4-0.7-1.3-1.2-2.1-1.1
		c-1.5,0.1-1.1-2-2.1-3.4c-1-1.4-1.8-2.2-2.1-3.4s-0.7-4-1.1-4.5s-0.7-1-1.1,0s-2.4-0.4-3.2-1.1c-0.8-0.8-3.7-0.7-4.3,0
		c-0.7,0.8-1.4,1.6-2.1,2.2c-0.9,0.8-1.8-0.8-4.3,0c-2.5,0.8-1.8,1.5-2.1,2.2s0,1.1,0,1.1l-2.2,3.4c0.3,0.7,0.3,1.5,0,2.2
		c-0.5,1.1-0.9,2.6-2.1,3.4c-1.2,0.8-3.2-3.4-3.2-3.4s-3.9,1.9-4.3,3.4c-0.2,0.7-0.2,1.5,0,2.2c-1.2,0.8,0.1,1.7,0,2.3
		c-0.1,0.1-0.1,0.2,0,0.3c0,0-0.1-0.1-0.1-0.1c-0.8,0-1.5,0.4-2,0.9c-0.9,0.9-0.8-0.4-1.1-1.1s-1.5-2.8-1.1-3.4s-2.1-0.6-2.1-1.1
		s-1.8,1.8-3.2,3.4c-1.5,1.6,0.4,2,0,2.2s1.2,1.7,1.1,3.4c-0.1,1.7-1.4,1.1-2.1,1.1c0,0,0,0-0.1,0l-3.1-1.1L2.2,549
		c-0.4,1.1-0.8,2.2-1.1,3.3c-0.2,1.2-0.6,2.3-1.1,3.4c-0.2,0.5,1.5,1.7,2.2,2.3c0.7,0.6,1.1,0,1.1,0c0.7,0.5,1.4,0.8,2.2,1.1
		c0.8,0.3,1.5,0.7,2.1,1.1c0.5,0.7,1.3,1.2,2.1,1.1c1.7,0.1,2.1,2.2,2.1,2.2s1.5,1.5,1.1,2.2s1.3,1.2,2.1,3.4s-1.5,1.6-2.1,2.2
		s-2-0.4-2.1-1.1s-1.5-0.6-1.1-1.1c0.4-0.6-0.8-1.3-2.1-3.4S7,564,6.5,563.6c-0.8-0.7-1.5-1.5-2.1-2.2v2.2c0,0-1.6,3.2-2.1,3.4
		s2.4,2.4,3.2,3.3s2.2,1.8,3.2,3.4s0.1,3.1,0,4.5c-0.1,1.4-1.2,2.3-1.1,4.5c0.1,2.2,2.7-2.2,3.2-2.2c0.5,0,3-3.8,3.2-4.5
		s1.2-0.6,3.2-1.1c2-0.5,1.6-1.9,2.1-2.3s1.1,1.1,1.1,1.1c0.5,1.1,0.8,2.2,1.1,3.4c0.2,1.3-1.4,0.8-2.1,2.2
		c-0.7,1.4,3.2,1.1,3.2,1.1s4.4-2.3,5.3-3.4c0.9-1,0.7-3,0-3.4c-0.7-0.3-0.7-1.4-2.1-2.2c-1.4-0.9-4.7-1.5-5.4-1.1
		c-0.7,0.3,1.5-2.7,1.1-3.3c-0.3-0.3-0.3-0.8,0-1.1c-0.3-0.2-0.6-0.3-0.9-0.5v-0.2c0.3,0.2,0.6,0.4,0.9,0.7c0.3-0.7,0.3-1.5,0-2.2
		c-0.4-1.5-1.4-1.7-2.1-2.2c-0.7-0.5,0.1-0.7,0-2.2c-0.1-1.5,0.9,0,2.1-1.1c1.1-1,1.1-1.1,1.1-1.1c0.5,0.4,1,0.7,1.6,0.9
		c0.8,0.2,0.6,0.5,1.3,0.2c0.2-0.1,0.3-0.2,0.4-0.3c0,0.1-0.1,0.2-0.1,0.3l1.1,1.1c0,0,1.4,0.4,1.1,1.1s1.1,3.4,1.1,3.4s0.7,2.1,1,3
		c0,0,0,0.1,0,0.1c0,0.1,0,0.2,0,0.3c0.5,1.3,1.2,2.4,2.1,3.4c1.1,1.4,1.1,1.6,2.1,2.2c1,0.6,1.6,1.1,1.1,2.3
		c-0.5,1.2-0.2,2.6-1.1,3.4c-0.8,0.8-5.4,3.4-5.4,3.4s4.2,1.1,5.4,0c1.2-1.1,3.4-3,3.2-2.2c-0.1,0.8-0.5,1.6-1.1,2.2
		c-0.7,0.8-2.1,1.3-2.1,2.2c-0.2,1.2-0.6,2.3-1.1,3.4c-0.4,0.9-1.1,4.5-1.1,4.5c0.1,1.2-0.3,2.4-1.1,3.4c-1.3,1.2-2.9,0.9-3.2,2.2
		s-1.1,3.4-1.1,3.4c0.5,0.1,0.9,0.1,1.3,0.2l-1.3-0.1c-0.7,0-1.4,0-2.1,0c-0.7-0.1-2.2,0.7-3.2,1.1c-0.7,0.2-1.4,0.2-2.1,0l1.1,2.2
		v2.2c0,0,0.7,0.7,1.1,1.1c0.4,0.5,0.2,2.5,0,3.4s-2.1,2.2-2.1,2.2c0.6,0.9,1.3,1.6,2.1,2.2c0.8,0.4,2.2,1.7,2.1,2.2
		s2.1,2.9,2.1,3.4c0.1,1.1,0.1,2.2,0,3.4c-0.2,1.3-1.4,0.8-2.1,2.2c-0.4,1.1-0.4,2.3,0,3.4l-4.3-1.1c-1.5-0.4-1.1,1.1-1.1,1.1
		c0.8,0.7,1.5,1.4,2.1,2.2c0.4,0.7,0.7,4.2,1.1,4.5c0.4,0.3,3.2,0,3.2,0s4.5-0.6,5.3-1.1s1.1,2.2,1.1,2.2c0.2,0.8,0.6,1.6,1.1,2.2
		c0.5,0.4,3.5-0.4,4.3-1.1c0.7-0.8-0.1-1.8,0-2.2c0.1-0.4-1.3-1.1-2.1-1.1c-0.8-0.1,0.2-2.1-1.1-3.4s0.2-1.6,0-2.2s-0.6-1.9-1.1-3.5
		s1.1-1.1,1.1-1.1s1.2-1.6,1.1-2.2s1.1-5.6,1.1-5.6l2.1-1.1c1,0.5,1.7,1.3,2.1,2.2c0.3,0.8,1.3,1.3,2.2,1.1l-1.1,2.2
		c0,0-0.3,1.4-1.1,1.1c-0.5-0.2-0.9-0.6-1.1-1.1h-3.2v3.4h4.3c-0.2,1.1-0.2,2.3,0,3.4c0.2,0.8,0.6,1.6,1.1,2.2v4.5
		c0,0-1,2.8-1.1,3.4c-0.3,0.8-0.7,1.6-1.1,2.3c0.2-0.4-2.6,4.2-2.1,4.5c0.7,0.2,1.4,0.2,2.1,0l2.1-2.2l2.1-1.1c0,0,0.8,1,2.1,0
		c1.2-1,2.3-2.2,3.2-3.4c1.3-1.4,1.1-1.1,2.1-1.1c0.4,0,0.7,0,1.1,0c0.1-1.5,0.1-3,0-4.5c-0.1-0.4-2.1-1.1-2.1-1.1s0.1-1.7,0-2.2
		c-0.1-0.6,1.5-1.2,2.1-1.1c0.6,0,3.4,1.2,3.4,0.9c0.2,0.1,3.7,2.1,5.1,1.4c1.5-0.7,0.7-1.8,1.1-3.4c0.3-1.1,0.3-2.3,0-3.4
		c-0.3-0.6,0.9-1.5,2.1-2.2s0-5.6,0-5.6s0.8-8.6,1.1-10.1c0.3-1.5,1.4-1.6,1.1-3.4s2-4.3,2.2-6.7c0.2-2.4,1-2.9,1.1-4.5
		c0.1-1.6,2.6-5.2,3.2-5.6c0.7-0.4-0.5-2.4,0-2.2s1.8-2.7,2.1-3.4s1.5-2.1,2.1-2.2c0.6-0.1,2.3-3.9,3-4.8c0.1-0.1,0-0.2-0.1-0.1
		c0.4-0.2,0.9-0.5,1.3-0.7c0.7-0.4,2.4-2.8,2.1-3.4S82.1,568.5,81.4,568.1z M54.6,626.6c0-0.1,0-0.3,0-0.5c0,0.5,0,1.1,0,1.6
		C54.6,627.3,54.6,626.9,54.6,626.6z"/>
	<path class="st0" d="M27.9,589.5c0.5-0.4,2.1-2.2,2.1-2.2V585h-3.2c-0.8,0.2-1.5,0.6-2.1,1.1c-0.6,0.6-1,1.4-1.1,2.3l1.1,2.3
		C25.8,590.4,26.8,590,27.9,589.5z"/>
	<path class="st0" d="M20.4,594c0.6,0,1.1-2.3,1.1-2.3s0.8-2.2,1.1-3.4s-0.7-2.5-1.1-3.4c-0.4-0.9-0.6-1.5-1.1-1.1
		c-0.3,0.2-0.7,0.2-1.1,0c-1.1,0.6-2.2,1.4-3.2,2.2c-0.9,0.9-1.3,2.1-1.1,3.4v3.4c-0.3,1.2-0.6,2.3-1.1,3.4
		c-0.4,0.5,1.1,2.2,1.1,2.2c1.2-0.5,2.3-1.3,3.2-2.2C19.1,595.1,19.8,594,20.4,594z"/>
</g>
</svg>
